<svg width="31" height="31" viewBox="0 0 31 31" fill="none" xmlns="http://www.w3.org/2000/svg">
<circle cx="15.5" cy="15.5" r="15.5" fill="#D3D3D3"/>
<path d="M13 17H17V18H13V17ZM13 14.5H19V15.5H13V14.5ZM13 19.5H15.5V20.5H13V19.5Z" fill="#BA55D3"/>
<path d="M20.5 10.5H19V10C19 9.73478 18.8946 9.48043 18.7071 9.29289C18.5196 9.10536 18.2652 9 18 9H14C13.7348 9 13.4804 9.10536 13.2929 9.29289C13.1054 9.48043 13 9.73478 13 10V10.5H11.5C11.2348 10.5 10.9804 10.6054 10.7929 10.7929C10.6054 10.9804 10.5 11.2348 10.5 11.5V22C10.5 22.2652 10.6054 22.5196 10.7929 22.7071C10.9804 22.8946 11.2348 23 11.5 23H20.5C20.7652 23 21.0196 22.8946 21.2071 22.7071C21.3946 22.5196 21.5 22.2652 21.5 22V11.5C21.5 11.2348 21.3946 10.9804 21.2071 10.7929C21.0196 10.6054 20.7652 10.5 20.5 10.5ZM14 10H18V12H14V10ZM20.5 22H11.5V11.5H13V13H19V11.5H20.5V22Z" fill="#BA55D3"/>
</svg>
