<svg width="31" height="31" viewBox="0 0 31 31" fill="none" xmlns="http://www.w3.org/2000/svg">
<circle cx="15.5" cy="15.5" r="15.5" fill="#D3D3D3"/>
<path d="M12.4106 22C12.1035 22 11.8473 21.8973 11.6419 21.692C11.4366 21.4867 11.3337 21.2304 11.3333 20.9233V11.0767C11.3333 10.77 11.4361 10.514 11.6419 10.3087C11.8477 10.1033 12.1039 10.0004 12.4106 10H19.5899C19.8966 10 20.1528 10.1029 20.3586 10.3087C20.5644 10.5144 20.667 10.7707 20.6666 11.0773V20.9233C20.6666 21.23 20.5639 21.4862 20.3586 21.692C20.1533 21.8978 19.8968 22.0004 19.5893 22H12.4106ZM15.9999 14.744L17.3333 13.9487L18.6666 14.744V10.6667H15.9999V14.744Z" fill="#BA55D3"/>
</svg>
