<svg width="31" height="31" viewBox="0 0 31 31" fill="none" xmlns="http://www.w3.org/2000/svg">
<circle cx="15.5" cy="15.5" r="15.5" fill="#D3D3D3"/>
<g clip-path="url(#clip0_64_627)">
<path d="M21.8083 12.7344C22.0127 13.0312 22.0587 13.3672 21.9463 13.7422L19.8384 20.8203C19.7413 21.1536 19.5458 21.4336 19.252 21.6602C18.9582 21.8867 18.6452 22 18.313 22H11.2381C10.8447 22 10.4652 21.8607 10.0999 21.582C9.7345 21.3034 9.48027 20.9609 9.33719 20.5547C9.21455 20.2057 9.20944 19.875 9.32186 19.5625C9.32186 19.5417 9.32953 19.4714 9.34486 19.3516C9.36019 19.2318 9.37041 19.1354 9.37552 19.0625C9.38063 19.0208 9.37296 18.9648 9.35252 18.8945C9.33208 18.8242 9.32442 18.7734 9.32953 18.7422C9.33975 18.6849 9.36019 18.6302 9.39085 18.5781C9.42151 18.526 9.46367 18.4648 9.51732 18.3945C9.57098 18.3242 9.61313 18.263 9.6438 18.2109C9.76133 18.013 9.8763 17.7747 9.98872 17.4961C10.1011 17.2174 10.1778 16.9792 10.2187 16.7812C10.234 16.7292 10.2353 16.651 10.2225 16.5469C10.2097 16.4427 10.2085 16.3698 10.2187 16.3281C10.234 16.2708 10.2774 16.1979 10.349 16.1094C10.4205 16.0208 10.464 15.9609 10.4793 15.9297C10.5866 15.7422 10.6939 15.5026 10.8012 15.2109C10.9085 14.9193 10.9724 14.6849 10.9929 14.5078C10.998 14.4609 10.9916 14.3776 10.9737 14.2578C10.9558 14.138 10.9571 14.0651 10.9775 14.0391C10.998 13.9714 11.0542 13.8919 11.1462 13.8008C11.2381 13.7096 11.2943 13.651 11.3148 13.625C11.4119 13.4896 11.5205 13.2695 11.6406 12.9648C11.7606 12.6602 11.8309 12.4089 11.8513 12.2109C11.8565 12.1693 11.8488 12.1029 11.8283 12.0117C11.8079 11.9206 11.8028 11.8516 11.813 11.8047C11.8232 11.763 11.8462 11.7161 11.882 11.6641C11.9178 11.612 11.9638 11.5521 12.02 11.4844C12.0762 11.4167 12.1196 11.362 12.1503 11.3203C12.1912 11.2578 12.2333 11.1784 12.2768 11.082C12.3202 10.9857 12.3585 10.8945 12.3917 10.8086C12.4249 10.7227 12.4658 10.6289 12.5144 10.5273C12.5629 10.4258 12.6127 10.3424 12.6638 10.2773C12.7149 10.2122 12.7827 10.151 12.867 10.0938C12.9513 10.0365 13.0433 10.0065 13.1429 10.0039C13.2426 10.0013 13.3639 10.0156 13.507 10.0469L13.4993 10.0703C13.6935 10.0234 13.8238 10 13.8903 10H19.7234C20.1015 10 20.3928 10.1458 20.5972 10.4375C20.8016 10.7292 20.8476 11.0677 20.7352 11.4531L18.635 18.5312C18.451 19.151 18.2683 19.5508 18.0869 19.7305C17.9055 19.9102 17.5772 20 17.1019 20H10.441C10.303 20 10.2059 20.0391 10.1497 20.1172C10.0935 20.2005 10.0909 20.3125 10.142 20.4531C10.2647 20.8177 10.6326 21 11.2458 21H18.3207C18.4689 21 18.612 20.9596 18.7499 20.8789C18.8879 20.7982 18.9773 20.6901 19.0182 20.5547L21.3177 12.8438C21.3535 12.7292 21.3663 12.5807 21.3561 12.3984C21.5502 12.4766 21.701 12.5885 21.8083 12.7344ZM13.6526 12.75C13.6322 12.8177 13.6373 12.8763 13.668 12.9258C13.6986 12.9753 13.7497 13 13.8213 13H18.4816C18.5481 13 18.6132 12.9753 18.6771 12.9258C18.741 12.8763 18.7831 12.8177 18.8036 12.75L18.9646 12.25C18.985 12.1823 18.9799 12.1237 18.9492 12.0742C18.9186 12.0247 18.8675 12 18.7959 12H14.1355C14.0691 12 14.004 12.0247 13.9401 12.0742C13.8762 12.1237 13.834 12.1823 13.8136 12.25L13.6526 12.75ZM13.0164 14.75C12.996 14.8177 13.0011 14.8763 13.0318 14.9258C13.0624 14.9753 13.1135 15 13.1851 15H17.8454C17.9119 15 17.977 14.9753 18.0409 14.9258C18.1048 14.8763 18.1469 14.8177 18.1674 14.75L18.3283 14.25C18.3488 14.1823 18.3437 14.1237 18.313 14.0742C18.2824 14.0247 18.2313 14 18.1597 14H13.4993C13.4329 14 13.3678 14.0247 13.3039 14.0742C13.24 14.1237 13.1978 14.1823 13.1774 14.25L13.0164 14.75Z" fill="#BA55D3"/>
</g>
<defs>
<clipPath id="clip0_64_627">
<rect width="13" height="12" fill="white" transform="translate(9 10)"/>
</clipPath>
</defs>
</svg>
