<svg width="31" height="31" viewBox="0 0 31 31" fill="none" xmlns="http://www.w3.org/2000/svg">
<circle cx="15.5" cy="15.5" r="15.5" fill="#D3D3D3"/>
<g clip-path="url(#clip0_65_432)">
<path d="M16.7619 17.6927C15.8473 18.6649 14.2129 18.279 13.827 16.9997C13.4413 15.7209 14.5895 14.4996 15.8893 14.8053C17.366 13.5423 19.6599 11.5885 20.9886 10.5064C21.452 10.1289 21.849 10.5552 21.4881 11.0059C20.4345 12.3224 18.4618 14.6331 17.1877 16.115C17.3104 16.6482 17.1882 17.2396 16.7619 17.6927ZM19.9877 15.4993C19.9877 15.1162 19.5702 14.8755 19.2379 15.067C18.9057 15.2585 18.9057 15.74 19.2379 15.9316C19.5702 16.1231 19.9877 15.8824 19.9877 15.4993ZM12.4955 13.5014C12.4955 13.1183 12.078 12.8776 11.7457 13.0691C11.4135 13.2606 11.4135 13.7421 11.7457 13.9336C12.078 14.1252 12.4955 13.8844 12.4955 13.5014ZM11.996 15.4993C11.996 15.1162 11.5785 14.8755 11.2463 15.067C10.914 15.2585 10.914 15.74 11.2463 15.9316C11.5785 16.1231 11.996 15.8824 11.996 15.4993ZM13.994 12.0029C13.994 11.6199 13.5764 11.3791 13.2442 11.5706C12.9119 11.7622 12.9119 12.2436 13.2442 12.4352C13.5764 12.6267 13.994 12.386 13.994 12.0029ZM17.9898 12.0029C17.9898 11.6199 17.5722 11.3791 17.24 11.5706C16.9078 11.7622 16.9078 12.2436 17.24 12.4352C17.5722 12.6267 17.9898 12.386 17.9898 12.0029ZM15.9919 11.5034C15.9919 11.1204 15.5743 10.8796 15.2421 11.0712C14.9098 11.2627 14.9098 11.7442 15.2421 11.9357C15.5743 12.1273 15.9919 11.8865 15.9919 11.5034ZM20.3024 14.1704C20.8921 16.3528 19.9847 18.8622 17.6937 19.9858C14.2543 21.6726 10.2544 18.9837 10.5112 15.1573C10.7678 11.3315 15.0894 9.21158 18.2719 11.3498L19.5133 10.401C15.6035 7.30792 9.78779 9.62085 9.0702 14.5543C8.35256 19.4878 13.2664 23.3753 17.8939 21.5349C21.5244 20.091 22.8614 15.9635 21.381 12.7582L20.3024 14.1704Z" fill="#BA55D3"/>
</g>
<defs>
<clipPath id="clip0_65_432">
<rect width="13" height="13" fill="white" transform="translate(9 9)"/>
</clipPath>
</defs>
</svg>
