<svg width="31" height="31" viewBox="0 0 31 31" fill="none" xmlns="http://www.w3.org/2000/svg">
<circle cx="15.5" cy="15.5" r="15.5" fill="#D3D3D3"/>
<path d="M15.375 12.5391C14.595 12.7524 14.125 13.3516 14.125 13.9166C14.125 14.4816 14.595 15.0807 15.375 15.2932V12.5391ZM16.625 16.7066V19.4599C17.405 19.2474 17.875 18.6482 17.875 18.0832C17.875 17.5182 17.405 16.9191 16.625 16.7066Z" fill="#BA55D3"/>
<path fill-rule="evenodd" clip-rule="evenodd" d="M24.3334 15.9998C24.3334 20.6023 20.6026 24.3332 16.0001 24.3332C11.3976 24.3332 7.66675 20.6023 7.66675 15.9998C7.66675 11.3973 11.3976 7.6665 16.0001 7.6665C20.6026 7.6665 24.3334 11.3973 24.3334 15.9998ZM16.0001 10.3748C16.1658 10.3748 16.3248 10.4407 16.442 10.5579C16.5592 10.6751 16.6251 10.8341 16.6251 10.9998V11.264C17.9834 11.5073 19.1251 12.5282 19.1251 13.9165C19.1251 14.0823 19.0592 14.2412 18.942 14.3584C18.8248 14.4757 18.6658 14.5415 18.5001 14.5415C18.3343 14.5415 18.1754 14.4757 18.0581 14.3584C17.9409 14.2412 17.8751 14.0823 17.8751 13.9165C17.8751 13.3515 17.4051 12.7523 16.6251 12.539V15.4307C17.9834 15.674 19.1251 16.6948 19.1251 18.0832C19.1251 19.4715 17.9834 20.4923 16.6251 20.7357V20.9998C16.6251 21.1656 16.5592 21.3246 16.442 21.4418C16.3248 21.559 16.1658 21.6248 16.0001 21.6248C15.8343 21.6248 15.6754 21.559 15.5581 21.4418C15.4409 21.3246 15.3751 21.1656 15.3751 20.9998V20.7357C14.0167 20.4923 12.8751 19.4715 12.8751 18.0832C12.8751 17.9174 12.9409 17.7584 13.0581 17.6412C13.1754 17.524 13.3343 17.4582 13.5001 17.4582C13.6658 17.4582 13.8248 17.524 13.942 17.6412C14.0592 17.7584 14.1251 17.9174 14.1251 18.0832C14.1251 18.6482 14.5951 19.2473 15.3751 19.4598V16.569C14.0167 16.3257 12.8751 15.3048 12.8751 13.9165C12.8751 12.5282 14.0167 11.5073 15.3751 11.264V10.9998C15.3751 10.8341 15.4409 10.6751 15.5581 10.5579C15.6754 10.4407 15.8343 10.3748 16.0001 10.3748Z" fill="#BA55D3"/>
</svg>
