<svg width="31" height="31" viewBox="0 0 31 31" fill="none" xmlns="http://www.w3.org/2000/svg">
<circle cx="15.5" cy="15.5" r="15.5" fill="#D3D3D3"/>
<path d="M10.625 23H8.875C8.77554 23 8.68016 22.9605 8.60983 22.8902C8.53951 22.8198 8.5 22.7245 8.5 22.625V10.875C8.5 10.7755 8.53951 10.6802 8.60983 10.6098C8.68016 10.5395 8.77554 10.5 8.875 10.5H10.625C10.7245 10.5 10.8198 10.5395 10.8902 10.6098C10.9605 10.6802 11 10.7755 11 10.875V22.625C11 22.7245 10.9605 22.8198 10.8902 22.8902C10.8198 22.9605 10.7245 23 10.625 23ZM15.5 14.5V12.875C15.5 12.7755 15.4605 12.6802 15.3902 12.6098C15.3198 12.5395 15.2245 12.5 15.125 12.5H11.875C11.7755 12.5 11.6802 12.5395 11.6098 12.6098C11.5395 12.6802 11.5 12.7755 11.5 12.875V14.5H15.5ZM11.5 21V22.625C11.5 22.7245 11.5395 22.8198 11.6098 22.8902C11.6802 22.9605 11.7755 23 11.875 23H15.125C15.2245 23 15.3198 22.9605 15.3902 22.8902C15.4605 22.8198 15.5 22.7245 15.5 22.625V21H11.5ZM11.5 15.5H15.5V20H11.5V15.5ZM18.625 23H16.375C16.2755 23 16.1802 22.9605 16.1098 22.8902C16.0395 22.8198 16 22.7245 16 22.625V9.375C16 9.27554 16.0395 9.18016 16.1098 9.10983C16.1802 9.03951 16.2755 9 16.375 9H18.625C18.7245 9 18.8198 9.03951 18.8902 9.10983C18.9605 9.18016 19 9.27554 19 9.375V22.625C19 22.7245 18.9605 22.8198 18.8902 22.8902C18.8198 22.9605 18.7245 23 18.625 23ZM19.5312 11.1469L20.4688 22.6416C20.4729 22.692 20.4872 22.741 20.5108 22.7857C20.5344 22.8305 20.5668 22.87 20.6061 22.9018C20.6454 22.9337 20.6907 22.9573 20.7393 22.9712C20.7879 22.9852 20.8389 22.9891 20.8891 22.9828L23.1441 22.7016C23.2401 22.6896 23.3277 22.6409 23.3887 22.5658C23.4497 22.4907 23.4793 22.3949 23.4712 22.2984L22.5312 10.8503C22.5271 10.8006 22.5131 10.7522 22.49 10.708C22.4669 10.6637 22.4353 10.6245 22.3968 10.5927C22.3584 10.5609 22.314 10.537 22.2663 10.5225C22.2185 10.5081 22.1684 10.5033 22.1187 10.5084L19.8647 10.7431C19.7674 10.7536 19.6781 10.8017 19.6158 10.8772C19.5535 10.9526 19.5232 11.0494 19.5312 11.1469Z" fill="#BA55D3"/>
</svg>
