<svg width="31" height="31" viewBox="0 0 31 31" fill="none" xmlns="http://www.w3.org/2000/svg">
<circle cx="15.5" cy="15.5" r="15.5" fill="#D3D3D3"/>
<g clip-path="url(#clip0_280_2483)">
<path d="M13.5961 6.00018C13.4845 6.01678 13.3779 6.05775 13.2838 6.12018C13.2838 6.12018 12.3107 6.73248 11.2646 7.39479C10.2184 8.05633 9.05458 8.78556 8.78843 8.93325L8.73997 8.95633C7.77381 9.55248 7.57304 10.5263 7.53843 11.0725C7.53612 11.0979 7.53843 11.1186 7.53843 11.1456C7.52997 11.3502 7.53843 11.4817 7.53843 11.4817V21.5302C7.53843 22.9902 9.24074 23.6925 10.8561 23.6925C11.3946 23.6925 11.933 23.6056 12.3946 23.4517C12.7023 23.2979 12.923 22.9902 12.923 22.6825V14.6056C12.923 12.8363 13.3077 12.0056 14.4615 11.3133C14.7692 11.1594 17.9954 8.93248 17.9954 8.93248C18.1492 8.77864 18.3077 8.46633 18.3077 8.23556V8.16325C18.3077 7.85556 18.1538 7.62018 17.923 7.46633C17.6923 7.31248 17.3846 7.31248 17.1538 7.46633C17.0769 7.54325 12.3846 10.7025 11.3846 11.2409C10.3846 11.8563 9.45151 12.0048 9.22074 11.6971C9.1492 11.6256 9.08689 11.4063 9.07689 11.1925V11.144C9.07766 10.9348 9.13151 10.5409 9.55766 10.2786C9.98997 10.0379 11.063 9.35248 12.1061 8.69248C12.5469 8.41325 12.6015 8.38325 12.9469 8.16325C12.9924 8.35117 13.1069 8.51508 13.2678 8.62234C13.4286 8.72961 13.624 8.77237 13.8149 8.74211C14.0059 8.71185 14.1785 8.6108 14.2983 8.45906C14.4181 8.30732 14.4764 8.11602 14.4615 7.92325V6.76941C14.4624 6.65977 14.4398 6.55121 14.3953 6.45101C14.3507 6.35081 14.2853 6.26129 14.2033 6.18844C14.1214 6.1156 14.0248 6.06111 13.9201 6.02864C13.8154 5.99617 13.7049 5.98647 13.5961 6.00018ZM19.75 8.69248C19.6276 8.71283 19.5121 8.76244 19.413 8.8371C19.413 8.8371 15.5407 11.4425 14.87 11.8894L14.8461 11.914C14.2892 12.3317 13.9592 12.8286 13.8123 13.2833C13.7304 13.5398 13.6899 13.8078 13.6923 14.0771V14.3179C13.6912 14.3417 13.6912 14.3656 13.6923 14.3894V23.6925C13.6923 25.154 15.3754 26.0002 16.9138 26.0002C17.6061 26.0002 18.2307 25.8509 18.6923 25.5433C19.6154 25.0048 24.0769 21.5294 24.0769 21.5294C24.3077 21.3756 24.4615 21.1586 24.4615 20.9279V10.9279C24.4615 10.5433 24.3123 10.3125 24.0046 10.1586C23.7738 10.0048 23.3946 10.0771 23.1638 10.2309C21.933 11.154 18.62 13.7602 17.8507 14.2217C16.7738 14.8371 15.7592 14.9909 15.3746 14.6063C15.2207 14.4525 15.2307 14.3079 15.2307 14.0771C15.2348 13.9438 15.251 13.8315 15.2792 13.7402C15.3223 13.6063 15.41 13.4417 15.7354 13.1879C15.7507 13.1756 15.743 13.1763 15.7592 13.164C16.3154 12.7925 18.0161 11.6333 19.1254 10.8794C19.1882 11.048 19.3081 11.1892 19.4643 11.2785C19.6205 11.3678 19.8031 11.3996 19.9803 11.3682C20.1574 11.3368 20.318 11.2443 20.434 11.1068C20.5501 10.9693 20.6142 10.7955 20.6154 10.6156V9.46172C20.6162 9.35207 20.5936 9.24351 20.5491 9.14331C20.5046 9.04312 20.4391 8.95359 20.3572 8.88075C20.2752 8.8079 20.1787 8.75342 20.0739 8.72095C19.9692 8.68848 19.8588 8.67878 19.75 8.69248ZM22.923 14.3179V15.8563L19.0769 18.8363V17.2979L22.923 14.3179Z" fill="#BA55D3"/>
</g>
<defs>
<clipPath id="clip0_280_2483">
<rect width="20" height="20" fill="white" transform="translate(6 6)"/>
</clipPath>
</defs>
</svg>
