<svg width="31" height="31" viewBox="0 0 31 31" fill="none" xmlns="http://www.w3.org/2000/svg">
<circle cx="15.5" cy="15.5" r="15.5" fill="#D3D3D3"/>
<path d="M15.1189 23.5C14.7814 23.5 14.4909 23.3875 14.2474 23.1625C14.0039 22.9375 13.8569 22.6625 13.8064 22.3375L13.6376 21.1C13.4751 21.0375 13.3221 20.9625 13.1786 20.875C13.0351 20.7875 12.8944 20.6937 12.7564 20.5937L11.5939 21.0812C11.2814 21.2187 10.9689 21.2312 10.6564 21.1187C10.3439 21.0062 10.1001 20.8062 9.92511 20.5187L9.04386 18.9812C8.86886 18.6937 8.81886 18.3875 8.89386 18.0625C8.96886 17.7375 9.13761 17.4687 9.40011 17.2562L10.3939 16.5062C10.3814 16.4187 10.3751 16.3342 10.3751 16.2527V15.7465C10.3751 15.6655 10.3814 15.5812 10.3939 15.4937L9.40011 14.7437C9.13761 14.5312 8.96886 14.2625 8.89386 13.9375C8.81886 13.6125 8.86886 13.3062 9.04386 13.0187L9.92511 11.4812C10.1001 11.1937 10.3439 10.9937 10.6564 10.8812C10.9689 10.7687 11.2814 10.7812 11.5939 10.9187L12.7564 11.4062C12.8939 11.3062 13.0376 11.2125 13.1876 11.125C13.3376 11.0375 13.4876 10.9625 13.6376 10.9L13.8064 9.6625C13.8564 9.3375 14.0034 9.0625 14.2474 8.8375C14.4914 8.6125 14.7819 8.5 15.1189 8.5H16.8814C17.2189 8.5 17.5096 8.6125 17.7536 8.8375C17.9976 9.0625 18.1444 9.3375 18.1939 9.6625L18.3626 10.9C18.5251 10.9625 18.6784 11.0375 18.8224 11.125C18.9664 11.2125 19.1069 11.3062 19.2439 11.4062L20.4064 10.9187C20.7189 10.7812 21.0314 10.7687 21.3439 10.8812C21.6564 10.9937 21.9001 11.1937 22.0751 11.4812L22.9564 13.0187C23.1314 13.3062 23.1814 13.6125 23.1064 13.9375C23.0314 14.2625 22.8626 14.5312 22.6001 14.7437L21.6064 15.4937C21.6189 15.5812 21.6251 15.6657 21.6251 15.7472V16.2527C21.6251 16.3342 21.6126 16.4187 21.5876 16.5062L22.5814 17.2562C22.8439 17.4687 23.0126 17.7375 23.0876 18.0625C23.1626 18.3875 23.1126 18.6937 22.9376 18.9812L22.0376 20.5187C21.8626 20.8062 21.6189 21.0062 21.3064 21.1187C20.9939 21.2312 20.6814 21.2187 20.3689 21.0812L19.2439 20.5937C19.1064 20.6937 18.9626 20.7875 18.8126 20.875C18.6626 20.9625 18.5126 21.0375 18.3626 21.1L18.1939 22.3375C18.1439 22.6625 17.9971 22.9375 17.7536 23.1625C17.5101 23.3875 17.2194 23.5 16.8814 23.5H15.1189ZM16.0376 18.625C16.7626 18.625 17.3814 18.3687 17.8939 17.8562C18.4064 17.3438 18.6626 16.725 18.6626 16C18.6626 15.275 18.4064 14.6562 17.8939 14.1437C17.3814 13.6312 16.7626 13.375 16.0376 13.375C15.3001 13.375 14.6781 13.6312 14.1716 14.1437C13.6651 14.6562 13.4121 15.275 13.4126 16C13.4131 16.725 13.6664 17.3438 14.1724 17.8562C14.6784 18.3687 15.3001 18.625 16.0376 18.625Z" fill="#BA55D3"/>
</svg>
