<svg width="20" height="20" viewBox="0 0 20 20" fill="none" xmlns="http://www.w3.org/2000/svg">
<path fill-rule="evenodd" clip-rule="evenodd" d="M1.6665 9.99984C1.6665 5.39734 5.39734 1.6665 9.99984 1.6665C14.6023 1.6665 18.3332 5.39734 18.3332 9.99984C18.3332 14.6023 14.6023 18.3332 9.99984 18.3332C5.39734 18.3332 1.6665 14.6023 1.6665 9.99984ZM9.99984 3.33317C8.23173 3.33317 6.53603 4.03555 5.28579 5.28579C4.03555 6.53603 3.33317 8.23173 3.33317 9.99984C3.33317 11.7679 4.03555 13.4636 5.28579 14.7139C6.53603 15.9641 8.23173 16.6665 9.99984 16.6665C11.7679 16.6665 13.4636 15.9641 14.7139 14.7139C15.9641 13.4636 16.6665 11.7679 16.6665 9.99984C16.6665 8.23173 15.9641 6.53603 14.7139 5.28579C13.4636 4.03555 11.7679 3.33317 9.99984 3.33317Z" fill="#333333" fill-opacity="0.75"/>
<path fill-rule="evenodd" clip-rule="evenodd" d="M10.8333 5.83333C10.8333 5.61232 10.7455 5.40036 10.5893 5.24408C10.433 5.0878 10.221 5 10 5C9.77899 5 9.56702 5.0878 9.41074 5.24408C9.25446 5.40036 9.16667 5.61232 9.16667 5.83333V9.16667H5.83333C5.61232 9.16667 5.40036 9.25446 5.24408 9.41074C5.0878 9.56702 5 9.77899 5 10C5 10.221 5.0878 10.433 5.24408 10.5893C5.40036 10.7455 5.61232 10.8333 5.83333 10.8333H9.16667V14.1667C9.16667 14.3877 9.25446 14.5996 9.41074 14.7559C9.56702 14.9122 9.77899 15 10 15C10.221 15 10.433 14.9122 10.5893 14.7559C10.7455 14.5996 10.8333 14.3877 10.8333 14.1667V10.8333H14.1667C14.3877 10.8333 14.5996 10.7455 14.7559 10.5893C14.9122 10.433 15 10.221 15 10C15 9.77899 14.9122 9.56702 14.7559 9.41074C14.5996 9.25446 14.3877 9.16667 14.1667 9.16667H10.8333V5.83333Z" fill="#333333" fill-opacity="0.75"/>
</svg>
