<svg width="26" height="26" viewBox="0 0 26 26" fill="none" xmlns="http://www.w3.org/2000/svg">
<g clip-path="url(#clip0_263_1390)">
<path d="M13.3697 22.6322L10.6518 22.7419C9.73169 22.7216 9.43106 22.4473 9.10403 21.6186L8.41138 19.8717L9.687 19.6056L10.2862 21.1189C10.3176 21.199 10.3737 21.2671 10.4464 21.3131C10.5191 21.3591 10.6046 21.3808 10.6904 21.3748L12.8233 21.2205C13.4184 21.1575 13.5159 20.8142 13.3879 20.4912L12.7461 18.8723L14.367 18.3076L15.0718 20.0891C15.2933 20.6497 15.4436 21.2712 15.1876 21.777C14.8931 22.36 14.4218 22.5875 13.3697 22.6322Z" fill="#82AEC0"/>
<path d="M8.45605 19.9834L8.82574 20.9158C8.82574 20.9158 8.96996 20.7005 9.43918 20.6598C9.9734 20.6131 10.1826 20.8548 10.1826 20.8548L9.80277 19.8961L8.45605 19.9834ZM13.0711 19.6869L14.8687 19.567C15.1125 20.0931 15.2201 20.5075 15.2201 20.5075C15.2201 20.5075 14.8443 20.1927 14.1456 20.2394C13.6459 20.2719 13.4367 20.6192 13.4367 20.6192L13.0711 19.6869Z" fill="#2F7889"/>
<path d="M4.45699 20.8988C5.48853 20.4903 5.72373 18.6414 4.98231 16.7691C4.2409 14.8969 2.80363 13.7103 1.77208 14.1188C0.740531 14.5273 0.505333 16.3762 1.24675 18.2485C1.98817 20.1207 3.42544 21.3073 4.45699 20.8988Z" fill="#B8DADE"/>
<path d="M5.39902 19.1953C5.0009 18.8947 3.9223 19.7194 3.9223 19.7194C3.78418 20.6842 2.71777 20.4059 2.71777 20.4059C3.3048 20.9016 3.93246 21.1047 4.45652 20.8975C5.01309 20.6781 5.33605 20.0342 5.39902 19.1953Z" fill="#82AEC0"/>
<path d="M16.445 2.96359L2.71577 14.1416C2.17139 14.5153 1.91342 16.0144 2.5878 17.7166C3.26217 19.4187 4.49717 20.4059 5.14311 20.1906L22.7865 18.9841C24.702 18.2264 24.834 14.0237 23.0831 9.59969C21.3322 5.17562 18.3605 2.20594 16.445 2.96359Z" fill="#F44336"/>
<path d="M19.3313 16.3556C19.9793 17.3123 18.9434 17.355 14.7773 18.0497C13.6377 18.2406 3.92228 19.7214 3.92228 19.7214C4.18431 19.9631 4.70837 20.3389 5.15524 20.1947C5.15524 20.1947 22.4635 19.1141 22.7885 18.9861L19.3313 16.3556ZM14.9073 5.63469C15.1917 5.42953 15.5999 5.11266 15.6974 4.56422C15.7482 4.27781 15.7848 3.95078 15.8518 3.81063C15.9838 3.53234 16.4896 2.89453 16.4896 2.89453L2.71774 14.1416C2.34603 14.3955 2.29321 14.82 2.29321 14.82C4.40165 13.2397 12.811 7.15203 14.9073 5.63469Z" fill="#C62828"/>
<path d="M23.7544 19.1161C25.6402 18.3693 25.6698 13.9785 23.8206 9.30888C21.9714 4.63928 18.9436 1.4592 17.0578 2.20599C15.172 2.95278 15.1424 7.34363 16.9916 12.0132C18.8408 16.6828 21.8686 19.8629 23.7544 19.1161Z" fill="#B8DADE"/>
<path d="M23.6233 17.5028C24.8603 17.013 24.6192 13.4747 23.0847 9.59985C21.5502 5.72503 19.3035 2.98099 18.0665 3.47086C16.8295 3.96073 17.0706 7.49901 18.6051 11.3738C20.1395 15.2487 22.3862 17.9927 23.6233 17.5028Z" fill="#2F7889"/>
<path d="M23.6234 17.5033C24.8604 17.0137 24.6187 13.4753 23.0851 9.59969L18.6062 11.375C20.1398 15.2486 22.3864 17.9928 23.6234 17.5033Z" fill="url(#paint0_linear_263_1390)"/>
<path d="M16.191 7.64563C15.929 6.49188 15.9513 5.43969 16.1179 4.61703C16.1646 4.3936 16.319 4.12547 16.5485 4.15188C16.776 4.17828 16.843 4.3936 16.8166 4.6211C16.7273 5.39703 16.7963 6.46547 17.0035 7.47906C17.0502 7.70453 17.0462 7.99906 16.7273 8.11281C16.451 8.21438 16.2377 7.84875 16.191 7.64563Z" fill="white"/>
<path opacity="0.45" d="M3.04681 15.3299L14.367 7.7086C14.7123 7.47907 15.1409 7.09922 15.2262 7.86297C15.279 8.33829 15.3399 8.7486 15.2973 9.3661C15.2709 9.75001 14.5173 10.0466 14.2817 10.1664L3.03259 16.0144C2.86197 16.0997 2.54509 16.1789 2.5979 15.8722C2.65681 15.5411 2.9554 15.3908 3.04681 15.3299Z" fill="#FFCA28"/>
</g>
<defs>
<linearGradient id="paint0_linear_263_1390" x1="23.5031" y1="16.8714" x2="20.9523" y2="10.7494" gradientUnits="userSpaceOnUse">
<stop stop-color="#353738"/>
<stop offset="1" stop-color="#353738" stop-opacity="0"/>
</linearGradient>
<clipPath id="clip0_263_1390">
<rect width="26" height="26" fill="white"/>
</clipPath>
</defs>
</svg>
