<svg width="26" height="26" viewBox="0 0 26 26" fill="none" xmlns="http://www.w3.org/2000/svg">
<g clip-path="url(#clip0_263_1402)">
<mask id="mask0_263_1402" style="mask-type:luminance" maskUnits="userSpaceOnUse" x="0" y="0" width="26" height="26">
<path d="M0 0H26V26H0V0Z" fill="white"/>
</mask>
<g mask="url(#mask0_263_1402)">
<path d="M8.59796 11.1459C9.57296 10.7868 10.5211 11.7349 10.162 12.7108L8.03571 18.4909C7.98866 18.6189 7.91012 18.7331 7.80733 18.8228C7.70455 18.9125 7.58082 18.9749 7.44758 19.0042C7.31433 19.0335 7.17585 19.0288 7.0449 18.9905C6.91396 18.9522 6.79478 18.8815 6.69834 18.785L2.52371 14.6104C2.42739 14.5139 2.35689 14.3948 2.31869 14.264C2.28049 14.1331 2.27582 13.9948 2.30512 13.8616C2.33441 13.7285 2.39673 13.6049 2.48633 13.5022C2.57593 13.3995 2.68993 13.3209 2.81784 13.2738L8.59796 11.1459Z" fill="url(#paint0_linear_263_1402)"/>
<path d="M8.59796 11.1459C9.57296 10.7868 10.5211 11.7349 10.162 12.7108L8.03571 18.4909C7.98866 18.6189 7.91012 18.7331 7.80733 18.8228C7.70455 18.9125 7.58082 18.9749 7.44758 19.0042C7.31433 19.0335 7.17585 19.0288 7.0449 18.9905C6.91396 18.9522 6.79478 18.8815 6.69834 18.785L2.52371 14.6104C2.42739 14.5139 2.35689 14.3948 2.31869 14.264C2.28049 14.1331 2.27582 13.9948 2.30512 13.8616C2.33441 13.7285 2.39673 13.6049 2.48633 13.5022C2.57593 13.3995 2.68993 13.3209 2.81784 13.2738L8.59796 11.1459Z" fill="url(#paint1_radial_263_1402)"/>
<path d="M8.59796 11.1459C9.57296 10.7868 10.5211 11.7349 10.162 12.7108L8.03571 18.4909C7.98866 18.6189 7.91012 18.7331 7.80733 18.8228C7.70455 18.9125 7.58082 18.9749 7.44758 19.0042C7.31433 19.0335 7.17585 19.0288 7.0449 18.9905C6.91396 18.9522 6.79478 18.8815 6.69834 18.785L2.52371 14.6104C2.42739 14.5139 2.35689 14.3948 2.31869 14.264C2.28049 14.1331 2.27582 13.9948 2.30512 13.8616C2.33441 13.7285 2.39673 13.6049 2.48633 13.5022C2.57593 13.3995 2.68993 13.3209 2.81784 13.2738L8.59796 11.1459Z" fill="url(#paint2_linear_263_1402)"/>
<path d="M13.473 16.0209C14.448 15.6617 15.3962 16.6099 15.0371 17.5857L12.9092 23.3659C12.8621 23.4938 12.7835 23.6078 12.6808 23.6974C12.5781 23.787 12.4545 23.8493 12.3214 23.8786C12.1882 23.9079 12.0499 23.9032 11.919 23.865C11.7882 23.8268 11.6691 23.7563 11.5726 23.66L7.39798 19.4854C7.30166 19.3889 7.23116 19.2698 7.19296 19.1389C7.15476 19.0081 7.15009 18.8697 7.17939 18.7366C7.20868 18.6035 7.271 18.4799 7.3606 18.3772C7.45019 18.2744 7.5642 18.1959 7.6921 18.1488L13.473 16.0209Z" fill="url(#paint3_linear_263_1402)"/>
<path d="M13.473 16.0209C14.448 15.6617 15.3962 16.6099 15.0371 17.5857L12.9092 23.3659C12.8621 23.4938 12.7835 23.6078 12.6808 23.6974C12.5781 23.787 12.4545 23.8493 12.3214 23.8786C12.1882 23.9079 12.0499 23.9032 11.919 23.865C11.7882 23.8268 11.6691 23.7563 11.5726 23.66L7.39798 19.4854C7.30166 19.3889 7.23116 19.2698 7.19296 19.1389C7.15476 19.0081 7.15009 18.8697 7.17939 18.7366C7.20868 18.6035 7.271 18.4799 7.3606 18.3772C7.45019 18.2744 7.5642 18.1959 7.6921 18.1488L13.473 16.0209Z" fill="url(#paint4_radial_263_1402)"/>
<path d="M13.473 16.0209C14.448 15.6617 15.3962 16.6099 15.0371 17.5857L12.9092 23.3659C12.8621 23.4938 12.7835 23.6078 12.6808 23.6974C12.5781 23.787 12.4545 23.8493 12.3214 23.8786C12.1882 23.9079 12.0499 23.9032 11.919 23.865C11.7882 23.8268 11.6691 23.7563 11.5726 23.66L7.39798 19.4854C7.30166 19.3889 7.23116 19.2698 7.19296 19.1389C7.15476 19.0081 7.15009 18.8697 7.17939 18.7366C7.20868 18.6035 7.271 18.4799 7.3606 18.3772C7.45019 18.2744 7.5642 18.1959 7.6921 18.1488L13.473 16.0209Z" fill="url(#paint5_radial_263_1402)"/>
<g filter="url(#filter0_i_263_1402)">
<path d="M18.2 2.88438C18.2222 2.87556 18.2465 2.87348 18.2699 2.87839C18.2933 2.8833 18.3148 2.89499 18.3316 2.912L23.1131 7.73013C23.13 7.74703 23.1416 7.76851 23.1463 7.79191C23.1511 7.81532 23.1489 7.8396 23.14 7.86175C21.9943 10.673 20.4156 13.663 18.3023 15.7771C16.2435 17.836 12.7611 19.5902 9.61671 20.8804L5.15527 16.4182C6.44552 13.2738 8.19971 9.79225 10.2586 7.73338C12.3792 5.61275 15.3806 4.03082 18.1991 2.88519" fill="url(#paint6_linear_263_1402)"/>
<path d="M18.2 2.88438C18.2222 2.87556 18.2465 2.87348 18.2699 2.87839C18.2933 2.8833 18.3148 2.89499 18.3316 2.912L23.1131 7.73013C23.13 7.74703 23.1416 7.76851 23.1463 7.79191C23.1511 7.81532 23.1489 7.8396 23.14 7.86175C21.9943 10.673 20.4156 13.663 18.3023 15.7771C16.2435 17.836 12.7611 19.5902 9.61671 20.8804L5.15527 16.4182C6.44552 13.2738 8.19971 9.79225 10.2586 7.73338C12.3792 5.61275 15.3806 4.03082 18.1991 2.88519" fill="url(#paint7_radial_263_1402)"/>
<path d="M18.2 2.88438C18.2222 2.87556 18.2465 2.87348 18.2699 2.87839C18.2933 2.8833 18.3148 2.89499 18.3316 2.912L23.1131 7.73013C23.13 7.74703 23.1416 7.76851 23.1463 7.79191C23.1511 7.81532 23.1489 7.8396 23.14 7.86175C21.9943 10.673 20.4156 13.663 18.3023 15.7771C16.2435 17.836 12.7611 19.5902 9.61671 20.8804L5.15527 16.4182C6.44552 13.2738 8.19971 9.79225 10.2586 7.73338C12.3792 5.61275 15.3806 4.03082 18.1991 2.88519" fill="url(#paint8_radial_263_1402)"/>
<path d="M18.2 2.88438C18.2222 2.87556 18.2465 2.87348 18.2699 2.87839C18.2933 2.8833 18.3148 2.89499 18.3316 2.912L23.1131 7.73013C23.13 7.74703 23.1416 7.76851 23.1463 7.79191C23.1511 7.81532 23.1489 7.8396 23.14 7.86175C21.9943 10.673 20.4156 13.663 18.3023 15.7771C16.2435 17.836 12.7611 19.5902 9.61671 20.8804L5.15527 16.4182C6.44552 13.2738 8.19971 9.79225 10.2586 7.73338C12.3792 5.61275 15.3806 4.03082 18.1991 2.88519" fill="url(#paint9_radial_263_1402)"/>
<path d="M18.2 2.88438C18.2222 2.87556 18.2465 2.87348 18.2699 2.87839C18.2933 2.8833 18.3148 2.89499 18.3316 2.912L23.1131 7.73013C23.13 7.74703 23.1416 7.76851 23.1463 7.79191C23.1511 7.81532 23.1489 7.8396 23.14 7.86175C21.9943 10.673 20.4156 13.663 18.3023 15.7771C16.2435 17.836 12.7611 19.5902 9.61671 20.8804L5.15527 16.4182C6.44552 13.2738 8.19971 9.79225 10.2586 7.73338C12.3792 5.61275 15.3806 4.03082 18.1991 2.88519" fill="url(#paint10_radial_263_1402)"/>
</g>
<g filter="url(#filter1_dii_263_1402)">
<path d="M19.9064 8.98788C19.9126 9.3503 19.8466 9.71034 19.7123 10.047C19.5779 10.3836 19.3778 10.6901 19.1238 10.9487C18.8697 11.2072 18.5667 11.4125 18.2324 11.5526C17.8981 11.6928 17.5392 11.765 17.1768 11.765C16.8143 11.765 16.4555 11.6928 16.1212 11.5526C15.7869 11.4125 15.4839 11.2072 15.2298 10.9487C14.9757 10.6901 14.7756 10.3836 14.6413 10.047C14.5069 9.71034 14.4409 9.3503 14.4472 8.98788C14.4595 8.2721 14.7525 7.58982 15.2631 7.088C15.7737 6.58617 16.4609 6.30498 17.1768 6.30498C17.8927 6.30498 18.5799 6.58617 19.0905 7.088C19.601 7.58982 19.894 8.2721 19.9064 8.98788Z" fill="url(#paint11_linear_263_1402)"/>
<path d="M19.9064 8.98788C19.9126 9.3503 19.8466 9.71034 19.7123 10.047C19.5779 10.3836 19.3778 10.6901 19.1238 10.9487C18.8697 11.2072 18.5667 11.4125 18.2324 11.5526C17.8981 11.6928 17.5392 11.765 17.1768 11.765C16.8143 11.765 16.4555 11.6928 16.1212 11.5526C15.7869 11.4125 15.4839 11.2072 15.2298 10.9487C14.9757 10.6901 14.7756 10.3836 14.6413 10.047C14.5069 9.71034 14.4409 9.3503 14.4472 8.98788C14.4595 8.2721 14.7525 7.58982 15.2631 7.088C15.7737 6.58617 16.4609 6.30498 17.1768 6.30498C17.8927 6.30498 18.5799 6.58617 19.0905 7.088C19.601 7.58982 19.894 8.2721 19.9064 8.98788Z" fill="url(#paint12_radial_263_1402)"/>
</g>
<path d="M19.0662 8.98788C19.0714 9.23931 19.0264 9.48925 18.9338 9.72305C18.8412 9.95686 18.7028 10.1698 18.5269 10.3495C18.3509 10.5291 18.1408 10.6719 17.909 10.7693C17.6772 10.8668 17.4282 10.9169 17.1767 10.9169C16.9253 10.9169 16.6763 10.8668 16.4445 10.7693C16.2126 10.6719 16.0026 10.5291 15.8266 10.3495C15.6506 10.1698 15.5123 9.95686 15.4197 9.72305C15.3271 9.48925 15.2821 9.23931 15.2873 8.98788C15.2975 8.49355 15.5011 8.02292 15.8543 7.67694C16.2075 7.33096 16.6823 7.13719 17.1767 7.13719C17.6712 7.13719 18.1459 7.33096 18.4992 7.67694C18.8524 8.02292 19.056 8.49355 19.0662 8.98788Z" fill="url(#paint13_radial_263_1402)"/>
<g filter="url(#filter2_i_263_1402)">
<path d="M1.96877 23.9956C1.39433 23.4211 1.62508 19.4366 3.65633 18.6241C3.65633 18.6241 5.68758 17.8116 6.99652 19.1116C8.30545 20.4116 7.71883 21.8741 7.71883 21.8741C7.14439 23.5974 4.69877 24.2824 4.41114 23.9947C4.2527 23.8363 4.53789 23.5479 4.41114 23.4211C4.28439 23.2936 4.08777 23.439 3.54989 23.7079C3.16639 23.8997 2.1987 24.2255 1.96877 23.9956Z" fill="url(#paint14_radial_263_1402)"/>
<path d="M1.96877 23.9956C1.39433 23.4211 1.62508 19.4366 3.65633 18.6241C3.65633 18.6241 5.68758 17.8116 6.99652 19.1116C8.30545 20.4116 7.71883 21.8741 7.71883 21.8741C7.14439 23.5974 4.69877 24.2824 4.41114 23.9947C4.2527 23.8363 4.53789 23.5479 4.41114 23.4211C4.28439 23.2936 4.08777 23.439 3.54989 23.7079C3.16639 23.8997 2.1987 24.2255 1.96877 23.9956Z" fill="url(#paint15_radial_263_1402)"/>
</g>
<path d="M4.92389 17.0479C5.03707 16.9346 5.17146 16.8448 5.31938 16.7835C5.46729 16.7222 5.62584 16.6906 5.78595 16.6906C5.94607 16.6906 6.10461 16.7222 6.25253 16.7835C6.40044 16.8448 6.53483 16.9346 6.64802 17.0479L9.5202 19.9209C9.73834 20.1514 9.85796 20.4579 9.85362 20.7752C9.84928 21.0926 9.72133 21.3957 9.49697 21.6202C9.27262 21.8446 8.96955 21.9727 8.65222 21.9772C8.33488 21.9817 8.02832 21.8622 7.7977 21.6442L4.92389 18.772C4.81064 18.6588 4.72079 18.5244 4.6595 18.3765C4.5982 18.2286 4.56665 18.0701 4.56665 17.9099C4.56665 17.7498 4.5982 17.5913 4.6595 17.4434C4.72079 17.2955 4.81064 17.1611 4.92389 17.0479Z" fill="url(#paint16_linear_263_1402)"/>
<path d="M4.92389 17.0479C5.03707 16.9346 5.17146 16.8448 5.31938 16.7835C5.46729 16.7222 5.62584 16.6906 5.78595 16.6906C5.94607 16.6906 6.10461 16.7222 6.25253 16.7835C6.40044 16.8448 6.53483 16.9346 6.64802 17.0479L9.5202 19.9209C9.73834 20.1514 9.85796 20.4579 9.85362 20.7752C9.84928 21.0926 9.72133 21.3957 9.49697 21.6202C9.27262 21.8446 8.96955 21.9727 8.65222 21.9772C8.33488 21.9817 8.02832 21.8622 7.7977 21.6442L4.92389 18.772C4.81064 18.6588 4.72079 18.5244 4.6595 18.3765C4.5982 18.2286 4.56665 18.0701 4.56665 17.9099C4.56665 17.7498 4.5982 17.5913 4.6595 17.4434C4.72079 17.2955 4.81064 17.1611 4.92389 17.0479Z" fill="url(#paint17_radial_263_1402)"/>
<path d="M4.92389 17.0479C5.03707 16.9346 5.17146 16.8448 5.31938 16.7835C5.46729 16.7222 5.62584 16.6906 5.78595 16.6906C5.94607 16.6906 6.10461 16.7222 6.25253 16.7835C6.40044 16.8448 6.53483 16.9346 6.64802 17.0479L9.5202 19.9209C9.73834 20.1514 9.85796 20.4579 9.85362 20.7752C9.84928 21.0926 9.72133 21.3957 9.49697 21.6202C9.27262 21.8446 8.96955 21.9727 8.65222 21.9772C8.33488 21.9817 8.02832 21.8622 7.7977 21.6442L4.92389 18.772C4.81064 18.6588 4.72079 18.5244 4.6595 18.3765C4.5982 18.2286 4.56665 18.0701 4.56665 17.9099C4.56665 17.7498 4.5982 17.5913 4.6595 17.4434C4.72079 17.2955 4.81064 17.1611 4.92389 17.0479Z" fill="url(#paint18_radial_263_1402)"/>
<path d="M23.7022 2.33269C22.9328 1.56325 21.5832 1.65019 20.6001 1.98819C19.8584 2.24253 19.1231 2.51535 18.395 2.80638C18.3826 2.81136 18.3716 2.81934 18.363 2.8296C18.3544 2.83986 18.3484 2.85209 18.3457 2.8652C18.343 2.8783 18.3435 2.89188 18.3473 2.90472C18.3511 2.91757 18.358 2.92928 18.3674 2.93882L23.088 7.69113C23.0975 7.70037 23.1091 7.70715 23.1218 7.71088C23.1345 7.71461 23.1479 7.71518 23.1609 7.71253C23.1739 7.70989 23.186 7.70412 23.1962 7.69571C23.2065 7.68731 23.2145 7.67653 23.2196 7.66432C23.5143 6.9285 23.7904 6.18537 24.0476 5.43563C24.3807 4.4655 24.6488 3.27925 23.7022 2.33269Z" fill="url(#paint19_linear_263_1402)"/>
<path d="M23.7022 2.33269C22.9328 1.56325 21.5832 1.65019 20.6001 1.98819C19.8584 2.24253 19.1231 2.51535 18.395 2.80638C18.3826 2.81136 18.3716 2.81934 18.363 2.8296C18.3544 2.83986 18.3484 2.85209 18.3457 2.8652C18.343 2.8783 18.3435 2.89188 18.3473 2.90472C18.3511 2.91757 18.358 2.92928 18.3674 2.93882L23.088 7.69113C23.0975 7.70037 23.1091 7.70715 23.1218 7.71088C23.1345 7.71461 23.1479 7.71518 23.1609 7.71253C23.1739 7.70989 23.186 7.70412 23.1962 7.69571C23.2065 7.68731 23.2145 7.67653 23.2196 7.66432C23.5143 6.9285 23.7904 6.18537 24.0476 5.43563C24.3807 4.4655 24.6488 3.27925 23.7022 2.33269Z" fill="url(#paint20_radial_263_1402)"/>
<path d="M23.7022 2.33269C22.9328 1.56325 21.5832 1.65019 20.6001 1.98819C19.8584 2.24253 19.1231 2.51535 18.395 2.80638C18.3826 2.81136 18.3716 2.81934 18.363 2.8296C18.3544 2.83986 18.3484 2.85209 18.3457 2.8652C18.343 2.8783 18.3435 2.89188 18.3473 2.90472C18.3511 2.91757 18.358 2.92928 18.3674 2.93882L23.088 7.69113C23.0975 7.70037 23.1091 7.70715 23.1218 7.71088C23.1345 7.71461 23.1479 7.71518 23.1609 7.71253C23.1739 7.70989 23.186 7.70412 23.1962 7.69571C23.2065 7.68731 23.2145 7.67653 23.2196 7.66432C23.5143 6.9285 23.7904 6.18537 24.0476 5.43563C24.3807 4.4655 24.6488 3.27925 23.7022 2.33269Z" fill="url(#paint21_linear_263_1402)"/>
<path d="M11.0355 13.5834C12.0105 13.2243 12.9587 14.1724 12.5996 15.1483L10.4725 20.9284C10.4254 21.0564 10.3469 21.1706 10.2441 21.2603C10.1413 21.35 10.0176 21.4124 9.88434 21.4417C9.7511 21.471 9.61261 21.4663 9.48167 21.428C9.35073 21.3897 9.23154 21.319 9.1351 21.2225L4.96048 17.0479C4.86416 16.9514 4.79366 16.8323 4.75546 16.7015C4.71726 16.5706 4.71259 16.4323 4.74189 16.2991C4.77118 16.166 4.8335 16.0424 4.9231 15.9397C5.01269 15.837 5.12669 15.7584 5.2546 15.7113L11.0355 13.5834Z" fill="url(#paint22_linear_263_1402)"/>
<path d="M11.0355 13.5834C12.0105 13.2243 12.9587 14.1724 12.5996 15.1483L10.4725 20.9284C10.4254 21.0564 10.3469 21.1706 10.2441 21.2603C10.1413 21.35 10.0176 21.4124 9.88434 21.4417C9.7511 21.471 9.61261 21.4663 9.48167 21.428C9.35073 21.3897 9.23154 21.319 9.1351 21.2225L4.96048 17.0479C4.86416 16.9514 4.79366 16.8323 4.75546 16.7015C4.71726 16.5706 4.71259 16.4323 4.74189 16.2991C4.77118 16.166 4.8335 16.0424 4.9231 15.9397C5.01269 15.837 5.12669 15.7584 5.2546 15.7113L11.0355 13.5834Z" fill="url(#paint23_radial_263_1402)"/>
<path d="M11.0355 13.5834C12.0105 13.2243 12.9587 14.1724 12.5996 15.1483L10.4725 20.9284C10.4254 21.0564 10.3469 21.1706 10.2441 21.2603C10.1413 21.35 10.0176 21.4124 9.88434 21.4417C9.7511 21.471 9.61261 21.4663 9.48167 21.428C9.35073 21.3897 9.23154 21.319 9.1351 21.2225L4.96048 17.0479C4.86416 16.9514 4.79366 16.8323 4.75546 16.7015C4.71726 16.5706 4.71259 16.4323 4.74189 16.2991C4.77118 16.166 4.8335 16.0424 4.9231 15.9397C5.01269 15.837 5.12669 15.7584 5.2546 15.7113L11.0355 13.5834Z" fill="url(#paint24_radial_263_1402)"/>
<path d="M11.0355 13.5834C12.0105 13.2243 12.9587 14.1724 12.5996 15.1483L10.4725 20.9284C10.4254 21.0564 10.3469 21.1706 10.2441 21.2603C10.1413 21.35 10.0176 21.4124 9.88434 21.4417C9.7511 21.471 9.61261 21.4663 9.48167 21.428C9.35073 21.3897 9.23154 21.319 9.1351 21.2225L4.96048 17.0479C4.86416 16.9514 4.79366 16.8323 4.75546 16.7015C4.71726 16.5706 4.71259 16.4323 4.74189 16.2991C4.77118 16.166 4.8335 16.0424 4.9231 15.9397C5.01269 15.837 5.12669 15.7584 5.2546 15.7113L11.0355 13.5834Z" fill="url(#paint25_radial_263_1402)"/>
<g filter="url(#filter3_f_263_1402)">
<path d="M7.47925 17.9132L12.0496 14.3325L9.10425 19.5634L7.47925 17.9132Z" fill="url(#paint26_linear_263_1402)"/>
</g>
</g>
</g>
<defs>
<filter id="filter0_i_263_1402" x="5.03027" y="2.62579" width="18.1184" height="18.2546" filterUnits="userSpaceOnUse" color-interpolation-filters="sRGB">
<feFlood flood-opacity="0" result="BackgroundImageFix"/>
<feBlend mode="normal" in="SourceGraphic" in2="BackgroundImageFix" result="shape"/>
<feColorMatrix in="SourceAlpha" type="matrix" values="0 0 0 0 0 0 0 0 0 0 0 0 0 0 0 0 0 0 127 0" result="hardAlpha"/>
<feOffset dx="-0.125" dy="-0.25"/>
<feGaussianBlur stdDeviation="0.375"/>
<feComposite in2="hardAlpha" operator="arithmetic" k2="-1" k3="1"/>
<feColorMatrix type="matrix" values="0 0 0 0 0.745098 0 0 0 0 0.772549 0 0 0 0 0.952941 0 0 0 1 0"/>
<feBlend mode="normal" in2="shape" result="effect1_innerShadow_263_1402"/>
</filter>
<filter id="filter1_dii_263_1402" x="13.9468" y="5.92998" width="6.45996" height="6.46001" filterUnits="userSpaceOnUse" color-interpolation-filters="sRGB">
<feFlood flood-opacity="0" result="BackgroundImageFix"/>
<feColorMatrix in="SourceAlpha" type="matrix" values="0 0 0 0 0 0 0 0 0 0 0 0 0 0 0 0 0 0 127 0" result="hardAlpha"/>
<feOffset dy="0.125"/>
<feGaussianBlur stdDeviation="0.25"/>
<feComposite in2="hardAlpha" operator="out"/>
<feColorMatrix type="matrix" values="0 0 0 0 0.866667 0 0 0 0 0.764706 0 0 0 0 0.847059 0 0 0 1 0"/>
<feBlend mode="normal" in2="BackgroundImageFix" result="effect1_dropShadow_263_1402"/>
<feBlend mode="normal" in="SourceGraphic" in2="effect1_dropShadow_263_1402" result="shape"/>
<feColorMatrix in="SourceAlpha" type="matrix" values="0 0 0 0 0 0 0 0 0 0 0 0 0 0 0 0 0 0 127 0" result="hardAlpha"/>
<feOffset dx="-0.05" dy="0.05"/>
<feGaussianBlur stdDeviation="0.025"/>
<feComposite in2="hardAlpha" operator="arithmetic" k2="-1" k3="1"/>
<feColorMatrix type="matrix" values="0 0 0 0 0.721569 0 0 0 0 0.690196 0 0 0 0 0.701961 0 0 0 1 0"/>
<feBlend mode="normal" in2="shape" result="effect2_innerShadow_263_1402"/>
<feColorMatrix in="SourceAlpha" type="matrix" values="0 0 0 0 0 0 0 0 0 0 0 0 0 0 0 0 0 0 127 0" result="hardAlpha"/>
<feOffset dx="0.05" dy="-0.05"/>
<feGaussianBlur stdDeviation="0.025"/>
<feComposite in2="hardAlpha" operator="arithmetic" k2="-1" k3="1"/>
<feColorMatrix type="matrix" values="0 0 0 0 0.615686 0 0 0 0 0.560784 0 0 0 0 0.65098 0 0 0 1 0"/>
<feBlend mode="normal" in2="effect2_innerShadow_263_1402" result="effect3_innerShadow_263_1402"/>
</filter>
<filter id="filter2_i_263_1402" x="1.69604" y="18.2734" width="6.15381" height="5.80129" filterUnits="userSpaceOnUse" color-interpolation-filters="sRGB">
<feFlood flood-opacity="0" result="BackgroundImageFix"/>
<feBlend mode="normal" in="SourceGraphic" in2="BackgroundImageFix" result="shape"/>
<feColorMatrix in="SourceAlpha" type="matrix" values="0 0 0 0 0 0 0 0 0 0 0 0 0 0 0 0 0 0 127 0" result="hardAlpha"/>
<feOffset dy="-0.1"/>
<feGaussianBlur stdDeviation="0.1"/>
<feComposite in2="hardAlpha" operator="arithmetic" k2="-1" k3="1"/>
<feColorMatrix type="matrix" values="0 0 0 0 0.847059 0 0 0 0 0.505882 0 0 0 0 0.360784 0 0 0 1 0"/>
<feBlend mode="normal" in2="shape" result="effect1_innerShadow_263_1402"/>
</filter>
<filter id="filter3_f_263_1402" x="6.97925" y="13.8325" width="5.57031" height="6.23088" filterUnits="userSpaceOnUse" color-interpolation-filters="sRGB">
<feFlood flood-opacity="0" result="BackgroundImageFix"/>
<feBlend mode="normal" in="SourceGraphic" in2="BackgroundImageFix" result="shape"/>
<feGaussianBlur stdDeviation="0.25" result="effect1_foregroundBlur_263_1402"/>
</filter>
<linearGradient id="paint0_linear_263_1402" x1="6.59027" y1="14.0628" x2="2.52777" y2="13.3933" gradientUnits="userSpaceOnUse">
<stop stop-color="#EE2452"/>
<stop offset="1" stop-color="#F63E7A"/>
</linearGradient>
<radialGradient id="paint1_radial_263_1402" cx="0" cy="0" r="1" gradientUnits="userSpaceOnUse" gradientTransform="translate(1.94846 13.8637) rotate(-19.9576) scale(6.50136 1.10537)">
<stop offset="0.164" stop-color="#FF8DB0"/>
<stop offset="1" stop-color="#FF8DB0" stop-opacity="0"/>
</radialGradient>
<linearGradient id="paint2_linear_263_1402" x1="3.9854" y1="16.0331" x2="4.64759" y2="15.3871" gradientUnits="userSpaceOnUse">
<stop offset="0.491" stop-color="#DD467C"/>
<stop offset="1" stop-color="#DD467C" stop-opacity="0"/>
</linearGradient>
<linearGradient id="paint3_linear_263_1402" x1="14.5374" y1="17.6085" x2="9.48529" y2="21.5727" gradientUnits="userSpaceOnUse">
<stop stop-color="#F83267"/>
<stop offset="1" stop-color="#FF3190"/>
</linearGradient>
<radialGradient id="paint4_radial_263_1402" cx="0" cy="0" r="1" gradientUnits="userSpaceOnUse" gradientTransform="translate(11.846 18.0396) rotate(86.482) scale(6.20674 5.35117)">
<stop offset="0.757" stop-color="#E76CBE" stop-opacity="0"/>
<stop offset="0.951" stop-color="#E76CBE"/>
</radialGradient>
<radialGradient id="paint5_radial_263_1402" cx="0" cy="0" r="1" gradientUnits="userSpaceOnUse" gradientTransform="translate(10.9315 21.3151) rotate(-57.346) scale(4.28229 1.88099)">
<stop stop-color="#FF5898"/>
<stop offset="1" stop-color="#FF5898" stop-opacity="0"/>
</radialGradient>
<linearGradient id="paint6_linear_263_1402" x1="10.9573" y1="7.046" x2="18.1171" y2="14.2569" gradientUnits="userSpaceOnUse">
<stop stop-color="#CCBBC0"/>
<stop offset="1" stop-color="#EAD2EC"/>
</linearGradient>
<radialGradient id="paint7_radial_263_1402" cx="0" cy="0" r="1" gradientUnits="userSpaceOnUse" gradientTransform="translate(19.4756 17.5313) rotate(-142.447) scale(13.55 25.4705)">
<stop offset="0.811" stop-color="#E7E5E5" stop-opacity="0"/>
<stop offset="1" stop-color="#E7E5E5"/>
</radialGradient>
<radialGradient id="paint8_radial_263_1402" cx="0" cy="0" r="1" gradientUnits="userSpaceOnUse" gradientTransform="translate(7.45952 17.3144) rotate(-56.929) scale(7.96559 3.74376)">
<stop offset="0.281" stop-color="#B5A3A5"/>
<stop offset="1" stop-color="#B5A3A5" stop-opacity="0"/>
</radialGradient>
<radialGradient id="paint9_radial_263_1402" cx="0" cy="0" r="1" gradientUnits="userSpaceOnUse" gradientTransform="translate(5.15472 16.3238) rotate(-73.625) scale(7.06159 1.19657)">
<stop offset="0.208" stop-color="#B28F96"/>
<stop offset="1" stop-color="#B28F96" stop-opacity="0"/>
</radialGradient>
<radialGradient id="paint10_radial_263_1402" cx="0" cy="0" r="1" gradientUnits="userSpaceOnUse" gradientTransform="translate(22.0268 5.77688) rotate(137.284) scale(10.7047 3.32368)">
<stop stop-color="#FAECF1"/>
<stop offset="1" stop-color="#FAECF1" stop-opacity="0"/>
</radialGradient>
<linearGradient id="paint11_linear_263_1402" x1="14.4472" y1="8.52394" x2="19.9064" y2="8.98788" gradientUnits="userSpaceOnUse">
<stop stop-color="#A796A0"/>
<stop offset="1" stop-color="#A5959F"/>
</linearGradient>
<radialGradient id="paint12_radial_263_1402" cx="0" cy="0" r="1" gradientUnits="userSpaceOnUse" gradientTransform="translate(17.178 8.98788) rotate(90) scale(2.7295)">
<stop offset="0.587" stop-color="#93859B"/>
<stop offset="1" stop-color="#93859B" stop-opacity="0"/>
</radialGradient>
<radialGradient id="paint13_radial_263_1402" cx="0" cy="0" r="1" gradientUnits="userSpaceOnUse" gradientTransform="translate(17.1763 10.8778) rotate(-90) scale(3.93704 3.62071)">
<stop stop-color="#72CDFF"/>
<stop offset="0.738" stop-color="#66ACFF"/>
<stop offset="1" stop-color="#3B57F4"/>
</radialGradient>
<radialGradient id="paint14_radial_263_1402" cx="0" cy="0" r="1" gradientUnits="userSpaceOnUse" gradientTransform="translate(6.65527 19.7007) rotate(135) scale(4.71774 3.70826)">
<stop stop-color="#D46213"/>
<stop offset="1" stop-color="#FF9542"/>
</radialGradient>
<radialGradient id="paint15_radial_263_1402" cx="0" cy="0" r="1" gradientUnits="userSpaceOnUse" gradientTransform="translate(6.74708 23.5381) rotate(-131.186) scale(5.82931 6.14312)">
<stop offset="0.871" stop-color="#FFC484" stop-opacity="0"/>
<stop offset="1" stop-color="#FFC484"/>
</radialGradient>
<linearGradient id="paint16_linear_263_1402" x1="4.71102" y1="17.8368" x2="9.17976" y2="22.2292" gradientUnits="userSpaceOnUse">
<stop stop-color="#452860"/>
<stop offset="1" stop-color="#51509F"/>
</linearGradient>
<radialGradient id="paint17_radial_263_1402" cx="0" cy="0" r="1" gradientUnits="userSpaceOnUse" gradientTransform="translate(5.54952 17.4306) rotate(77.8285) scale(1.3247 1.17041)">
<stop stop-color="#8E839A"/>
<stop offset="1" stop-color="#8E839A" stop-opacity="0"/>
</radialGradient>
<radialGradient id="paint18_radial_263_1402" cx="0" cy="0" r="1" gradientUnits="userSpaceOnUse" gradientTransform="translate(5.85583 18.2146) rotate(47.9357) scale(5.04749 2.6458)">
<stop offset="0.86" stop-color="#6175B9" stop-opacity="0"/>
<stop offset="1" stop-color="#6175B9"/>
</radialGradient>
<linearGradient id="paint19_linear_263_1402" x1="23.7063" y1="2.33675" x2="20.7196" y2="5.3235" gradientUnits="userSpaceOnUse">
<stop stop-color="#FF3745"/>
<stop offset="1" stop-color="#ED224B"/>
</linearGradient>
<radialGradient id="paint20_radial_263_1402" cx="0" cy="0" r="1" gradientUnits="userSpaceOnUse" gradientTransform="translate(23.3504 3.53269) rotate(135) scale(6.7005 1.60851)">
<stop offset="0.189" stop-color="#FF5971"/>
<stop offset="1" stop-color="#FF5971" stop-opacity="0"/>
</radialGradient>
<linearGradient id="paint21_linear_263_1402" x1="20.9804" y1="5.52257" x2="21.2786" y2="5.21138" gradientUnits="userSpaceOnUse">
<stop stop-color="#D2575E"/>
<stop offset="1" stop-color="#F93251" stop-opacity="0"/>
</linearGradient>
<linearGradient id="paint22_linear_263_1402" x1="12.3177" y1="13.8653" x2="7.04779" y2="19.1352" gradientUnits="userSpaceOnUse">
<stop stop-color="#FF2644"/>
<stop offset="1" stop-color="#FF2982"/>
</linearGradient>
<radialGradient id="paint23_radial_263_1402" cx="0" cy="0" r="1" gradientUnits="userSpaceOnUse" gradientTransform="translate(5.06692 15.7804) rotate(-20.865) scale(6.05948 1.58632)">
<stop stop-color="#FF95AF"/>
<stop offset="1" stop-color="#FF95AF" stop-opacity="0"/>
</radialGradient>
<radialGradient id="paint24_radial_263_1402" cx="0" cy="0" r="1" gradientUnits="userSpaceOnUse" gradientTransform="translate(4.38604 16.5003) rotate(44.7044) scale(3.7458 1.10647)">
<stop offset="0.382" stop-color="#E14678"/>
<stop offset="1" stop-color="#E14678" stop-opacity="0"/>
</radialGradient>
<radialGradient id="paint25_radial_263_1402" cx="0" cy="0" r="1" gradientUnits="userSpaceOnUse" gradientTransform="translate(9.40892 15.5513) rotate(84.6743) scale(6.01817 6.41324)">
<stop offset="0.832" stop-color="#E67BC7" stop-opacity="0"/>
<stop offset="1" stop-color="#E67BC7"/>
</radialGradient>
<linearGradient id="paint26_linear_263_1402" x1="11.3638" y1="14.7136" x2="8.01225" y2="18.2179" gradientUnits="userSpaceOnUse">
<stop stop-color="#FF5970"/>
<stop offset="1" stop-color="#FF5794"/>
</linearGradient>
<clipPath id="clip0_263_1402">
<rect width="26" height="26" fill="white"/>
</clipPath>
</defs>
</svg>
