<svg width="790" height="221" viewBox="0 0 790 221" fill="none" xmlns="http://www.w3.org/2000/svg">
<g clip-path="url(#clip0_263_1379)">
<path opacity="0.6" d="M740 80C767.614 80 790 57.6142 790 30C790 2.38576 767.614 -20 740 -20C712.386 -20 690 2.38576 690 30C690 57.6142 712.386 80 740 80Z" fill="#8B5CF6"/>
<path opacity="0.7" d="M40 240C62.0914 240 80 222.091 80 200C80 177.909 62.0914 160 40 160C17.9086 160 0 177.909 0 200C0 222.091 17.9086 240 40 240Z" fill="#A78BFA"/>
<path opacity="0.5" d="M390 110C423.137 110 450 83.1371 450 50C450 16.8629 423.137 -10 390 -10C356.863 -10 330 16.8629 330 50C330 83.1371 356.863 110 390 110Z" fill="#BA55D3"/>
</g>
<defs>
<clipPath id="clip0_263_1379">
<rect width="790" height="260" fill="white" transform="translate(0 -20)"/>
</clipPath>
</defs>
</svg>
