<svg width="57" height="93" viewBox="0 0 57 93" fill="none" xmlns="http://www.w3.org/2000/svg">
<mask id="path-1-inside-1_222_1165" fill="white">
<path d="M0 8C0 3.58172 3.58172 0 8 0H42C46.4183 0 50 3.58172 50 8V90H8C3.58172 90 0 86.4183 0 82V8Z"/>
</mask>
<path d="M0 0H50H0ZM50 91H8C3.02944 91 -1 86.9706 -1 82H1C1 85.866 4.13401 89 8 89H50V91ZM8 91C3.02944 91 -1 86.9706 -1 82V9C-1 4.02944 3.02944 0 8 0C4.13401 0 1 3.58172 1 8V82C1 85.866 4.13401 89 8 89V91ZM50 0V90V0Z" fill="#FFC268" mask="url(#path-1-inside-1_222_1165)"/>
<path d="M53.5 86.5C55.1569 86.5 56.5 87.8431 56.5 89.5C56.5 91.1569 55.1569 92.5 53.5 92.5C51.8431 92.5 50.5 91.1569 50.5 89.5C50.5 87.8431 51.8431 86.5 53.5 86.5Z" fill="#FFC268" stroke="#FFC268"/>
</svg>
