<svg width="234" height="93" viewBox="0 0 234 93" fill="none" xmlns="http://www.w3.org/2000/svg">
<path d="M230.174 86.5C231.848 86.5 233.2 87.8466 233.2 89.5C233.2 91.1534 231.848 92.5 230.174 92.5C228.499 92.4999 227.148 91.1533 227.148 89.5C227.148 87.8467 228.499 86.5001 230.174 86.5Z" fill="#BA55D3" stroke="#BA55D3"/>
<mask id="path-2-inside-1_222_1134" fill="white">
<path d="M0 8C0 3.58172 3.58172 0 8 0H218.648C223.067 0 226.648 3.58172 226.648 8V90H8C3.58172 90 0 86.4183 0 82V8Z"/>
</mask>
<path d="M0 0H226.648H0ZM226.648 91H8C3.02944 91 -1 86.9706 -1 82H1C1 85.866 4.13401 89 8 89H226.648V91ZM8 91C3.02944 91 -1 86.9706 -1 82V9C-1 4.02944 3.02944 0 8 0C4.13401 0 1 3.58172 1 8V82C1 85.866 4.13401 89 8 89V91ZM226.648 0V90V0Z" fill="#BA55D3" mask="url(#path-2-inside-1_222_1134)"/>
</svg>
