<svg width="275" height="235" viewBox="0 0 275 235" fill="none" xmlns="http://www.w3.org/2000/svg">
<path d="M82.8769 18L77.9375 13.0606C77.3542 12.4773 77.3542 11.5227 77.9375 10.9394L82.8769 6.00002" stroke="#292D32" stroke-width="1.5" stroke-miterlimit="10" stroke-linecap="round" stroke-linejoin="round"/>
<path d="M113.551 14.296H110.059L109.459 16H108.031L111.019 7.648H112.603L115.591 16H114.151L113.551 14.296ZM113.167 13.18L111.811 9.304L110.443 13.18H113.167ZM118.258 10.36C118.49 10.056 118.806 9.8 119.206 9.592C119.606 9.384 120.058 9.28 120.562 9.28C121.138 9.28 121.662 9.424 122.134 9.712C122.614 9.992 122.99 10.388 123.262 10.9C123.534 11.412 123.67 12 123.67 12.664C123.67 13.328 123.534 13.924 123.262 14.452C122.99 14.972 122.614 15.38 122.134 15.676C121.662 15.964 121.138 16.108 120.562 16.108C120.058 16.108 119.61 16.008 119.218 15.808C118.826 15.6 118.506 15.344 118.258 15.04V19.144H116.89V9.388H118.258V10.36ZM122.278 12.664C122.278 12.208 122.182 11.816 121.99 11.488C121.806 11.152 121.558 10.9 121.246 10.732C120.942 10.556 120.614 10.468 120.262 10.468C119.918 10.468 119.59 10.556 119.278 10.732C118.974 10.908 118.726 11.164 118.534 11.5C118.35 11.836 118.258 12.232 118.258 12.688C118.258 13.144 118.35 13.544 118.534 13.888C118.726 14.224 118.974 14.48 119.278 14.656C119.59 14.832 119.918 14.92 120.262 14.92C120.614 14.92 120.942 14.832 121.246 14.656C121.558 14.472 121.806 14.208 121.99 13.864C122.182 13.52 122.278 13.12 122.278 12.664ZM126.391 10.348C126.591 10.012 126.855 9.752 127.183 9.568C127.519 9.376 127.915 9.28 128.371 9.28V10.696H128.023C127.487 10.696 127.079 10.832 126.799 11.104C126.527 11.376 126.391 11.848 126.391 12.52V16H125.023V9.388H126.391V10.348ZM130.325 8.512C130.077 8.512 129.869 8.428 129.701 8.26C129.533 8.092 129.449 7.884 129.449 7.636C129.449 7.388 129.533 7.18 129.701 7.012C129.869 6.844 130.077 6.76 130.325 6.76C130.565 6.76 130.769 6.844 130.937 7.012C131.105 7.18 131.189 7.388 131.189 7.636C131.189 7.884 131.105 8.092 130.937 8.26C130.769 8.428 130.565 8.512 130.325 8.512ZM130.997 9.388V16H129.629V9.388H130.997ZM134.161 7.12V16H132.793V7.12H134.161ZM139.65 14.14C140.418 13.476 141.022 12.932 141.462 12.508C141.91 12.076 142.282 11.628 142.578 11.164C142.874 10.7 143.022 10.236 143.022 9.772C143.022 9.292 142.906 8.916 142.674 8.644C142.45 8.372 142.094 8.236 141.606 8.236C141.134 8.236 140.766 8.388 140.502 8.692C140.246 8.988 140.11 9.388 140.094 9.892H138.774C138.798 8.98 139.07 8.284 139.59 7.804C140.118 7.316 140.786 7.072 141.594 7.072C142.466 7.072 143.146 7.312 143.634 7.792C144.13 8.272 144.378 8.912 144.378 9.712C144.378 10.288 144.23 10.844 143.934 11.38C143.646 11.908 143.298 12.384 142.89 12.808C142.49 13.224 141.978 13.708 141.354 14.26L140.814 14.74H144.618V15.88H138.786V14.884L139.65 14.14ZM145.82 11.512C145.82 10.128 146.052 9.048 146.516 8.272C146.988 7.488 147.796 7.096 148.94 7.096C150.084 7.096 150.888 7.488 151.352 8.272C151.824 9.048 152.06 10.128 152.06 11.512C152.06 12.912 151.824 14.008 151.352 14.8C150.888 15.584 150.084 15.976 148.94 15.976C147.796 15.976 146.988 15.584 146.516 14.8C146.052 14.008 145.82 12.912 145.82 11.512ZM150.716 11.512C150.716 10.864 150.672 10.316 150.584 9.868C150.504 9.42 150.336 9.056 150.08 8.776C149.824 8.488 149.444 8.344 148.94 8.344C148.436 8.344 148.056 8.488 147.8 8.776C147.544 9.056 147.372 9.42 147.284 9.868C147.204 10.316 147.164 10.864 147.164 11.512C147.164 12.184 147.204 12.748 147.284 13.204C147.364 13.66 147.532 14.028 147.788 14.308C148.052 14.588 148.436 14.728 148.94 14.728C149.444 14.728 149.824 14.588 150.08 14.308C150.344 14.028 150.516 13.66 150.596 13.204C150.676 12.748 150.716 12.184 150.716 11.512ZM154.263 14.14C155.031 13.476 155.635 12.932 156.075 12.508C156.523 12.076 156.895 11.628 157.191 11.164C157.487 10.7 157.635 10.236 157.635 9.772C157.635 9.292 157.519 8.916 157.287 8.644C157.063 8.372 156.707 8.236 156.219 8.236C155.747 8.236 155.379 8.388 155.115 8.692C154.859 8.988 154.723 9.388 154.707 9.892H153.387C153.411 8.98 153.683 8.284 154.203 7.804C154.731 7.316 155.399 7.072 156.207 7.072C157.079 7.072 157.759 7.312 158.247 7.792C158.743 8.272 158.991 8.912 158.991 9.712C158.991 10.288 158.843 10.844 158.547 11.38C158.259 11.908 157.911 12.384 157.503 12.808C157.103 13.224 156.591 13.708 155.967 14.26L155.427 14.74H159.231V15.88H153.399V14.884L154.263 14.14ZM166.073 8.428H162.053V10.816C162.221 10.592 162.469 10.404 162.797 10.252C163.133 10.1 163.489 10.024 163.865 10.024C164.537 10.024 165.081 10.168 165.497 10.456C165.921 10.744 166.221 11.108 166.397 11.548C166.581 11.988 166.673 12.452 166.673 12.94C166.673 13.532 166.557 14.06 166.325 14.524C166.101 14.98 165.761 15.34 165.305 15.604C164.857 15.868 164.305 16 163.649 16C162.777 16 162.077 15.784 161.549 15.352C161.021 14.92 160.705 14.348 160.601 13.636H161.933C162.021 14.012 162.217 14.312 162.521 14.536C162.825 14.752 163.205 14.86 163.661 14.86C164.229 14.86 164.653 14.688 164.933 14.344C165.221 14 165.365 13.544 165.365 12.976C165.365 12.4 165.221 11.96 164.933 11.656C164.645 11.344 164.221 11.188 163.661 11.188C163.269 11.188 162.937 11.288 162.665 11.488C162.401 11.68 162.209 11.944 162.089 12.28H160.793V7.228H166.073V8.428Z" fill="#BA55D3"/>
<path d="M192.123 18L197.063 13.0606C197.646 12.4773 197.646 11.5227 197.063 10.9394L192.123 6.00002" stroke="#292D32" stroke-width="1.5" stroke-miterlimit="10" stroke-linecap="round" stroke-linejoin="round"/>
<path d="M24 30H251" stroke="#CED8E5" stroke-linecap="round"/>
<path d="M36.0196 41.855V49.5H34.7656V44.264L32.4336 49.5H31.5646L29.2216 44.264V49.5H27.9676V41.855H29.3206L32.0046 47.85L34.6776 41.855H36.0196ZM40.2968 49.599C39.7248 49.599 39.2078 49.4707 38.7458 49.214C38.2838 48.95 37.9208 48.5833 37.6568 48.114C37.3928 47.6373 37.2608 47.0873 37.2608 46.464C37.2608 45.848 37.3964 45.3017 37.6678 44.825C37.9391 44.3483 38.3094 43.9817 38.7788 43.725C39.2481 43.4683 39.7724 43.34 40.3518 43.34C40.9311 43.34 41.4554 43.4683 41.9248 43.725C42.3941 43.9817 42.7644 44.3483 43.0358 44.825C43.3071 45.3017 43.4428 45.848 43.4428 46.464C43.4428 47.08 43.3034 47.6263 43.0248 48.103C42.7461 48.5797 42.3648 48.95 41.8808 49.214C41.4041 49.4707 40.8761 49.599 40.2968 49.599ZM40.2968 48.51C40.6194 48.51 40.9201 48.433 41.1988 48.279C41.4848 48.125 41.7158 47.894 41.8918 47.586C42.0678 47.278 42.1558 46.904 42.1558 46.464C42.1558 46.024 42.0714 45.6537 41.9028 45.353C41.7341 45.045 41.5104 44.814 41.2318 44.66C40.9531 44.506 40.6524 44.429 40.3298 44.429C40.0071 44.429 39.7064 44.506 39.4278 44.66C39.1564 44.814 38.9401 45.045 38.7788 45.353C38.6174 45.6537 38.5368 46.024 38.5368 46.464C38.5368 47.1167 38.7018 47.6227 39.0318 47.982C39.3691 48.334 39.7908 48.51 40.2968 48.51Z" fill="#BA55D3"/>
<path d="M68.5877 41.855V42.878H66.5527V49.5H65.2987V42.878H63.2527V41.855H68.5877ZM75.3467 43.439V49.5H74.0927V48.785C73.8947 49.0343 73.6344 49.2323 73.3117 49.379C72.9964 49.5183 72.659 49.588 72.2997 49.588C71.823 49.588 71.394 49.489 71.0127 49.291C70.6387 49.093 70.3417 48.7997 70.1217 48.411C69.909 48.0223 69.8027 47.553 69.8027 47.003V43.439H71.0457V46.816C71.0457 47.3587 71.1814 47.7767 71.4527 48.07C71.724 48.356 72.0944 48.499 72.5637 48.499C73.033 48.499 73.4034 48.356 73.6747 48.07C73.9534 47.7767 74.0927 47.3587 74.0927 46.816V43.439H75.3467Z" fill="#BA55D3"/>
<path d="M105.391 41.855L103.125 49.5H101.706L100.1 43.714L98.3948 49.5L96.9868 49.511L94.8198 41.855H96.1508L97.7348 48.081L99.4508 41.855H100.859L102.454 48.048L104.049 41.855H105.391ZM111.98 46.321C111.98 46.5483 111.965 46.7537 111.936 46.937H107.305C107.342 47.421 107.521 47.8097 107.844 48.103C108.167 48.3963 108.563 48.543 109.032 48.543C109.707 48.543 110.183 48.2607 110.462 47.696H111.815C111.632 48.2533 111.298 48.7117 110.814 49.071C110.337 49.423 109.743 49.599 109.032 49.599C108.453 49.599 107.932 49.4707 107.47 49.214C107.015 48.95 106.656 48.5833 106.392 48.114C106.135 47.6373 106.007 47.0873 106.007 46.464C106.007 45.8407 106.132 45.2943 106.381 44.825C106.638 44.3483 106.993 43.9817 107.448 43.725C107.91 43.4683 108.438 43.34 109.032 43.34C109.604 43.34 110.114 43.4647 110.561 43.714C111.008 43.9633 111.357 44.3153 111.606 44.77C111.855 45.2173 111.98 45.7343 111.98 46.321ZM110.671 45.925C110.664 45.463 110.499 45.0927 110.176 44.814C109.853 44.5353 109.454 44.396 108.977 44.396C108.544 44.396 108.174 44.5353 107.866 44.814C107.558 45.0853 107.375 45.4557 107.316 45.925H110.671Z" fill="#BA55D3"/>
<path d="M136.588 41.855V42.878H134.553V49.5H133.299V42.878H131.253V41.855H136.588ZM140.993 43.34C141.455 43.34 141.865 43.439 142.225 43.637C142.591 43.835 142.877 44.1283 143.083 44.517C143.295 44.9057 143.402 45.375 143.402 45.925V49.5H142.159V46.112C142.159 45.5693 142.023 45.155 141.752 44.869C141.48 44.5757 141.11 44.429 140.641 44.429C140.171 44.429 139.797 44.5757 139.519 44.869C139.247 45.155 139.112 45.5693 139.112 46.112V49.5H137.858V41.36H139.112V44.143C139.324 43.8863 139.592 43.6883 139.915 43.549C140.245 43.4097 140.604 43.34 140.993 43.34Z" fill="#BA55D3"/>
<path d="M171.883 41.855V42.878H168.638V45.133H171.168V46.156H168.638V49.5H167.384V41.855H171.883ZM174.299 44.319C174.482 44.011 174.724 43.7727 175.025 43.604C175.333 43.428 175.696 43.34 176.114 43.34V44.638H175.795C175.303 44.638 174.929 44.7627 174.673 45.012C174.423 45.2613 174.299 45.694 174.299 46.31V49.5H173.045V43.439H174.299V44.319Z" fill="#BA55D3"/>
<path d="M201.797 49.577C201.284 49.577 200.822 49.489 200.411 49.313C200 49.1297 199.678 48.873 199.443 48.543C199.208 48.213 199.091 47.828 199.091 47.388H200.433C200.462 47.718 200.591 47.9893 200.818 48.202C201.053 48.4147 201.379 48.521 201.797 48.521C202.23 48.521 202.567 48.4183 202.809 48.213C203.051 48.0003 203.172 47.729 203.172 47.399C203.172 47.1423 203.095 46.9333 202.941 46.772C202.794 46.6107 202.607 46.486 202.38 46.398C202.16 46.31 201.852 46.2147 201.456 46.112C200.957 45.98 200.55 45.848 200.235 45.716C199.927 45.5767 199.663 45.364 199.443 45.078C199.223 44.792 199.113 44.4107 199.113 43.934C199.113 43.494 199.223 43.109 199.443 42.779C199.663 42.449 199.971 42.196 200.367 42.02C200.763 41.844 201.221 41.756 201.742 41.756C202.483 41.756 203.088 41.943 203.557 42.317C204.034 42.6837 204.298 43.1897 204.349 43.835H202.963C202.941 43.5563 202.809 43.318 202.567 43.12C202.325 42.922 202.006 42.823 201.61 42.823C201.251 42.823 200.957 42.9147 200.73 43.098C200.503 43.2813 200.389 43.5453 200.389 43.89C200.389 44.1247 200.459 44.319 200.598 44.473C200.745 44.6197 200.928 44.737 201.148 44.825C201.368 44.913 201.669 45.0083 202.05 45.111C202.556 45.2503 202.967 45.3897 203.282 45.529C203.605 45.6683 203.876 45.8847 204.096 46.178C204.323 46.464 204.437 46.849 204.437 47.333C204.437 47.7217 204.331 48.0883 204.118 48.433C203.913 48.7777 203.608 49.0563 203.205 49.269C202.809 49.4743 202.34 49.577 201.797 49.577ZM205.499 46.442C205.499 45.8333 205.623 45.2943 205.873 44.825C206.129 44.3557 206.474 43.9927 206.907 43.736C207.347 43.472 207.831 43.34 208.359 43.34C208.835 43.34 209.25 43.4353 209.602 43.626C209.961 43.8093 210.247 44.0403 210.46 44.319V43.439H211.725V49.5H210.46V48.598C210.247 48.884 209.957 49.1223 209.591 49.313C209.224 49.5037 208.806 49.599 208.337 49.599C207.816 49.599 207.339 49.467 206.907 49.203C206.474 48.9317 206.129 48.5577 205.873 48.081C205.623 47.597 205.499 47.0507 205.499 46.442ZM210.46 46.464C210.46 46.046 210.372 45.683 210.196 45.375C210.027 45.067 209.803 44.8323 209.525 44.671C209.246 44.5097 208.945 44.429 208.623 44.429C208.3 44.429 207.999 44.5097 207.721 44.671C207.442 44.825 207.215 45.056 207.039 45.364C206.87 45.6647 206.786 46.024 206.786 46.442C206.786 46.86 206.87 47.2267 207.039 47.542C207.215 47.8573 207.442 48.0993 207.721 48.268C208.007 48.4293 208.307 48.51 208.623 48.51C208.945 48.51 209.246 48.4293 209.525 48.268C209.803 48.1067 210.027 47.872 210.196 47.564C210.372 47.2487 210.46 46.882 210.46 46.464Z" fill="#BA55D3"/>
<path d="M235.953 49.577C235.44 49.577 234.978 49.489 234.567 49.313C234.156 49.1297 233.834 48.873 233.599 48.543C233.364 48.213 233.247 47.828 233.247 47.388H234.589C234.618 47.718 234.747 47.9893 234.974 48.202C235.209 48.4147 235.535 48.521 235.953 48.521C236.386 48.521 236.723 48.4183 236.965 48.213C237.207 48.0003 237.328 47.729 237.328 47.399C237.328 47.1423 237.251 46.9333 237.097 46.772C236.95 46.6107 236.763 46.486 236.536 46.398C236.316 46.31 236.008 46.2147 235.612 46.112C235.113 45.98 234.706 45.848 234.391 45.716C234.083 45.5767 233.819 45.364 233.599 45.078C233.379 44.792 233.269 44.4107 233.269 43.934C233.269 43.494 233.379 43.109 233.599 42.779C233.819 42.449 234.127 42.196 234.523 42.02C234.919 41.844 235.377 41.756 235.898 41.756C236.639 41.756 237.244 41.943 237.713 42.317C238.19 42.6837 238.454 43.1897 238.505 43.835H237.119C237.097 43.5563 236.965 43.318 236.723 43.12C236.481 42.922 236.162 42.823 235.766 42.823C235.407 42.823 235.113 42.9147 234.886 43.098C234.659 43.2813 234.545 43.5453 234.545 43.89C234.545 44.1247 234.615 44.319 234.754 44.473C234.901 44.6197 235.084 44.737 235.304 44.825C235.524 44.913 235.825 45.0083 236.206 45.111C236.712 45.2503 237.123 45.3897 237.438 45.529C237.761 45.6683 238.032 45.8847 238.252 46.178C238.479 46.464 238.593 46.849 238.593 47.333C238.593 47.7217 238.487 48.0883 238.274 48.433C238.069 48.7777 237.764 49.0563 237.361 49.269C236.965 49.4743 236.496 49.577 235.953 49.577ZM245.562 43.439V49.5H244.308V48.785C244.11 49.0343 243.849 49.2323 243.527 49.379C243.211 49.5183 242.874 49.588 242.515 49.588C242.038 49.588 241.609 49.489 241.228 49.291C240.854 49.093 240.557 48.7997 240.337 48.411C240.124 48.0223 240.018 47.553 240.018 47.003V43.439H241.261V46.816C241.261 47.3587 241.396 47.7767 241.668 48.07C241.939 48.356 242.309 48.499 242.779 48.499C243.248 48.499 243.618 48.356 243.89 48.07C244.168 47.7767 244.308 47.3587 244.308 46.816V43.439H245.562Z" fill="#BA55D3"/>
<g clip-path="url(#clip0_58_301)">
<path d="M31.1595 73.3823C31.2108 72.7077 31.4712 72.1797 31.9405 71.7983C32.4098 71.417 33.0185 71.2263 33.7665 71.2263C34.2652 71.2263 34.6942 71.318 35.0535 71.5013C35.4202 71.6773 35.6952 71.9193 35.8785 72.2273C36.0692 72.5353 36.1645 72.8837 36.1645 73.2723C36.1645 73.727 36.0325 74.1193 35.7685 74.4493C35.5118 74.7793 35.1745 74.992 34.7565 75.0873V75.1423C35.2332 75.2597 35.6108 75.4907 35.8895 75.8353C36.1682 76.18 36.3075 76.631 36.3075 77.1883C36.3075 77.6063 36.2122 77.984 36.0215 78.3213C35.8308 78.6513 35.5448 78.9117 35.1635 79.1023C34.7822 79.293 34.3238 79.3883 33.7885 79.3883C33.0112 79.3883 32.3732 79.1867 31.8745 78.7833C31.3758 78.3727 31.0972 77.7933 31.0385 77.0453H32.0065C32.0578 77.4853 32.2375 77.8447 32.5455 78.1233C32.8535 78.402 33.2642 78.5413 33.7775 78.5413C34.2908 78.5413 34.6795 78.4093 34.9435 78.1453C35.2148 77.874 35.3505 77.5257 35.3505 77.1003C35.3505 76.5503 35.1672 76.1543 34.8005 75.9123C34.4338 75.6703 33.8802 75.5493 33.1395 75.5493H32.8865V74.7133H33.1505C33.8252 74.706 34.3348 74.596 34.6795 74.3833C35.0242 74.1633 35.1965 73.826 35.1965 73.3713C35.1965 72.9827 35.0682 72.671 34.8115 72.4363C34.5622 72.2017 34.2028 72.0843 33.7335 72.0843C33.2788 72.0843 32.9122 72.2017 32.6335 72.4363C32.3548 72.671 32.1898 72.9863 32.1385 73.3823H31.1595ZM37.3951 72.2933V71.3803H39.4631V79.3333H38.4511V72.2933H37.3951Z" fill="#BEC6CF"/>
<path d="M68.1563 72.2933V71.3803H70.2243V79.3333H69.2123V72.2933H68.1563Z" fill="#757575"/>
<path d="M100.897 78.5303C101.829 77.7823 102.558 77.17 103.086 76.6933C103.614 76.2093 104.058 75.707 104.417 75.1863C104.784 74.6583 104.967 74.1413 104.967 73.6353C104.967 73.1587 104.85 72.7847 104.615 72.5133C104.388 72.2347 104.018 72.0953 103.504 72.0953C103.006 72.0953 102.617 72.253 102.338 72.5683C102.067 72.8763 101.92 73.2907 101.898 73.8113H100.93C100.96 72.99 101.209 72.3557 101.678 71.9083C102.148 71.461 102.753 71.2373 103.493 71.2373C104.249 71.2373 104.846 71.4463 105.286 71.8643C105.734 72.2823 105.957 72.858 105.957 73.5913C105.957 74.2 105.774 74.794 105.407 75.3733C105.048 75.9453 104.637 76.4513 104.175 76.8913C103.713 77.324 103.123 77.83 102.404 78.4093H106.188V79.2453H100.897V78.5303Z" fill="#757575"/>
<path d="M134.921 73.3823C134.973 72.7077 135.233 72.1797 135.702 71.7983C136.172 71.417 136.78 71.2263 137.528 71.2263C138.027 71.2263 138.456 71.318 138.815 71.5013C139.182 71.6773 139.457 71.9193 139.64 72.2273C139.831 72.5353 139.926 72.8837 139.926 73.2723C139.926 73.727 139.794 74.1193 139.53 74.4493C139.274 74.7793 138.936 74.992 138.518 75.0873V75.1423C138.995 75.2597 139.373 75.4907 139.651 75.8353C139.93 76.18 140.069 76.631 140.069 77.1883C140.069 77.6063 139.974 77.984 139.783 78.3213C139.593 78.6513 139.307 78.9117 138.925 79.1023C138.544 79.293 138.086 79.3883 137.55 79.3883C136.773 79.3883 136.135 79.1867 135.636 78.7833C135.138 78.3727 134.859 77.7933 134.8 77.0453H135.768C135.82 77.4853 135.999 77.8447 136.307 78.1233C136.615 78.402 137.026 78.5413 137.539 78.5413C138.053 78.5413 138.441 78.4093 138.705 78.1453C138.977 77.874 139.112 77.5257 139.112 77.1003C139.112 76.5503 138.929 76.1543 138.562 75.9123C138.196 75.6703 137.642 75.5493 136.901 75.5493H136.648V74.7133H136.912C137.587 74.706 138.097 74.596 138.441 74.3833C138.786 74.1633 138.958 73.826 138.958 73.3713C138.958 72.9827 138.83 72.671 138.573 72.4363C138.324 72.2017 137.965 72.0843 137.495 72.0843C137.041 72.0843 136.674 72.2017 136.395 72.4363C136.117 72.671 135.952 72.9863 135.9 73.3823H134.921Z" fill="#757575"/>
<path d="M168.481 77.5623V76.8033L172.342 71.4573H173.541V76.6933H174.641V77.5623H173.541V79.3333H172.551V77.5623H168.481ZM172.595 72.5023L169.636 76.6933H172.595V72.5023Z" fill="#757575"/>
<path d="M207.799 72.2493H203.938V74.7573C204.107 74.5227 204.356 74.332 204.686 74.1853C205.016 74.0313 205.372 73.9543 205.753 73.9543C206.362 73.9543 206.857 74.0827 207.238 74.3393C207.62 74.5887 207.891 74.915 208.052 75.3183C208.221 75.7143 208.305 76.136 208.305 76.5833C208.305 77.1113 208.206 77.5843 208.008 78.0023C207.81 78.4203 207.506 78.7503 207.095 78.9923C206.692 79.2343 206.19 79.3553 205.588 79.3553C204.818 79.3553 204.195 79.1573 203.718 78.7613C203.242 78.3653 202.952 77.8373 202.849 77.1773H203.828C203.924 77.5953 204.125 77.9217 204.433 78.1563C204.741 78.391 205.13 78.5083 205.599 78.5083C206.179 78.5083 206.615 78.336 206.908 77.9913C207.202 77.6393 207.348 77.1773 207.348 76.6053C207.348 76.0333 207.202 75.5933 206.908 75.2853C206.615 74.97 206.182 74.8123 205.61 74.8123C205.222 74.8123 204.881 74.9077 204.587 75.0983C204.301 75.2817 204.092 75.5347 203.96 75.8573H203.014V71.3693H207.799V72.2493Z" fill="#BA55D3"/>
<path d="M241.124 73.2723C240.962 72.4583 240.46 72.0513 239.617 72.0513C238.964 72.0513 238.476 72.3043 238.154 72.8103C237.831 73.309 237.673 74.134 237.681 75.2853C237.849 74.904 238.128 74.607 238.517 74.3943C238.913 74.1743 239.353 74.0643 239.837 74.0643C240.592 74.0643 241.193 74.299 241.641 74.7683C242.095 75.2377 242.323 75.8867 242.323 76.7153C242.323 77.214 242.224 77.6613 242.026 78.0573C241.835 78.4533 241.542 78.7687 241.146 79.0033C240.757 79.238 240.284 79.3553 239.727 79.3553C238.971 79.3553 238.381 79.1867 237.956 78.8493C237.53 78.512 237.233 78.0463 237.065 77.4523C236.896 76.8583 236.812 76.125 236.812 75.2523C236.812 72.561 237.75 71.2153 239.628 71.2153C240.346 71.2153 240.911 71.4097 241.322 71.7983C241.732 72.187 241.974 72.6783 242.048 73.2723H241.124ZM239.628 74.9113C239.312 74.9113 239.015 74.9773 238.737 75.1093C238.458 75.234 238.231 75.4283 238.055 75.6923C237.886 75.949 237.802 76.2643 237.802 76.6383C237.802 77.1957 237.963 77.6503 238.286 78.0023C238.608 78.347 239.07 78.5193 239.672 78.5193C240.185 78.5193 240.592 78.3617 240.893 78.0463C241.201 77.7237 241.355 77.291 241.355 76.7483C241.355 76.1763 241.208 75.729 240.915 75.4063C240.621 75.0763 240.192 74.9113 239.628 74.9113Z" fill="#BA55D3"/>
</g>
<g clip-path="url(#clip1_58_301)">
<path d="M38.0746 101.995L35.0166 109.167H34.0046L37.1066 102.094H32.8606V101.236H38.0746V101.995Z" fill="#757575"/>
<path d="M68.1643 105.031C67.7536 104.869 67.4383 104.635 67.2183 104.327C66.9983 104.019 66.8883 103.645 66.8883 103.205C66.8883 102.809 66.9873 102.453 67.1853 102.138C67.3833 101.815 67.6766 101.562 68.0653 101.379C68.4613 101.188 68.9379 101.093 69.4953 101.093C70.0526 101.093 70.5256 101.188 70.9143 101.379C71.3103 101.562 71.6073 101.815 71.8053 102.138C72.0106 102.453 72.1133 102.809 72.1133 103.205C72.1133 103.63 71.9996 104.004 71.7723 104.327C71.5449 104.642 71.2333 104.877 70.8373 105.031C71.2919 105.17 71.6513 105.416 71.9153 105.768C72.1866 106.112 72.3223 106.53 72.3223 107.022C72.3223 107.498 72.2049 107.916 71.9703 108.276C71.7356 108.628 71.4019 108.903 70.9693 109.101C70.5439 109.291 70.0526 109.387 69.4953 109.387C68.9379 109.387 68.4466 109.291 68.0213 109.101C67.6033 108.903 67.2769 108.628 67.0423 108.276C66.8076 107.916 66.6903 107.498 66.6903 107.022C66.6903 106.53 66.8223 106.109 67.0863 105.757C67.3503 105.405 67.7096 105.163 68.1643 105.031ZM71.1453 103.326C71.1453 102.878 70.9986 102.534 70.7053 102.292C70.4119 102.05 70.0086 101.929 69.4953 101.929C68.9893 101.929 68.5896 102.05 68.2963 102.292C68.0029 102.534 67.8563 102.882 67.8563 103.337C67.8563 103.747 68.0066 104.077 68.3073 104.327C68.6153 104.576 69.0113 104.701 69.4953 104.701C69.9866 104.701 70.3826 104.576 70.6833 104.327C70.9913 104.07 71.1453 103.736 71.1453 103.326ZM69.4953 105.471C68.9526 105.471 68.5089 105.599 68.1643 105.856C67.8196 106.105 67.6473 106.483 67.6473 106.989C67.6473 107.458 67.8123 107.836 68.1423 108.122C68.4796 108.408 68.9306 108.551 69.4953 108.551C70.0599 108.551 70.5073 108.408 70.8373 108.122C71.1673 107.836 71.3323 107.458 71.3323 106.989C71.3323 106.497 71.1636 106.123 70.8263 105.867C70.4889 105.603 70.0453 105.471 69.4953 105.471Z" fill="#737A83"/>
<path d="M102.005 107.033C102.078 107.451 102.247 107.773 102.511 108.001C102.782 108.228 103.145 108.342 103.6 108.342C104.208 108.342 104.656 108.103 104.942 107.627C105.235 107.15 105.374 106.347 105.36 105.218C105.206 105.548 104.949 105.808 104.59 105.999C104.23 106.182 103.831 106.274 103.391 106.274C102.899 106.274 102.459 106.175 102.071 105.977C101.689 105.771 101.389 105.474 101.169 105.086C100.949 104.697 100.839 104.228 100.839 103.678C100.839 102.893 101.066 102.262 101.521 101.786C101.975 101.302 102.621 101.06 103.457 101.06C104.483 101.06 105.202 101.393 105.613 102.061C106.031 102.728 106.24 103.722 106.24 105.042C106.24 105.966 106.155 106.728 105.987 107.33C105.825 107.931 105.547 108.389 105.151 108.705C104.762 109.02 104.227 109.178 103.545 109.178C102.797 109.178 102.214 108.976 101.796 108.573C101.378 108.169 101.139 107.656 101.081 107.033H102.005ZM103.556 105.427C104.047 105.427 104.45 105.276 104.766 104.976C105.081 104.668 105.239 104.253 105.239 103.733C105.239 103.183 105.085 102.739 104.777 102.402C104.469 102.064 104.036 101.896 103.479 101.896C102.965 101.896 102.555 102.057 102.247 102.38C101.946 102.702 101.796 103.128 101.796 103.656C101.796 104.191 101.946 104.62 102.247 104.943C102.547 105.265 102.984 105.427 103.556 105.427Z" fill="#737A83"/>
<path d="M132.703 102.127V101.214H134.771V109.167H133.759V102.127H132.703ZM136.49 105.108C136.49 103.846 136.695 102.864 137.106 102.16C137.517 101.448 138.235 101.093 139.262 101.093C140.281 101.093 140.996 101.448 141.407 102.16C141.818 102.864 142.023 103.846 142.023 105.108C142.023 106.391 141.818 107.388 141.407 108.1C140.996 108.811 140.281 109.167 139.262 109.167C138.235 109.167 137.517 108.811 137.106 108.1C136.695 107.388 136.49 106.391 136.49 105.108ZM141.033 105.108C141.033 104.47 140.989 103.931 140.901 103.491C140.82 103.043 140.648 102.684 140.384 102.413C140.127 102.141 139.753 102.006 139.262 102.006C138.763 102.006 138.382 102.141 138.118 102.413C137.861 102.684 137.689 103.043 137.601 103.491C137.52 103.931 137.48 104.47 137.48 105.108C137.48 105.768 137.52 106.321 137.601 106.769C137.689 107.216 137.861 107.575 138.118 107.847C138.382 108.118 138.763 108.254 139.262 108.254C139.753 108.254 140.127 108.118 140.384 107.847C140.648 107.575 140.82 107.216 140.901 106.769C140.989 106.321 141.033 105.768 141.033 105.108Z" fill="#737A83"/>
<path d="M168.395 102.127V101.214H170.463V109.167H169.451V102.127H168.395ZM171.918 102.127V101.214H173.986V109.167H172.974V102.127H171.918Z" fill="#757575"/>
<path d="M200.993 102.127V101.214H203.061V109.167H202.049V102.127H200.993ZM204.659 108.364C205.59 107.616 206.32 107.003 206.848 106.527C207.376 106.043 207.82 105.54 208.179 105.02C208.546 104.492 208.729 103.975 208.729 103.469C208.729 102.992 208.612 102.618 208.377 102.347C208.15 102.068 207.779 101.929 207.266 101.929C206.767 101.929 206.379 102.086 206.1 102.402C205.829 102.71 205.682 103.124 205.66 103.645H204.692C204.721 102.823 204.971 102.189 205.44 101.742C205.909 101.294 206.514 101.071 207.255 101.071C208.01 101.071 208.608 101.28 209.048 101.698C209.495 102.116 209.719 102.691 209.719 103.425C209.719 104.033 209.536 104.627 209.169 105.207C208.81 105.779 208.399 106.285 207.937 106.725C207.475 107.157 206.885 107.663 206.166 108.243H209.95V109.079H204.659V108.364Z" fill="#BA55D3"/>
<path d="M234.918 102.127V101.214H236.986V109.167H235.974V102.127H234.918ZM238.683 103.216C238.734 102.541 238.995 102.013 239.464 101.632C239.933 101.25 240.542 101.06 241.29 101.06C241.789 101.06 242.218 101.151 242.577 101.335C242.944 101.511 243.219 101.753 243.402 102.061C243.593 102.369 243.688 102.717 243.688 103.106C243.688 103.56 243.556 103.953 243.292 104.283C243.035 104.613 242.698 104.825 242.28 104.921V104.976C242.757 105.093 243.134 105.324 243.413 105.669C243.692 106.013 243.831 106.464 243.831 107.022C243.831 107.44 243.736 107.817 243.545 108.155C243.354 108.485 243.068 108.745 242.687 108.936C242.306 109.126 241.847 109.222 241.312 109.222C240.535 109.222 239.897 109.02 239.398 108.617C238.899 108.206 238.621 107.627 238.562 106.879H239.53C239.581 107.319 239.761 107.678 240.069 107.957C240.377 108.235 240.788 108.375 241.301 108.375C241.814 108.375 242.203 108.243 242.467 107.979C242.738 107.707 242.874 107.359 242.874 106.934C242.874 106.384 242.691 105.988 242.324 105.746C241.957 105.504 241.404 105.383 240.663 105.383H240.41V104.547H240.674C241.349 104.539 241.858 104.429 242.203 104.217C242.548 103.997 242.72 103.659 242.72 103.205C242.72 102.816 242.592 102.504 242.335 102.27C242.086 102.035 241.726 101.918 241.257 101.918C240.802 101.918 240.436 102.035 240.157 102.27C239.878 102.504 239.713 102.82 239.662 103.216H238.683Z" fill="#BA55D3"/>
</g>
<g clip-path="url(#clip2_58_301)">
<path d="M30.6973 131.96V131.047H32.7653V139H31.7533V131.96H30.6973ZM34.2427 137.229V136.47L38.1037 131.124H39.3027V136.36H40.4027V137.229H39.3027V139H38.3127V137.229H34.2427ZM38.3567 132.169L35.3977 136.36H38.3567V132.169Z" fill="#737A83"/>
<path d="M64.7027 131.96V131.047H66.7707V139H65.7587V131.96H64.7027ZM73.5611 131.916H69.7001V134.424C69.8688 134.189 70.1181 133.999 70.4481 133.852C70.7781 133.698 71.1338 133.621 71.5151 133.621C72.1238 133.621 72.6188 133.749 73.0001 134.006C73.3814 134.255 73.6528 134.582 73.8141 134.985C73.9828 135.381 74.0671 135.803 74.0671 136.25C74.0671 136.778 73.9681 137.251 73.7701 137.669C73.5721 138.087 73.2678 138.417 72.8571 138.659C72.4538 138.901 71.9514 139.022 71.3501 139.022C70.5801 139.022 69.9568 138.824 69.4801 138.428C69.0034 138.032 68.7138 137.504 68.6111 136.844H69.5901C69.6854 137.262 69.8871 137.588 70.1951 137.823C70.5031 138.058 70.8918 138.175 71.3611 138.175C71.9404 138.175 72.3768 138.003 72.6701 137.658C72.9634 137.306 73.1101 136.844 73.1101 136.272C73.1101 135.7 72.9634 135.26 72.6701 134.952C72.3768 134.637 71.9441 134.479 71.3721 134.479C70.9834 134.479 70.6424 134.574 70.3491 134.765C70.0631 134.948 69.8541 135.201 69.7221 135.524H68.7761V131.036H73.5611V131.916Z" fill="#737A83"/>
<path d="M98.6651 131.96V131.047H100.733V139H99.7211V131.96H98.6651ZM106.886 132.939C106.724 132.125 106.222 131.718 105.379 131.718C104.726 131.718 104.238 131.971 103.916 132.477C103.593 132.976 103.435 133.801 103.443 134.952C103.611 134.571 103.89 134.274 104.279 134.061C104.675 133.841 105.115 133.731 105.599 133.731C106.354 133.731 106.955 133.966 107.403 134.435C107.857 134.904 108.085 135.553 108.085 136.382C108.085 136.881 107.986 137.328 107.788 137.724C107.597 138.12 107.304 138.435 106.908 138.67C106.519 138.905 106.046 139.022 105.489 139.022C104.733 139.022 104.143 138.853 103.718 138.516C103.292 138.179 102.995 137.713 102.827 137.119C102.658 136.525 102.574 135.792 102.574 134.919C102.574 132.228 103.512 130.882 105.39 130.882C106.108 130.882 106.673 131.076 107.084 131.465C107.494 131.854 107.736 132.345 107.81 132.939H106.886ZM105.39 134.578C105.074 134.578 104.777 134.644 104.499 134.776C104.22 134.901 103.993 135.095 103.817 135.359C103.648 135.616 103.564 135.931 103.564 136.305C103.564 136.862 103.725 137.317 104.048 137.669C104.37 138.014 104.832 138.186 105.434 138.186C105.947 138.186 106.354 138.028 106.655 137.713C106.963 137.39 107.117 136.958 107.117 136.415C107.117 135.843 106.97 135.396 106.677 135.073C106.383 134.743 105.954 134.578 105.39 134.578Z" fill="#737A83"/>
<path d="M133.154 131.96V131.047H135.222V139H134.21V131.96H133.154ZM141.836 131.828L138.778 139H137.766L140.868 131.927H136.622V131.069H141.836V131.828Z" fill="#737A83"/>
<path d="M166.687 131.96V131.047H168.755V139H167.743V131.96H166.687ZM171.926 134.864C171.515 134.703 171.2 134.468 170.98 134.16C170.76 133.852 170.65 133.478 170.65 133.038C170.65 132.642 170.749 132.286 170.947 131.971C171.145 131.648 171.438 131.395 171.827 131.212C172.223 131.021 172.7 130.926 173.257 130.926C173.814 130.926 174.287 131.021 174.676 131.212C175.072 131.395 175.369 131.648 175.567 131.971C175.772 132.286 175.875 132.642 175.875 133.038C175.875 133.463 175.761 133.837 175.534 134.16C175.307 134.475 174.995 134.71 174.599 134.864C175.054 135.003 175.413 135.249 175.677 135.601C175.948 135.946 176.084 136.364 176.084 136.855C176.084 137.332 175.967 137.75 175.732 138.109C175.497 138.461 175.164 138.736 174.731 138.934C174.306 139.125 173.814 139.22 173.257 139.22C172.7 139.22 172.208 139.125 171.783 138.934C171.365 138.736 171.039 138.461 170.804 138.109C170.569 137.75 170.452 137.332 170.452 136.855C170.452 136.364 170.584 135.942 170.848 135.59C171.112 135.238 171.471 134.996 171.926 134.864ZM174.907 133.159C174.907 132.712 174.76 132.367 174.467 132.125C174.174 131.883 173.77 131.762 173.257 131.762C172.751 131.762 172.351 131.883 172.058 132.125C171.765 132.367 171.618 132.715 171.618 133.17C171.618 133.581 171.768 133.911 172.069 134.16C172.377 134.409 172.773 134.534 173.257 134.534C173.748 134.534 174.144 134.409 174.445 134.16C174.753 133.903 174.907 133.57 174.907 133.159ZM173.257 135.304C172.714 135.304 172.271 135.432 171.926 135.689C171.581 135.938 171.409 136.316 171.409 136.822C171.409 137.291 171.574 137.669 171.904 137.955C172.241 138.241 172.692 138.384 173.257 138.384C173.822 138.384 174.269 138.241 174.599 137.955C174.929 137.669 175.094 137.291 175.094 136.822C175.094 136.331 174.925 135.957 174.588 135.7C174.251 135.436 173.807 135.304 173.257 135.304Z" fill="#757575"/>
<path d="M200.692 131.96V131.047H202.76V139H201.748V131.96H200.692ZM205.766 136.866C205.84 137.284 206.008 137.607 206.272 137.834C206.544 138.061 206.907 138.175 207.361 138.175C207.97 138.175 208.417 137.937 208.703 137.46C208.997 136.983 209.136 136.18 209.121 135.051C208.967 135.381 208.711 135.641 208.351 135.832C207.992 136.015 207.592 136.107 207.152 136.107C206.661 136.107 206.221 136.008 205.832 135.81C205.451 135.605 205.15 135.308 204.93 134.919C204.71 134.53 204.6 134.061 204.6 133.511C204.6 132.726 204.828 132.096 205.282 131.619C205.737 131.135 206.382 130.893 207.218 130.893C208.245 130.893 208.964 131.227 209.374 131.894C209.792 132.561 210.001 133.555 210.001 134.875C210.001 135.799 209.917 136.562 209.748 137.163C209.587 137.764 209.308 138.223 208.912 138.538C208.524 138.853 207.988 139.011 207.306 139.011C206.558 139.011 205.975 138.809 205.557 138.406C205.139 138.003 204.901 137.489 204.842 136.866H205.766ZM207.317 135.26C207.809 135.26 208.212 135.11 208.527 134.809C208.843 134.501 209 134.087 209 133.566C209 133.016 208.846 132.572 208.538 132.235C208.23 131.898 207.798 131.729 207.24 131.729C206.727 131.729 206.316 131.89 206.008 132.213C205.708 132.536 205.557 132.961 205.557 133.489C205.557 134.024 205.708 134.453 206.008 134.776C206.309 135.099 206.745 135.26 207.317 135.26Z" fill="#BA55D3"/>
<path d="M233.444 138.197C234.375 137.449 235.105 136.837 235.633 136.36C236.161 135.876 236.604 135.374 236.964 134.853C237.33 134.325 237.514 133.808 237.514 133.302C237.514 132.825 237.396 132.451 237.162 132.18C236.934 131.901 236.564 131.762 236.051 131.762C235.552 131.762 235.163 131.92 234.885 132.235C234.613 132.543 234.467 132.957 234.445 133.478H233.477C233.506 132.657 233.755 132.022 234.225 131.575C234.694 131.128 235.299 130.904 236.04 130.904C236.795 130.904 237.393 131.113 237.833 131.531C238.28 131.949 238.504 132.525 238.504 133.258C238.504 133.867 238.32 134.461 237.954 135.04C237.594 135.612 237.184 136.118 236.722 136.558C236.26 136.991 235.669 137.497 234.951 138.076H238.735V138.912H233.444V138.197ZM239.892 134.941C239.892 133.68 240.097 132.697 240.508 131.993C240.919 131.282 241.637 130.926 242.664 130.926C243.683 130.926 244.398 131.282 244.809 131.993C245.22 132.697 245.425 133.68 245.425 134.941C245.425 136.224 245.22 137.222 244.809 137.933C244.398 138.644 243.683 139 242.664 139C241.637 139 240.919 138.644 240.508 137.933C240.097 137.222 239.892 136.224 239.892 134.941ZM244.435 134.941C244.435 134.303 244.391 133.764 244.303 133.324C244.222 132.877 244.05 132.517 243.786 132.246C243.529 131.975 243.155 131.839 242.664 131.839C242.165 131.839 241.784 131.975 241.52 132.246C241.263 132.517 241.091 132.877 241.003 133.324C240.922 133.764 240.882 134.303 240.882 134.941C240.882 135.601 240.922 136.155 241.003 136.602C241.091 137.049 241.263 137.409 241.52 137.68C241.784 137.951 242.165 138.087 242.664 138.087C243.155 138.087 243.529 137.951 243.786 137.68C244.05 137.409 244.222 137.049 244.303 136.602C244.391 136.155 244.435 135.601 244.435 134.941Z" fill="#BA55D3"/>
</g>
<g clip-path="url(#clip3_58_301)">
<path d="M31.1357 168.03C32.067 167.282 32.7967 166.67 33.3247 166.193C33.8527 165.709 34.2964 165.207 34.6557 164.686C35.0224 164.158 35.2057 163.641 35.2057 163.135C35.2057 162.659 35.0884 162.285 34.8537 162.013C34.6264 161.735 34.256 161.595 33.7427 161.595C33.244 161.595 32.8554 161.753 32.5767 162.068C32.3054 162.376 32.1587 162.791 32.1367 163.311H31.1687C31.198 162.49 31.4474 161.856 31.9167 161.408C32.386 160.961 32.991 160.737 33.7317 160.737C34.487 160.737 35.0847 160.946 35.5247 161.364C35.972 161.782 36.1957 162.358 36.1957 163.091C36.1957 163.7 36.0124 164.294 35.6457 164.873C35.2864 165.445 34.8757 165.951 34.4137 166.391C33.9517 166.824 33.3614 167.33 32.6427 167.909H36.4267V168.745H31.1357V168.03ZM37.3199 161.793V160.88H39.3879V168.833H38.3759V161.793H37.3199Z" fill="#737A83"/>
<path d="M63.7339 168.03C64.6652 167.282 65.3949 166.67 65.9229 166.193C66.4509 165.709 66.8945 165.207 67.2539 164.686C67.6205 164.158 67.8039 163.641 67.8039 163.135C67.8039 162.659 67.6865 162.285 67.4519 162.013C67.2245 161.735 66.8542 161.595 66.3409 161.595C65.8422 161.595 65.4535 161.753 65.1749 162.068C64.9035 162.376 64.7569 162.791 64.7349 163.311H63.7669C63.7962 162.49 64.0455 161.856 64.5149 161.408C64.9842 160.961 65.5892 160.737 66.3299 160.737C67.0852 160.737 67.6829 160.946 68.1229 161.364C68.5702 161.782 68.7939 162.358 68.7939 163.091C68.7939 163.7 68.6105 164.294 68.2439 164.873C67.8845 165.445 67.4739 165.951 67.0119 166.391C66.5499 166.824 65.9595 167.33 65.2409 167.909H69.0249V168.745H63.7339V168.03ZM70.061 168.03C70.9923 167.282 71.722 166.67 72.25 166.193C72.778 165.709 73.2217 165.207 73.581 164.686C73.9477 164.158 74.131 163.641 74.131 163.135C74.131 162.659 74.0137 162.285 73.779 162.013C73.5517 161.735 73.1813 161.595 72.668 161.595C72.1693 161.595 71.7807 161.753 71.502 162.068C71.2307 162.376 71.084 162.791 71.062 163.311H70.094C70.1233 162.49 70.3727 161.856 70.842 161.408C71.3113 160.961 71.9163 160.737 72.657 160.737C73.4123 160.737 74.01 160.946 74.45 161.364C74.8973 161.782 75.121 162.358 75.121 163.091C75.121 163.7 74.9377 164.294 74.571 164.873C74.2117 165.445 73.801 165.951 73.339 166.391C72.877 166.824 72.2867 167.33 71.568 167.909H75.352V168.745H70.061V168.03Z" fill="#737A83"/>
<path d="M97.6587 168.03C98.59 167.282 99.3197 166.67 99.8477 166.193C100.376 165.709 100.819 165.207 101.179 164.686C101.545 164.158 101.729 163.641 101.729 163.135C101.729 162.659 101.611 162.285 101.377 162.013C101.149 161.735 100.779 161.595 100.266 161.595C99.767 161.595 99.3783 161.753 99.0997 162.068C98.8283 162.376 98.6817 162.791 98.6597 163.311H97.6917C97.721 162.49 97.9703 161.856 98.4397 161.408C98.909 160.961 99.514 160.737 100.255 160.737C101.01 160.737 101.608 160.946 102.048 161.364C102.495 161.782 102.719 162.358 102.719 163.091C102.719 163.7 102.535 164.294 102.169 164.873C101.809 165.445 101.399 165.951 100.937 166.391C100.475 166.824 99.8843 167.33 99.1657 167.909H102.95V168.745H97.6587V168.03ZM104.085 162.882C104.136 162.208 104.396 161.68 104.866 161.298C105.335 160.917 105.944 160.726 106.692 160.726C107.19 160.726 107.619 160.818 107.979 161.001C108.345 161.177 108.62 161.419 108.804 161.727C108.994 162.035 109.09 162.384 109.09 162.772C109.09 163.227 108.958 163.619 108.694 163.949C108.437 164.279 108.1 164.492 107.682 164.587V164.642C108.158 164.76 108.536 164.991 108.815 165.335C109.093 165.68 109.233 166.131 109.233 166.688C109.233 167.106 109.137 167.484 108.947 167.821C108.756 168.151 108.47 168.412 108.089 168.602C107.707 168.793 107.249 168.888 106.714 168.888C105.936 168.888 105.298 168.687 104.8 168.283C104.301 167.873 104.022 167.293 103.964 166.545H104.932C104.983 166.985 105.163 167.345 105.471 167.623C105.779 167.902 106.189 168.041 106.703 168.041C107.216 168.041 107.605 167.909 107.869 167.645C108.14 167.374 108.276 167.026 108.276 166.6C108.276 166.05 108.092 165.654 107.726 165.412C107.359 165.17 106.805 165.049 106.065 165.049H105.812V164.213H106.076C106.75 164.206 107.26 164.096 107.605 163.883C107.949 163.663 108.122 163.326 108.122 162.871C108.122 162.483 107.993 162.171 107.737 161.936C107.487 161.702 107.128 161.584 106.659 161.584C106.204 161.584 105.837 161.702 105.559 161.936C105.28 162.171 105.115 162.486 105.064 162.882H104.085Z" fill="#737A83"/>
<path d="M131.438 168.03C132.37 167.282 133.099 166.67 133.627 166.193C134.155 165.709 134.599 165.207 134.958 164.686C135.325 164.158 135.508 163.641 135.508 163.135C135.508 162.659 135.391 162.285 135.156 162.013C134.929 161.735 134.559 161.595 134.045 161.595C133.547 161.595 133.158 161.753 132.879 162.068C132.608 162.376 132.461 162.791 132.439 163.311H131.471C131.501 162.49 131.75 161.856 132.219 161.408C132.689 160.961 133.294 160.737 134.034 160.737C134.79 160.737 135.387 160.946 135.827 161.364C136.275 161.782 136.498 162.358 136.498 163.091C136.498 163.7 136.315 164.294 135.948 164.873C135.589 165.445 135.178 165.951 134.716 166.391C134.254 166.824 133.664 167.33 132.945 167.909H136.729V168.745H131.438V168.03ZM137.645 167.062V166.303L141.506 160.957H142.705V166.193H143.805V167.062H142.705V168.833H141.715V167.062H137.645ZM141.759 162.002L138.8 166.193H141.759V162.002Z" fill="#737A83"/>
<path d="M165.444 168.03C166.375 167.282 167.105 166.67 167.633 166.193C168.161 165.709 168.604 165.207 168.964 164.686C169.33 164.158 169.514 163.641 169.514 163.135C169.514 162.659 169.396 162.285 169.162 162.013C168.934 161.735 168.564 161.595 168.051 161.595C167.552 161.595 167.163 161.753 166.885 162.068C166.613 162.376 166.467 162.791 166.445 163.311H165.477C165.506 162.49 165.755 161.856 166.225 161.408C166.694 160.961 167.299 160.737 168.04 160.737C168.795 160.737 169.393 160.946 169.833 161.364C170.28 161.782 170.504 162.358 170.504 163.091C170.504 163.7 170.32 164.294 169.954 164.873C169.594 165.445 169.184 165.951 168.722 166.391C168.26 166.824 167.669 167.33 166.951 167.909H170.735V168.745H165.444V168.03ZM176.963 161.749H173.102V164.257C173.271 164.023 173.52 163.832 173.85 163.685C174.18 163.531 174.536 163.454 174.917 163.454C175.526 163.454 176.021 163.583 176.402 163.839C176.783 164.089 177.055 164.415 177.216 164.818C177.385 165.214 177.469 165.636 177.469 166.083C177.469 166.611 177.37 167.084 177.172 167.502C176.974 167.92 176.67 168.25 176.259 168.492C175.856 168.734 175.353 168.855 174.752 168.855C173.982 168.855 173.359 168.657 172.882 168.261C172.405 167.865 172.116 167.337 172.013 166.677H172.992C173.087 167.095 173.289 167.422 173.597 167.656C173.905 167.891 174.294 168.008 174.763 168.008C175.342 168.008 175.779 167.836 176.072 167.491C176.365 167.139 176.512 166.677 176.512 166.105C176.512 165.533 176.365 165.093 176.072 164.785C175.779 164.47 175.346 164.312 174.774 164.312C174.385 164.312 174.044 164.408 173.751 164.598C173.465 164.782 173.256 165.035 173.124 165.357H172.178V160.869H176.963V161.749Z" fill="#757575"/>
<path d="M199.406 168.03C200.338 167.282 201.067 166.67 201.595 166.193C202.123 165.709 202.567 165.207 202.926 164.686C203.293 164.158 203.476 163.641 203.476 163.135C203.476 162.659 203.359 162.285 203.124 162.013C202.897 161.735 202.527 161.595 202.013 161.595C201.515 161.595 201.126 161.753 200.847 162.068C200.576 162.376 200.429 162.791 200.407 163.311H199.439C199.469 162.49 199.718 161.856 200.187 161.408C200.657 160.961 201.262 160.737 202.002 160.737C202.758 160.737 203.355 160.946 203.795 161.364C204.243 161.782 204.466 162.358 204.466 163.091C204.466 163.7 204.283 164.294 203.916 164.873C203.557 165.445 203.146 165.951 202.684 166.391C202.222 166.824 201.632 167.33 200.913 167.909H204.697V168.745H199.406V168.03ZM210.287 162.772C210.126 161.958 209.624 161.551 208.78 161.551C208.128 161.551 207.64 161.804 207.317 162.31C206.995 162.809 206.837 163.634 206.844 164.785C207.013 164.404 207.292 164.107 207.68 163.894C208.076 163.674 208.516 163.564 209 163.564C209.756 163.564 210.357 163.799 210.804 164.268C211.259 164.738 211.486 165.387 211.486 166.215C211.486 166.714 211.387 167.161 211.189 167.557C210.999 167.953 210.705 168.269 210.309 168.503C209.921 168.738 209.448 168.855 208.89 168.855C208.135 168.855 207.545 168.687 207.119 168.349C206.694 168.012 206.397 167.546 206.228 166.952C206.06 166.358 205.975 165.625 205.975 164.752C205.975 162.061 206.914 160.715 208.791 160.715C209.51 160.715 210.075 160.91 210.485 161.298C210.896 161.687 211.138 162.178 211.211 162.772H210.287ZM208.791 164.411C208.476 164.411 208.179 164.477 207.9 164.609C207.622 164.734 207.394 164.928 207.218 165.192C207.05 165.449 206.965 165.764 206.965 166.138C206.965 166.696 207.127 167.15 207.449 167.502C207.772 167.847 208.234 168.019 208.835 168.019C209.349 168.019 209.756 167.862 210.056 167.546C210.364 167.224 210.518 166.791 210.518 166.248C210.518 165.676 210.372 165.229 210.078 164.906C209.785 164.576 209.356 164.411 208.791 164.411Z" fill="#BA55D3"/>
<path d="M233.895 168.03C234.826 167.282 235.556 166.67 236.084 166.193C236.612 165.709 237.056 165.207 237.415 164.686C237.782 164.158 237.965 163.641 237.965 163.135C237.965 162.659 237.848 162.285 237.613 162.013C237.386 161.735 237.015 161.595 236.502 161.595C236.003 161.595 235.615 161.753 235.336 162.068C235.065 162.376 234.918 162.791 234.896 163.311H233.928C233.957 162.49 234.207 161.856 234.676 161.408C235.145 160.961 235.75 160.737 236.491 160.737C237.246 160.737 237.844 160.946 238.284 161.364C238.731 161.782 238.955 162.358 238.955 163.091C238.955 163.7 238.772 164.294 238.405 164.873C238.046 165.445 237.635 165.951 237.173 166.391C236.711 166.824 236.121 167.33 235.402 167.909H239.186V168.745H233.895V168.03ZM245.238 161.661L242.18 168.833H241.168L244.27 161.76H240.024V160.902H245.238V161.661Z" fill="#BA55D3"/>
</g>
<g clip-path="url(#clip4_58_301)">
<rect x="25.5" y="185.167" width="20" height="20" rx="4" fill="#BA55D3"/>
<path d="M29.2205 197.16C29.4698 196.962 29.5835 196.87 29.5615 196.885C30.2802 196.291 30.8448 195.803 31.2555 195.422C31.6735 195.04 32.0255 194.641 32.3115 194.223C32.5975 193.805 32.7405 193.398 32.7405 193.002C32.7405 192.701 32.6708 192.466 32.5315 192.298C32.3922 192.129 32.1832 192.045 31.9045 192.045C31.6258 192.045 31.4058 192.151 31.2445 192.364C31.0905 192.569 31.0135 192.862 31.0135 193.244H29.1985C29.2132 192.62 29.3452 192.1 29.5945 191.682C29.8512 191.264 30.1848 190.956 30.5955 190.758C31.0135 190.56 31.4755 190.461 31.9815 190.461C32.8542 190.461 33.5105 190.684 33.9505 191.132C34.3978 191.579 34.6215 192.162 34.6215 192.881C34.6215 193.665 34.3538 194.395 33.8185 195.07C33.2832 195.737 32.6012 196.39 31.7725 197.028H34.7425V198.557H29.2205V197.16ZM36.8907 194.355C36.2014 193.988 35.8567 193.412 35.8567 192.628C35.8567 192.232 35.9594 191.872 36.1647 191.55C36.37 191.22 36.6817 190.959 37.0997 190.769C37.5177 190.571 38.031 190.472 38.6397 190.472C39.2484 190.472 39.758 190.571 40.1687 190.769C40.5867 190.959 40.8984 191.22 41.1037 191.55C41.309 191.872 41.4117 192.232 41.4117 192.628C41.4117 193.024 41.3164 193.368 41.1257 193.662C40.9424 193.955 40.693 194.186 40.3777 194.355C40.7737 194.545 41.078 194.809 41.2907 195.147C41.5034 195.477 41.6097 195.865 41.6097 196.313C41.6097 196.833 41.4777 197.284 41.2137 197.666C40.9497 198.04 40.5904 198.326 40.1357 198.524C39.6884 198.722 39.1897 198.821 38.6397 198.821C38.0897 198.821 37.5874 198.722 37.1327 198.524C36.6854 198.326 36.3297 198.04 36.0657 197.666C35.8017 197.284 35.6697 196.833 35.6697 196.313C35.6697 195.858 35.776 195.466 35.9887 195.136C36.2014 194.798 36.502 194.538 36.8907 194.355ZM39.5857 192.914C39.5857 192.613 39.4977 192.382 39.3217 192.221C39.153 192.052 38.9257 191.968 38.6397 191.968C38.3537 191.968 38.1227 192.052 37.9467 192.221C37.778 192.389 37.6937 192.624 37.6937 192.925C37.6937 193.211 37.7817 193.438 37.9577 193.607C38.1337 193.768 38.361 193.849 38.6397 193.849C38.9184 193.849 39.1457 193.764 39.3217 193.596C39.4977 193.427 39.5857 193.2 39.5857 192.914ZM38.6397 195.169C38.295 195.169 38.0164 195.264 37.8037 195.455C37.591 195.638 37.4847 195.895 37.4847 196.225C37.4847 196.533 37.5874 196.786 37.7927 196.984C38.0054 197.182 38.2877 197.281 38.6397 197.281C38.9917 197.281 39.2667 197.182 39.4647 196.984C39.67 196.786 39.7727 196.533 39.7727 196.225C39.7727 195.902 39.6664 195.645 39.4537 195.455C39.2484 195.264 38.977 195.169 38.6397 195.169Z" fill="#FFF5EE"/>
<path d="M63.4331 197.864C64.3644 197.116 65.0941 196.503 65.6221 196.027C66.1501 195.543 66.5937 195.04 66.9531 194.52C67.3197 193.992 67.5031 193.475 67.5031 192.969C67.5031 192.492 67.3857 192.118 67.1511 191.847C66.9237 191.568 66.5534 191.429 66.0401 191.429C65.5414 191.429 65.1527 191.586 64.8741 191.902C64.6027 192.21 64.4561 192.624 64.4341 193.145H63.4661C63.4954 192.323 63.7447 191.689 64.2141 191.242C64.6834 190.794 65.2884 190.571 66.0291 190.571C66.7844 190.571 67.3821 190.78 67.8221 191.198C68.2694 191.616 68.4931 192.191 68.4931 192.925C68.4931 193.533 68.3097 194.127 67.9431 194.707C67.5837 195.279 67.1731 195.785 66.7111 196.225C66.2491 196.657 65.6587 197.163 64.9401 197.743H68.7241V198.579H63.4331V197.864ZM71.1682 196.533C71.2416 196.951 71.4102 197.273 71.6742 197.501C71.9456 197.728 72.3086 197.842 72.7632 197.842C73.3719 197.842 73.8192 197.603 74.1052 197.127C74.3986 196.65 74.5379 195.847 74.5232 194.718C74.3692 195.048 74.1126 195.308 73.7532 195.499C73.3939 195.682 72.9942 195.774 72.5542 195.774C72.0629 195.774 71.6229 195.675 71.2342 195.477C70.8529 195.271 70.5522 194.974 70.3322 194.586C70.1122 194.197 70.0022 193.728 70.0022 193.178C70.0022 192.393 70.2296 191.762 70.6842 191.286C71.1389 190.802 71.7842 190.56 72.6202 190.56C73.6469 190.56 74.3656 190.893 74.7762 191.561C75.1942 192.228 75.4032 193.222 75.4032 194.542C75.4032 195.466 75.3189 196.228 75.1502 196.83C74.9889 197.431 74.7102 197.889 74.3142 198.205C73.9256 198.52 73.3902 198.678 72.7082 198.678C71.9602 198.678 71.3772 198.476 70.9592 198.073C70.5412 197.669 70.3029 197.156 70.2442 196.533H71.1682ZM72.7192 194.927C73.2106 194.927 73.6139 194.776 73.9292 194.476C74.2446 194.168 74.4022 193.753 74.4022 193.233C74.4022 192.683 74.2482 192.239 73.9402 191.902C73.6322 191.564 73.1996 191.396 72.6422 191.396C72.1289 191.396 71.7182 191.557 71.4102 191.88C71.1096 192.202 70.9592 192.628 70.9592 193.156C70.9592 193.691 71.1096 194.12 71.4102 194.443C71.7109 194.765 72.1472 194.927 72.7192 194.927Z" fill="#737A83"/>
<path d="M97.4676 192.716C97.519 192.041 97.7793 191.513 98.2486 191.132C98.718 190.75 99.3266 190.56 100.075 190.56C100.573 190.56 101.002 190.651 101.362 190.835C101.728 191.011 102.003 191.253 102.187 191.561C102.377 191.869 102.473 192.217 102.473 192.606C102.473 193.06 102.341 193.453 102.077 193.783C101.82 194.113 101.483 194.325 101.065 194.421V194.476C101.541 194.593 101.919 194.824 102.198 195.169C102.476 195.513 102.616 195.964 102.616 196.522C102.616 196.94 102.52 197.317 102.33 197.655C102.139 197.985 101.853 198.245 101.472 198.436C101.09 198.626 100.632 198.722 100.097 198.722C99.3193 198.722 98.6813 198.52 98.1826 198.117C97.684 197.706 97.4053 197.127 97.3466 196.379H98.3146C98.366 196.819 98.5456 197.178 98.8536 197.457C99.1616 197.735 99.5723 197.875 100.086 197.875C100.599 197.875 100.988 197.743 101.252 197.479C101.523 197.207 101.659 196.859 101.659 196.434C101.659 195.884 101.475 195.488 101.109 195.246C100.742 195.004 100.188 194.883 99.4476 194.883H99.1946V194.047H99.4586C100.133 194.039 100.643 193.929 100.988 193.717C101.332 193.497 101.505 193.159 101.505 192.705C101.505 192.316 101.376 192.004 101.12 191.77C100.87 191.535 100.511 191.418 100.042 191.418C99.587 191.418 99.2203 191.535 98.9416 191.77C98.663 192.004 98.498 192.32 98.4466 192.716H97.4676ZM103.967 194.608C103.967 193.346 104.172 192.364 104.583 191.66C104.994 190.948 105.712 190.593 106.739 190.593C107.758 190.593 108.473 190.948 108.884 191.66C109.295 192.364 109.5 193.346 109.5 194.608C109.5 195.891 109.295 196.888 108.884 197.6C108.473 198.311 107.758 198.667 106.739 198.667C105.712 198.667 104.994 198.311 104.583 197.6C104.172 196.888 103.967 195.891 103.967 194.608ZM108.51 194.608C108.51 193.97 108.466 193.431 108.378 192.991C108.297 192.543 108.125 192.184 107.861 191.913C107.604 191.641 107.23 191.506 106.739 191.506C106.24 191.506 105.859 191.641 105.595 191.913C105.338 192.184 105.166 192.543 105.078 192.991C104.997 193.431 104.957 193.97 104.957 194.608C104.957 195.268 104.997 195.821 105.078 196.269C105.166 196.716 105.338 197.075 105.595 197.347C105.859 197.618 106.24 197.754 106.739 197.754C107.23 197.754 107.604 197.618 107.861 197.347C108.125 197.075 108.297 196.716 108.378 196.269C108.466 195.821 108.51 195.268 108.51 194.608Z" fill="#737A83"/>
<path d="M136.156 191.627V190.714H138.224V198.667H137.212V191.627H136.156Z" fill="#BEC7CF"/>
<path d="M168.897 197.864C169.829 197.116 170.558 196.503 171.086 196.027C171.614 195.543 172.058 195.04 172.417 194.52C172.784 193.992 172.967 193.475 172.967 192.969C172.967 192.492 172.85 192.118 172.615 191.847C172.388 191.568 172.018 191.429 171.504 191.429C171.006 191.429 170.617 191.586 170.338 191.902C170.067 192.21 169.92 192.624 169.898 193.145H168.93C168.96 192.323 169.209 191.689 169.678 191.242C170.148 190.794 170.753 190.571 171.493 190.571C172.249 190.571 172.846 190.78 173.286 191.198C173.734 191.616 173.957 192.191 173.957 192.925C173.957 193.533 173.774 194.127 173.407 194.707C173.048 195.279 172.637 195.785 172.175 196.225C171.713 196.657 171.123 197.163 170.404 197.743H174.188V198.579H168.897V197.864Z" fill="#BEC7CF"/>
<path d="M202.921 192.716C202.973 192.041 203.233 191.513 203.702 191.132C204.172 190.75 204.78 190.56 205.528 190.56C206.027 190.56 206.456 190.651 206.815 190.835C207.182 191.011 207.457 191.253 207.64 191.561C207.831 191.869 207.926 192.217 207.926 192.606C207.926 193.06 207.794 193.453 207.53 193.783C207.274 194.113 206.936 194.325 206.518 194.421V194.476C206.995 194.593 207.373 194.824 207.651 195.169C207.93 195.513 208.069 195.964 208.069 196.522C208.069 196.94 207.974 197.317 207.783 197.655C207.593 197.985 207.307 198.245 206.925 198.436C206.544 198.626 206.086 198.722 205.55 198.722C204.773 198.722 204.135 198.52 203.636 198.117C203.138 197.706 202.859 197.127 202.8 196.379H203.768C203.82 196.819 203.999 197.178 204.307 197.457C204.615 197.735 205.026 197.875 205.539 197.875C206.053 197.875 206.441 197.743 206.705 197.479C206.977 197.207 207.112 196.859 207.112 196.434C207.112 195.884 206.929 195.488 206.562 195.246C206.196 195.004 205.642 194.883 204.901 194.883H204.648V194.047H204.912C205.587 194.039 206.097 193.929 206.441 193.717C206.786 193.497 206.958 193.159 206.958 192.705C206.958 192.316 206.83 192.004 206.573 191.77C206.324 191.535 205.965 191.418 205.495 191.418C205.041 191.418 204.674 191.535 204.395 191.77C204.117 192.004 203.952 192.32 203.9 192.716H202.921Z" fill="#BEC7CF"/>
<path d="M236.481 196.896V196.137L240.342 190.791H241.541V196.027H242.641V196.896H241.541V198.667H240.551V196.896H236.481ZM240.595 191.836L237.636 196.027H240.595V191.836Z" fill="#BEC7CF"/>
</g>
<path d="M37.7994 221.416H33.9384V223.924C34.1071 223.689 34.3564 223.499 34.6864 223.352C35.0164 223.198 35.3721 223.121 35.7534 223.121C36.3621 223.121 36.8571 223.249 37.2384 223.506C37.6197 223.755 37.8911 224.082 38.0524 224.485C38.2211 224.881 38.3054 225.303 38.3054 225.75C38.3054 226.278 38.2064 226.751 38.0084 227.169C37.8104 227.587 37.5061 227.917 37.0954 228.159C36.6921 228.401 36.1897 228.522 35.5884 228.522C34.8184 228.522 34.1951 228.324 33.7184 227.928C33.2417 227.532 32.9521 227.004 32.8494 226.344H33.8284C33.9237 226.762 34.1254 227.088 34.4334 227.323C34.7414 227.558 35.1301 227.675 35.5994 227.675C36.1787 227.675 36.6151 227.503 36.9084 227.158C37.2017 226.806 37.3484 226.344 37.3484 225.772C37.3484 225.2 37.2017 224.76 36.9084 224.452C36.6151 224.137 36.1824 223.979 35.6104 223.979C35.2217 223.979 34.8807 224.074 34.5874 224.265C34.3014 224.448 34.0924 224.701 33.9604 225.024H33.0144V220.536H37.7994V221.416Z" fill="#BEC7CF"/>
<path d="M71.1238 222.439C70.9625 221.625 70.4601 221.218 69.6168 221.218C68.9641 221.218 68.4765 221.471 68.1538 221.977C67.8311 222.476 67.6735 223.301 67.6808 224.452C67.8495 224.071 68.1281 223.774 68.5168 223.561C68.9128 223.341 69.3528 223.231 69.8368 223.231C70.5921 223.231 71.1935 223.466 71.6408 223.935C72.0955 224.404 72.3228 225.053 72.3228 225.882C72.3228 226.381 72.2238 226.828 72.0258 227.224C71.8351 227.62 71.5418 227.935 71.1458 228.17C70.7571 228.405 70.2841 228.522 69.7268 228.522C68.9715 228.522 68.3811 228.353 67.9558 228.016C67.5305 227.679 67.2335 227.213 67.0648 226.619C66.8961 226.025 66.8118 225.292 66.8118 224.419C66.8118 221.728 67.7505 220.382 69.6278 220.382C70.3465 220.382 70.9111 220.576 71.3218 220.965C71.7325 221.354 71.9745 221.845 72.0478 222.439H71.1238ZM69.6278 224.078C69.3125 224.078 69.0155 224.144 68.7368 224.276C68.4581 224.401 68.2308 224.595 68.0548 224.859C67.8861 225.116 67.8018 225.431 67.8018 225.805C67.8018 226.362 67.9631 226.817 68.2858 227.169C68.6085 227.514 69.0705 227.686 69.6718 227.686C70.1851 227.686 70.5921 227.528 70.8928 227.213C71.2008 226.89 71.3548 226.458 71.3548 225.915C71.3548 225.343 71.2081 224.896 70.9148 224.573C70.6215 224.243 70.1925 224.078 69.6278 224.078Z" fill="#BEC7CF"/>
<path d="M106.075 221.328L103.017 228.5H102.005L105.107 221.427H100.861V220.569H106.075V221.328Z" fill="#BEC7CF"/>
<path d="M136.164 224.364C135.754 224.203 135.438 223.968 135.218 223.66C134.998 223.352 134.888 222.978 134.888 222.538C134.888 222.142 134.987 221.786 135.185 221.471C135.383 221.148 135.677 220.895 136.065 220.712C136.461 220.521 136.938 220.426 137.495 220.426C138.053 220.426 138.526 220.521 138.914 220.712C139.31 220.895 139.607 221.148 139.805 221.471C140.011 221.786 140.113 222.142 140.113 222.538C140.113 222.963 140 223.337 139.772 223.66C139.545 223.975 139.233 224.21 138.837 224.364C139.292 224.503 139.651 224.749 139.915 225.101C140.187 225.446 140.322 225.864 140.322 226.355C140.322 226.832 140.205 227.25 139.97 227.609C139.736 227.961 139.402 228.236 138.969 228.434C138.544 228.625 138.053 228.72 137.495 228.72C136.938 228.72 136.447 228.625 136.021 228.434C135.603 228.236 135.277 227.961 135.042 227.609C134.808 227.25 134.69 226.832 134.69 226.355C134.69 225.864 134.822 225.442 135.086 225.09C135.35 224.738 135.71 224.496 136.164 224.364ZM139.145 222.659C139.145 222.212 138.999 221.867 138.705 221.625C138.412 221.383 138.009 221.262 137.495 221.262C136.989 221.262 136.59 221.383 136.296 221.625C136.003 221.867 135.856 222.215 135.856 222.67C135.856 223.081 136.007 223.411 136.307 223.66C136.615 223.909 137.011 224.034 137.495 224.034C137.987 224.034 138.383 223.909 138.683 223.66C138.991 223.403 139.145 223.07 139.145 222.659ZM137.495 224.804C136.953 224.804 136.509 224.932 136.164 225.189C135.82 225.438 135.647 225.816 135.647 226.322C135.647 226.791 135.812 227.169 136.142 227.455C136.48 227.741 136.931 227.884 137.495 227.884C138.06 227.884 138.507 227.741 138.837 227.455C139.167 227.169 139.332 226.791 139.332 226.322C139.332 225.831 139.164 225.457 138.826 225.2C138.489 224.936 138.045 224.804 137.495 224.804Z" fill="#BEC7CF"/>
<path d="M170.005 226.366C170.078 226.784 170.247 227.107 170.511 227.334C170.782 227.561 171.145 227.675 171.6 227.675C172.208 227.675 172.656 227.437 172.942 226.96C173.235 226.483 173.374 225.68 173.36 224.551C173.206 224.881 172.949 225.141 172.59 225.332C172.23 225.515 171.831 225.607 171.391 225.607C170.899 225.607 170.459 225.508 170.071 225.31C169.689 225.105 169.389 224.808 169.169 224.419C168.949 224.03 168.839 223.561 168.839 223.011C168.839 222.226 169.066 221.596 169.521 221.119C169.975 220.635 170.621 220.393 171.457 220.393C172.483 220.393 173.202 220.727 173.613 221.394C174.031 222.061 174.24 223.055 174.24 224.375C174.24 225.299 174.155 226.062 173.987 226.663C173.825 227.264 173.547 227.723 173.151 228.038C172.762 228.353 172.227 228.511 171.545 228.511C170.797 228.511 170.214 228.309 169.796 227.906C169.378 227.503 169.139 226.989 169.081 226.366H170.005ZM171.556 224.76C172.047 224.76 172.45 224.61 172.766 224.309C173.081 224.001 173.239 223.587 173.239 223.066C173.239 222.516 173.085 222.072 172.777 221.735C172.469 221.398 172.036 221.229 171.479 221.229C170.965 221.229 170.555 221.39 170.247 221.713C169.946 222.036 169.796 222.461 169.796 222.989C169.796 223.524 169.946 223.953 170.247 224.276C170.547 224.599 170.984 224.76 171.556 224.76Z" fill="#BEC6CF"/>
<path d="M200.703 221.46V220.547H202.771V228.5H201.759V221.46H200.703ZM204.49 224.441C204.49 223.18 204.695 222.197 205.106 221.493C205.517 220.782 206.235 220.426 207.262 220.426C208.281 220.426 208.996 220.782 209.407 221.493C209.818 222.197 210.023 223.18 210.023 224.441C210.023 225.724 209.818 226.722 209.407 227.433C208.996 228.144 208.281 228.5 207.262 228.5C206.235 228.5 205.517 228.144 205.106 227.433C204.695 226.722 204.49 225.724 204.49 224.441ZM209.033 224.441C209.033 223.803 208.989 223.264 208.901 222.824C208.82 222.377 208.648 222.017 208.384 221.746C208.127 221.475 207.753 221.339 207.262 221.339C206.763 221.339 206.382 221.475 206.118 221.746C205.861 222.017 205.689 222.377 205.601 222.824C205.52 223.264 205.48 223.803 205.48 224.441C205.48 225.101 205.52 225.655 205.601 226.102C205.689 226.549 205.861 226.909 206.118 227.18C206.382 227.451 206.763 227.587 207.262 227.587C207.753 227.587 208.127 227.451 208.384 227.18C208.648 226.909 208.82 226.549 208.901 226.102C208.989 225.655 209.033 225.101 209.033 224.441Z" fill="#BEC6CF"/>
<path d="M236.395 221.46V220.547H238.463V228.5H237.451V221.46H236.395ZM239.918 221.46V220.547H241.986V228.5H240.974V221.46H239.918Z" fill="#BEC7CF"/>
<defs>
<clipPath id="clip0_58_301">
<rect width="227" height="20" fill="white" transform="translate(24 65.8333)"/>
</clipPath>
<clipPath id="clip1_58_301">
<rect width="227" height="20" fill="white" transform="translate(24 95.6667)"/>
</clipPath>
<clipPath id="clip2_58_301">
<rect width="227" height="20" fill="white" transform="translate(24 125.5)"/>
</clipPath>
<clipPath id="clip3_58_301">
<rect width="227" height="20" fill="white" transform="translate(24 155.333)"/>
</clipPath>
<clipPath id="clip4_58_301">
<rect width="227" height="20" fill="white" transform="translate(24 185.167)"/>
</clipPath>
</defs>
</svg>
