<svg width="20" height="20" viewBox="0 0 20 20" fill="none" xmlns="http://www.w3.org/2000/svg">
<path d="M6.6665 8.33322V5.83322C6.6657 5.02133 6.96124 4.23706 7.49765 3.62761C8.03406 3.01816 8.77446 2.62544 9.57987 2.52315C10.3853 2.42086 11.2004 2.61604 11.8721 3.07206C12.5438 3.52807 13.026 4.21357 13.2282 4.99988M9.99984 12.4999C10.2209 12.4999 10.4328 12.4121 10.5891 12.2558C10.7454 12.0995 10.8332 11.8876 10.8332 11.6666C10.8332 11.4455 10.7454 11.2336 10.5891 11.0773C10.4328 10.921 10.2209 10.8332 9.99984 10.8332C9.77882 10.8332 9.56686 10.921 9.41058 11.0773C9.2543 11.2336 9.1665 11.4455 9.1665 11.6666C9.1665 11.8876 9.2543 12.0995 9.41058 12.2558C9.56686 12.4121 9.77882 12.4999 9.99984 12.4999ZM9.99984 12.4999V14.9999M5.49984 8.33322H14.4998C15.2332 8.33322 15.8332 8.93322 15.8332 9.66655V15.4999C15.8332 16.5999 14.9332 17.4999 13.8332 17.4999H6.1665C5.0665 17.4999 4.1665 16.5999 4.1665 15.4999V9.66655C4.1665 8.93322 4.7665 8.33322 5.49984 8.33322Z" stroke="#333333" stroke-opacity="0.75" stroke-width="1.25" stroke-miterlimit="10" stroke-linecap="round" stroke-linejoin="round"/>
</svg>
