<svg width="51" height="65" viewBox="0 0 51 65" fill="none" xmlns="http://www.w3.org/2000/svg">
<g clip-path="url(#clip0_224_1949)">
<g opacity="0.3">
<path opacity="0.3" d="M34.9357 13.152C33.5687 13.1506 32.258 12.5701 31.2912 11.5378C30.3243 10.5055 29.7802 9.10572 29.7782 7.6455V0H6.74558C4.96133 0 3.25019 0.757111 1.98854 2.10478C0.726878 3.45246 0.0180664 5.28029 0.0180664 7.18619V50.5063C0.0180664 52.4122 0.726878 54.24 1.98854 55.5877C3.25019 56.9354 4.96133 57.6925 6.74558 57.6925H34.3957C36.18 57.6925 37.8912 56.9354 39.1529 55.5877C40.4145 54.24 41.1233 52.4122 41.1233 50.5063V13.152H34.9357Z" fill="#FF3E4C"/>
</g>
<path d="M41.1233 13.152H34.9358C33.5688 13.1506 32.2581 12.5701 31.2913 11.5378C30.3244 10.5055 29.7803 9.10573 29.7783 7.6455V0L41.1233 13.152Z" fill="#FF3E4C"/>
<path d="M32.6656 40.2784H6.85547C6.61553 40.2651 6.38951 40.154 6.22406 39.9679C6.05861 39.7818 5.96631 39.5349 5.96631 39.2783C5.96631 39.0216 6.05861 38.7748 6.22406 38.5887C6.38951 38.4026 6.61553 38.2914 6.85547 38.2782H32.6656C32.7926 38.2712 32.9197 38.2918 33.039 38.3389C33.1583 38.386 33.2673 38.4586 33.3596 38.5521C33.4518 38.6457 33.5252 38.7583 33.5754 38.8831C33.6256 39.008 33.6515 39.1424 33.6515 39.2783C33.6515 39.4141 33.6256 39.5486 33.5754 39.6734C33.5252 39.7983 33.4518 39.9109 33.3596 40.0044C33.2673 40.098 33.1583 40.1705 33.039 40.2176C32.9197 40.2647 32.7926 40.2854 32.6656 40.2784Z" fill="#FF3E4C"/>
<path d="M32.6656 29.0013H6.85547C6.61553 28.988 6.38951 28.8769 6.22406 28.6908C6.05861 28.5047 5.96631 28.2578 5.96631 28.0012C5.96631 27.7445 6.05861 27.4977 6.22406 27.3116C6.38951 27.1255 6.61553 27.0143 6.85547 27.0011H32.6656C32.7926 26.9941 32.9197 27.0147 33.039 27.0618C33.1583 27.1089 33.2673 27.1815 33.3596 27.275C33.4518 27.3686 33.5252 27.4812 33.5754 27.606C33.6256 27.7309 33.6515 27.8653 33.6515 28.0012C33.6515 28.137 33.6256 28.2715 33.5754 28.3963C33.5252 28.5212 33.4518 28.6338 33.3596 28.7273C33.2673 28.8209 33.1583 28.8934 33.039 28.9405C32.9197 28.9876 32.7926 29.0083 32.6656 29.0013Z" fill="#FF3E4C"/>
<path d="M32.6656 34.6414H6.85547C6.61553 34.6281 6.38951 34.517 6.22406 34.3309C6.05861 34.1448 5.96631 33.898 5.96631 33.6413C5.96631 33.3847 6.05861 33.1378 6.22406 32.9517C6.38951 32.7656 6.61553 32.6545 6.85547 32.6412H32.6656C32.7926 32.6342 32.9197 32.6549 33.039 32.702C33.1583 32.7491 33.2673 32.8216 33.3596 32.9152C33.4518 33.0087 33.5252 33.1213 33.5754 33.2462C33.6256 33.371 33.6515 33.5055 33.6515 33.6413C33.6515 33.7772 33.6256 33.9116 33.5754 34.0365C33.5252 34.1613 33.4518 34.2739 33.3596 34.3675C33.2673 34.461 33.1583 34.5336 33.039 34.5806C32.9197 34.6277 32.7926 34.6484 32.6656 34.6414Z" fill="#FF3E4C"/>
<path d="M22.4855 23.3613H6.85547C6.61553 23.348 6.38951 23.2369 6.22406 23.0508C6.05861 22.8647 5.96631 22.6178 5.96631 22.3612C5.96631 22.1045 6.05861 21.8577 6.22406 21.6716C6.38951 21.4855 6.61553 21.3743 6.85547 21.3611H22.4855C22.7254 21.3743 22.9515 21.4855 23.117 21.6716C23.2824 21.8577 23.3747 22.1045 23.3747 22.3612C23.3747 22.6178 23.2824 22.8647 23.117 23.0508C22.9515 23.2369 22.7254 23.348 22.4855 23.3613Z" fill="#FF3E4C"/>
<path d="M22.4855 17.7211H6.85547C6.61553 17.7079 6.38951 17.5967 6.22406 17.4106C6.05861 17.2245 5.96631 16.9777 5.96631 16.721C5.96631 16.4644 6.05861 16.2175 6.22406 16.0314C6.38951 15.8453 6.61553 15.7342 6.85547 15.7209H22.4855C22.7254 15.7342 22.9515 15.8453 23.117 16.0314C23.2824 16.2175 23.3747 16.4644 23.3747 16.721C23.3747 16.9777 23.2824 17.2245 23.117 17.4106C22.9515 17.5967 22.7254 17.7079 22.4855 17.7211Z" fill="#FF3E4C"/>
<path d="M46.0032 45.5608H14.7431C12.5256 45.5608 10.728 47.4809 10.728 49.8495V59.805C10.728 62.1736 12.5256 64.0937 14.7431 64.0937H46.0032C48.2207 64.0937 50.0183 62.1736 50.0183 59.805V49.8495C50.0183 47.4809 48.2207 45.5608 46.0032 45.5608Z" fill="#FF3E4C"/>
<path d="M20.9831 56.9822V58.9236H19.1006V56.9822H20.9831Z" fill="white"/>
<path d="M23.748 56.1063V58.9236H21.928V50.8936H24.873C25.768 50.8936 26.4489 51.1303 26.9156 51.6039C27.1524 51.8521 27.3375 52.151 27.4585 52.481C27.5796 52.811 27.6339 53.1646 27.618 53.5186C27.6262 53.9857 27.5175 54.4467 27.303 54.8538C27.0868 55.2539 26.7627 55.5749 26.373 55.7752C25.9051 56.0125 25.3908 56.127 24.873 56.109L23.748 56.1063ZM25.768 53.5186C25.768 52.8065 25.403 52.4504 24.673 52.4504H23.748V54.5414H24.673C25.403 54.5485 25.768 54.2076 25.768 53.5186Z" fill="white"/>
<path d="M34.8008 56.9877C34.4868 57.5951 34.0132 58.0909 33.4383 58.4137C32.7931 58.767 32.0755 58.9424 31.3508 58.9238H28.5107V50.8937H31.3508C32.0768 50.8749 32.7961 51.0463 33.4458 51.3931C34.0176 51.7102 34.489 52.2008 34.8008 52.8031C35.1114 53.4506 35.2734 54.1678 35.2734 54.8954C35.2734 55.623 35.1114 56.3402 34.8008 56.9877ZM32.8433 56.5845C33.224 56.1147 33.4335 55.5141 33.4335 54.8927C33.4335 54.2714 33.224 53.6708 32.8433 53.201C32.3887 52.7746 31.7946 52.5576 31.1907 52.5975H30.3283V57.1853H31.2033C31.8024 57.2215 32.3911 57.0059 32.8433 56.5845Z" fill="white"/>
<path d="M41.2033 50.8936V52.4397H38.1207V54.1996H40.5033V55.6763H38.1207V58.9236H36.3032V50.8936H41.2033Z" fill="white"/>
<path d="M32.2083 15.7209H27.7883C27.0179 15.7209 26.3933 16.3881 26.3933 17.2111V21.9324C26.3933 22.7554 27.0179 23.4225 27.7883 23.4225H32.2083C32.9788 23.4225 33.6033 22.7554 33.6033 21.9324V17.2111C33.6033 16.3881 32.9788 15.7209 32.2083 15.7209Z" fill="#FF3E4C"/>
</g>
<defs>
<clipPath id="clip0_224_1949">
<rect width="50.0003" height="64.0937" fill="white" transform="translate(0.0180664)"/>
</clipPath>
</defs>
</svg>
