<svg width="51" height="65" viewBox="0 0 51 65" fill="none" xmlns="http://www.w3.org/2000/svg">
<g clip-path="url(#clip0_224_2082)">
<g opacity="0.3">
<path opacity="0.3" d="M34.9357 13.152C33.5687 13.1506 32.258 12.5701 31.2912 11.5378C30.3243 10.5055 29.7802 9.10572 29.7782 7.6455V0H6.74558C4.96133 0 3.25019 0.757111 1.98854 2.10478C0.726878 3.45246 0.0180664 5.28029 0.0180664 7.18619V50.5063C0.0180664 52.4122 0.726878 54.24 1.98854 55.5877C3.25019 56.9354 4.96133 57.6925 6.74558 57.6925H34.3957C36.18 57.6925 37.8912 56.9354 39.1529 55.5877C40.4145 54.24 41.1233 52.4122 41.1233 50.5063V13.152H34.9357Z" fill="#FF3E4C"/>
</g>
<path d="M41.1233 13.152H34.9358C33.5688 13.1506 32.2581 12.5701 31.2913 11.5378C30.3244 10.5055 29.7803 9.10573 29.7783 7.6455V0L41.1233 13.152Z" fill="#FF3E4C"/>
<path d="M32.6656 40.2784H6.85547C6.61553 40.2651 6.38951 40.154 6.22406 39.9679C6.05861 39.7818 5.96631 39.5349 5.96631 39.2783C5.96631 39.0216 6.05861 38.7748 6.22406 38.5887C6.38951 38.4026 6.61553 38.2914 6.85547 38.2782H32.6656C32.7926 38.2712 32.9197 38.2918 33.039 38.3389C33.1583 38.386 33.2673 38.4586 33.3596 38.5521C33.4518 38.6457 33.5252 38.7583 33.5754 38.8831C33.6256 39.008 33.6515 39.1424 33.6515 39.2783C33.6515 39.4141 33.6256 39.5486 33.5754 39.6734C33.5252 39.7983 33.4518 39.9109 33.3596 40.0044C33.2673 40.098 33.1583 40.1705 33.039 40.2176C32.9197 40.2647 32.7926 40.2854 32.6656 40.2784Z" fill="#FF3E4C"/>
<path d="M32.6656 29.0015H6.85547C6.61553 28.9883 6.38951 28.8771 6.22406 28.691C6.05861 28.5049 5.96631 28.2581 5.96631 28.0014C5.96631 27.7448 6.05861 27.4979 6.22406 27.3118C6.38951 27.1257 6.61553 27.0146 6.85547 27.0013H32.6656C32.7926 26.9943 32.9197 27.015 33.039 27.0621C33.1583 27.1092 33.2673 27.1817 33.3596 27.2753C33.4518 27.3688 33.5252 27.4814 33.5754 27.6063C33.6256 27.7311 33.6515 27.8656 33.6515 28.0014C33.6515 28.1373 33.6256 28.2717 33.5754 28.3966C33.5252 28.5214 33.4518 28.634 33.3596 28.7276C33.2673 28.8211 33.1583 28.8937 33.039 28.9408C32.9197 28.9878 32.7926 29.0085 32.6656 29.0015Z" fill="#FF3E4C"/>
<path d="M32.6656 34.6412H6.85547C6.61553 34.6279 6.38951 34.5168 6.22406 34.3307C6.05861 34.1446 5.96631 33.8977 5.96631 33.6411C5.96631 33.3844 6.05861 33.1376 6.22406 32.9515C6.38951 32.7654 6.61553 32.6542 6.85547 32.641H32.6656C32.7926 32.634 32.9197 32.6546 33.039 32.7017C33.1583 32.7488 33.2673 32.8214 33.3596 32.9149C33.4518 33.0085 33.5252 33.1211 33.5754 33.2459C33.6256 33.3708 33.6515 33.5052 33.6515 33.6411C33.6515 33.7769 33.6256 33.9114 33.5754 34.0362C33.5252 34.161 33.4518 34.2737 33.3596 34.3672C33.2673 34.4608 33.1583 34.5333 33.039 34.5804C32.9197 34.6275 32.7926 34.6482 32.6656 34.6412Z" fill="#FF3E4C"/>
<path d="M22.4855 23.361H6.85547C6.61553 23.3478 6.38951 23.2366 6.22406 23.0505C6.05861 22.8644 5.96631 22.6176 5.96631 22.3609C5.96631 22.1043 6.05861 21.8574 6.22406 21.6713C6.38951 21.4852 6.61553 21.3741 6.85547 21.3608H22.4855C22.7254 21.3741 22.9515 21.4852 23.117 21.6713C23.2824 21.8574 23.3747 22.1043 23.3747 22.3609C23.3747 22.6176 23.2824 22.8644 23.117 23.0505C22.9515 23.2366 22.7254 23.3478 22.4855 23.361Z" fill="#FF3E4C"/>
<path d="M22.4855 17.7214H6.85547C6.61553 17.7081 6.38951 17.597 6.22406 17.4109C6.05861 17.2248 5.96631 16.9779 5.96631 16.7213C5.96631 16.4646 6.05861 16.2178 6.22406 16.0317C6.38951 15.8456 6.61553 15.7344 6.85547 15.7212H22.4855C22.7254 15.7344 22.9515 15.8456 23.117 16.0317C23.2824 16.2178 23.3747 16.4646 23.3747 16.7213C23.3747 16.9779 23.2824 17.2248 23.117 17.4109C22.9515 17.597 22.7254 17.7081 22.4855 17.7214Z" fill="#FF3E4C"/>
<path d="M46.0032 45.5605H14.7431C12.5256 45.5605 10.728 47.4807 10.728 49.8493V59.8048C10.728 62.1734 12.5256 64.0935 14.7431 64.0935H46.0032C48.2207 64.0935 50.0183 62.1734 50.0183 59.8048V49.8493C50.0183 47.4807 48.2207 45.5605 46.0032 45.5605Z" fill="#FF3E4C"/>
<path d="M20.9831 56.9819V58.9234H19.1006V56.9819H20.9831Z" fill="white"/>
<path d="M23.748 56.1063V58.9236H21.928V50.8936H24.873C25.768 50.8936 26.4489 51.1303 26.9156 51.6039C27.1524 51.8521 27.3375 52.151 27.4585 52.481C27.5796 52.811 27.6339 53.1646 27.618 53.5186C27.6262 53.9857 27.5175 54.4467 27.303 54.8538C27.0868 55.2539 26.7627 55.5749 26.373 55.7752C25.9051 56.0125 25.3908 56.127 24.873 56.109L23.748 56.1063ZM25.768 53.5186C25.768 52.8065 25.403 52.4504 24.673 52.4504H23.748V54.5414H24.673C25.403 54.5485 25.768 54.2076 25.768 53.5186Z" fill="white"/>
<path d="M34.8008 56.9875C34.4868 57.5949 34.0132 58.0906 33.4383 58.4135C32.7931 58.7668 32.0755 58.9421 31.3508 58.9236H28.5107V50.8935H31.3508C32.0768 50.8746 32.7961 51.0461 33.4458 51.3929C34.0176 51.71 34.489 52.2005 34.8008 52.8029C35.1114 53.4504 35.2734 54.1676 35.2734 54.8952C35.2734 55.6228 35.1114 56.3399 34.8008 56.9875ZM32.8433 56.5842C33.224 56.1144 33.4335 55.5138 33.4335 54.8925C33.4335 54.2711 33.224 53.6706 32.8433 53.2008C32.3887 52.7743 31.7946 52.5574 31.1907 52.5972H30.3283V57.1851H31.2033C31.8024 57.2213 32.3911 57.0056 32.8433 56.5842Z" fill="white"/>
<path d="M41.2033 50.8936V52.4397H38.1207V54.1996H40.5033V55.6763H38.1207V58.9236H36.3032V50.8936H41.2033Z" fill="white"/>
<path d="M32.2083 15.7212H27.7883C27.0179 15.7212 26.3933 16.3883 26.3933 17.2113V21.9327C26.3933 22.7556 27.0179 23.4228 27.7883 23.4228H32.2083C32.9788 23.4228 33.6033 22.7556 33.6033 21.9327V17.2113C33.6033 16.3883 32.9788 15.7212 32.2083 15.7212Z" fill="#FF3E4C"/>
</g>
<defs>
<clipPath id="clip0_224_2082">
<rect width="50.0003" height="64.0937" fill="white" transform="translate(0.0180664)"/>
</clipPath>
</defs>
</svg>
