<svg width="60" height="60" viewBox="0 0 60 60" fill="none" xmlns="http://www.w3.org/2000/svg">
<path d="M55 30C55 16.1925 43.8075 5 30 5C16.1925 5 5 16.1925 5 30C5 43.8075 16.1925 55 30 55" stroke="#1AADEE" stroke-width="3.75" stroke-linecap="round" stroke-linejoin="round"/>
<path d="M32.5 5.125C32.5 5.125 40 15 40 30M27.5 54.875C27.5 54.875 20 45 20 30C20 15 27.5 5.125 27.5 5.125M6.57495 38.75H30M6.57495 21.25H53.425" stroke="#1AADEE" stroke-width="3.75" stroke-linecap="round" stroke-linejoin="round"/>
<path d="M54.6975 44.7926C55.9325 45.5526 55.855 47.4001 54.585 47.5451L48.1675 48.2726L45.29 54.0526C44.72 55.2001 42.9575 54.6376 42.665 53.2176L39.5275 37.9276C39.28 36.7276 40.36 35.9726 41.4025 36.6151L54.6975 44.7926Z" stroke="#1AADEE" stroke-width="3.75"/>
</svg>
