<svg width="60" height="60" viewBox="0 0 60 60" fill="none" xmlns="http://www.w3.org/2000/svg">
<path d="M32.5 52.5V57.5H27.5V52.5H7.5C6.83696 52.5 6.20107 52.2366 5.73223 51.7678C5.26339 51.2989 5 50.663 5 50V15H55V50C55 50.663 54.7366 51.2989 54.2678 51.7678C53.7989 52.2366 53.163 52.5 52.5 52.5H32.5ZM20 25C18.5166 25 17.0666 25.4399 15.8332 26.264C14.5999 27.0881 13.6386 28.2594 13.0709 29.6299C12.5032 31.0003 12.3547 32.5083 12.6441 33.9632C12.9335 35.418 13.6478 36.7544 14.6967 37.8033C15.7456 38.8522 17.082 39.5665 18.5368 39.8559C19.9917 40.1453 21.4997 39.9968 22.8701 39.4291C24.2406 38.8614 25.4119 37.9001 26.236 36.6668C27.0601 35.4334 27.5 33.9834 27.5 32.5H20V25ZM32.5 25V30H47.5V25H32.5ZM32.5 35V40H47.5V35H32.5ZM5 7.5H55V12.5H5V7.5Z" fill="#E2A610"/>
</svg>
