<svg width="20" height="20" viewBox="0 0 20 20" fill="none" xmlns="http://www.w3.org/2000/svg">
<g id="Dark Mode">
<path id="Vector" d="M10 1.66C8.49144 1.66028 7.01123 2.07006 5.71729 2.84564C4.42335 3.62121 3.36421 4.73349 2.65285 6.06382C1.94149 7.39415 1.6046 8.89263 1.67811 10.3994C1.75163 11.9062 2.23278 13.3648 3.07026 14.6195C3.90774 15.8743 5.07012 16.8782 6.43342 17.5241C7.79671 18.1701 9.30978 18.4338 10.8112 18.2872C12.3127 18.1407 13.7461 17.5893 14.9588 16.6919C16.1714 15.7945 17.1177 14.5847 17.6967 13.1917C17.9809 12.5083 17.3 11.8217 16.615 12.1C15.441 12.5756 14.1374 12.6246 12.931 12.2387C11.7245 11.8527 10.6915 11.0562 10.0115 9.98752C9.33145 8.91885 9.04746 7.64565 9.20889 6.38929C9.37031 5.13294 9.96693 3.97289 10.895 3.11083L10.9592 3.04417C11.4183 2.51917 11.0533 1.66667 10.3275 1.66667H10.1058L10.0492 1.66167L10 1.66Z" fill="#333333"/>
</g>
</svg>
