<svg width="60" height="60" viewBox="0 0 60 60" fill="none" xmlns="http://www.w3.org/2000/svg">
<path d="M5.81531 53.8846C5.81531 53.8846 7.52906 60.4733 18.2466 58.7858L20.0737 54.3749L16.9903 51.0252L8.45437 48.208L5.81812 53.8846" fill="#34484C"/>
<path d="M39.9703 41.5359C39.9703 43.8703 38.7684 44.4853 35.7403 45.765L9.85781 56.6916C8.73561 56.6918 7.65926 56.2463 6.86548 55.4531C6.0717 54.6598 5.6255 53.5838 5.625 52.4616V16.0931C5.625 13.7559 6.99938 12.9806 9.85781 11.8641L35.7403 0.9375C36.8623 0.937749 37.9382 1.38362 38.7314 2.17704C39.5247 2.97047 39.9703 4.04649 39.9703 5.16844V41.5359Z" fill="#78111F"/>
<path d="M7.979 56.2482C7.979 56.2482 17.6803 59.0289 18.2456 58.7889C18.8118 58.5498 17.8837 54.5851 17.8837 54.5851L14.3746 50.8023L11.1112 50.6514L10.5356 51.4679L7.979 56.2482Z" fill="#34484C"/>
<path d="M35.13 3.45386L6.42004 15.5167L7.76629 23.2482L12.0413 23.6739L26.3044 21.3798L35.1713 16.7307L41.6982 7.79167C40.2713 5.23417 38.176 3.64792 35.13 3.45386Z" fill="#F4F5F5"/>
<path d="M14.025 18.1921C14.025 17.5171 14.146 16.9734 14.3747 16.5121C11.4394 16.2384 8.66533 15.3881 6.64033 13.5627C5.97002 14.1824 5.63721 14.9502 5.63721 16.0949V52.4634C5.63746 53.5853 6.08332 54.6612 6.87675 55.4545C7.67018 56.2477 8.74619 56.6934 9.86814 56.6934L14.0438 54.929C14.0315 54.8072 14.0253 54.6849 14.025 54.5624V18.1921Z" fill="#34484C"/>
<path d="M49.11 45.1199C49.11 47.4552 47.9081 48.0674 44.88 49.348L18.2437 58.7877C17.1227 58.7877 16.0476 58.3425 15.2547 57.55C14.4618 56.7574 14.0161 55.6825 14.0156 54.5614V18.1921C14.0156 15.8568 15.3872 15.0796 18.2437 13.9639L44.88 4.52051C47.2144 4.52051 49.11 6.41426 49.11 8.75051V45.1199Z" fill="#BE202E"/>
<path d="M38.0813 15.6196C38.1085 15.6898 38.1216 15.7646 38.1198 15.8399C38.1181 15.9151 38.1014 15.9892 38.071 16.058C38.0405 16.1268 37.9967 16.189 37.9422 16.2408C37.8877 16.2927 37.8234 16.3333 37.7532 16.3602L23.5913 21.8193C23.5213 21.8463 23.4467 21.8593 23.3717 21.8575C23.2967 21.8557 23.2228 21.8391 23.1542 21.8087C23.0856 21.7783 23.0236 21.7347 22.9719 21.6804C22.9201 21.6261 22.8796 21.5621 22.8525 21.4921C22.8255 21.4221 22.8125 21.3475 22.8144 21.2725C22.8162 21.1975 22.8328 21.1236 22.8631 21.055C22.8935 20.9864 22.9371 20.9244 22.9914 20.8727C23.0458 20.8209 23.1097 20.7804 23.1797 20.7534L37.3425 15.2952C37.4124 15.2679 37.4871 15.2546 37.5621 15.2562C37.6372 15.2578 37.7112 15.2743 37.7798 15.3046C37.8485 15.3349 37.9105 15.3785 37.9622 15.4329C38.014 15.4873 38.0544 15.5514 38.0813 15.6215M38.0813 18.2221C38.1085 18.2923 38.1216 18.3671 38.1198 18.4424C38.1181 18.5176 38.1014 18.5917 38.071 18.6605C38.0405 18.7293 37.9967 18.7915 37.9422 18.8433C37.8877 18.8952 37.8234 18.9358 37.7532 18.9627L23.5913 24.4209C23.5209 24.4497 23.4454 24.4642 23.3693 24.4635C23.2932 24.4628 23.218 24.447 23.1482 24.4169C23.0783 24.3867 23.0151 24.343 22.9624 24.2881C22.9096 24.2333 22.8683 24.1685 22.8409 24.0975C22.8135 24.0265 22.8006 23.9508 22.8029 23.8747C22.8051 23.7986 22.8225 23.7238 22.8541 23.6546C22.8856 23.5853 22.9307 23.5231 22.9866 23.4714C23.0425 23.4198 23.1082 23.3799 23.1797 23.354L37.3425 17.8949C37.4125 17.8675 37.4872 17.8542 37.5623 17.8558C37.6374 17.8574 37.7115 17.8739 37.7802 17.9043C37.8489 17.9347 37.9109 17.9785 37.9626 18.033C38.0143 18.0876 38.0546 18.1519 38.0813 18.2221ZM33.2672 22.7802C33.3807 23.0737 33.3113 23.3746 33.1097 23.4524L23.4375 27.1818C23.236 27.2596 22.98 27.0834 22.8666 26.789C22.7541 26.4956 22.8254 26.1909 23.026 26.114L32.6982 22.3846C32.9007 22.3077 33.1538 22.4821 33.2672 22.7802Z" fill="#78111F"/>
</svg>
