<svg width="60" height="60" viewBox="0 0 60 60" fill="none" xmlns="http://www.w3.org/2000/svg">
<path d="M5.81999 53.8827C5.81999 53.8827 7.58437 60.4724 18.6384 58.7859L20.5134 54.3777L17.3344 51.0262L8.53593 48.209L5.81812 53.8827" fill="#34484C"/>
<path d="M41.0316 41.5369C41.0316 43.8694 39.7959 44.4844 36.6703 45.7622L9.98625 56.6916C7.57688 56.6906 5.625 54.7997 5.625 52.4644V16.0969C5.625 13.7597 7.0425 12.9825 9.98625 11.8669L36.6694 0.9375C39.0806 0.9375 41.0306 2.83406 41.0306 5.1675L41.0316 41.5369Z" fill="#AD7029"/>
<path d="M8.04932 56.2452C8.04932 56.2452 18.0496 59.0277 18.6374 58.7868C19.2178 58.5487 18.2634 54.5821 18.2634 54.5821L14.6465 50.804L11.2753 50.6521L10.6837 51.4668L8.04932 56.2452Z" fill="#34484C"/>
<path d="M36.0441 3.45654L6.4397 15.5184L7.82814 23.2462L12.2334 23.6756L26.9428 21.3797L36.0853 16.7315L42.8166 7.79342C41.3447 5.23592 39.1847 3.65154 36.0441 3.45654Z" fill="#F4F5F5"/>
<path d="M14.2809 18.1922C14.2809 17.5144 14.4065 16.9744 14.6475 16.5141C11.6184 16.2385 8.75624 15.3891 6.66936 13.5657C5.97467 14.1844 5.63342 14.9513 5.63342 16.096V52.4625C5.63342 54.7969 7.59092 56.6897 9.99655 56.6897L14.3025 54.9282C14.3015 54.8035 14.2819 54.6844 14.2819 54.5588L14.2809 18.1922Z" fill="#34484C"/>
<path d="M50.4553 45.119C50.4553 47.4543 49.2159 48.0675 46.095 49.3471L18.6356 58.7878C16.2263 58.7878 14.2706 56.895 14.2706 54.5596V18.1921C14.2706 15.8578 15.6881 15.0815 18.6356 13.9603L46.095 4.52246C48.5016 4.52246 50.4553 6.41621 50.4553 8.75246V45.119Z" fill="#F79420"/>
<path d="M39.0853 15.6216C39.1129 15.6924 39.126 15.768 39.1238 15.8439C39.1216 15.9199 39.1041 15.9946 39.0724 16.0637C39.0408 16.1328 38.9956 16.1948 38.9395 16.2461C38.8834 16.2974 38.8176 16.3368 38.7459 16.3622L24.1444 21.8269C23.9994 21.8812 23.8391 21.8774 23.6968 21.8162C23.5546 21.7551 23.4416 21.6413 23.3813 21.4987C23.3535 21.4281 23.3402 21.3525 23.3422 21.2766C23.3443 21.2007 23.3615 21.126 23.393 21.0569C23.4245 20.9878 23.4696 20.9257 23.5255 20.8744C23.5815 20.8231 23.6472 20.7835 23.7187 20.7581L38.3222 15.2944C38.4673 15.2401 38.6277 15.2441 38.7699 15.3054C38.9122 15.3667 39.0252 15.4807 39.0853 15.6234M39.0853 18.2222C39.1129 18.293 39.126 18.3686 39.1238 18.4446C39.1216 18.5205 39.1041 18.5953 39.0724 18.6644C39.0408 18.7334 38.9956 18.7955 38.9395 18.8467C38.8834 18.898 38.8176 18.9375 38.7459 18.9628L24.1444 24.4181C23.9995 24.4737 23.8387 24.4704 23.6961 24.4092C23.5536 24.3479 23.4406 24.2333 23.3813 24.09C23.3542 24.0196 23.3415 23.9445 23.3439 23.8691C23.3463 23.7937 23.3637 23.7196 23.3952 23.651C23.4266 23.5825 23.4714 23.5209 23.527 23.4699C23.5826 23.4189 23.6478 23.3795 23.7187 23.3541L38.3222 17.8894C38.4671 17.8341 38.6278 17.8374 38.7703 17.8987C38.9128 17.9599 39.0258 18.0743 39.0853 18.2175M34.1222 22.7775C34.2394 23.0737 34.1681 23.3747 33.96 23.4525L23.9878 27.1828C23.7797 27.2578 23.5172 27.0825 23.3981 26.7891C23.2819 26.4947 23.3559 26.1909 23.5641 26.1122L33.5362 22.3837C33.7406 22.3087 34.0041 22.4831 34.1222 22.7775Z" fill="#905A24"/>
</svg>
