<svg width="60" height="60" viewBox="0 0 60 60" fill="none" xmlns="http://www.w3.org/2000/svg">
<path d="M5.81067 53.8837C5.81067 53.8837 7.52629 60.4724 18.2429 58.7859L20.0738 54.3759L16.9894 51.0234L8.45348 48.209L5.81536 53.8837" fill="#34484C"/>
<path d="M39.9675 41.535C39.9675 43.8713 38.7694 44.4853 35.7394 45.765L9.855 56.6934C9.29936 56.6937 8.74912 56.5844 8.23574 56.3719C7.72236 56.1593 7.25591 55.8477 6.86306 55.4547C6.4702 55.0618 6.15865 54.5953 5.94622 54.0818C5.73378 53.5684 5.62463 53.0181 5.625 52.4625V16.0969C5.625 13.7587 6.99938 12.9806 9.855 11.8659L35.7394 0.9375C36.2948 0.9375 36.8447 1.04693 37.3578 1.25953C37.8709 1.47213 38.3371 1.78374 38.7298 2.17655C39.1224 2.56937 39.4338 3.03569 39.6462 3.54889C39.8586 4.06209 39.9677 4.6121 39.9675 5.1675V41.5425" fill="#40A82B"/>
<path d="M7.97815 56.2483C7.97815 56.2483 17.6785 59.0327 18.2438 58.7927C18.811 58.5536 17.8828 54.5861 17.8828 54.5861L14.3756 50.8052L11.1075 50.6533L10.5328 51.4689L7.97815 56.2483Z" fill="#34484C"/>
<path d="M35.13 3.45012L6.41626 15.512L7.76251 23.2464L12.0375 23.6711L26.2997 21.3751L35.1684 16.7279L41.6981 7.78699C40.2713 5.22762 38.1769 3.64418 35.13 3.44824" fill="#F4F5F5"/>
<path d="M14.024 18.1874C14.024 17.5078 14.1422 16.9668 14.3756 16.5056C11.4356 16.2318 8.65874 15.3806 6.63655 13.5571C5.9653 14.1759 5.63342 14.9446 5.63342 16.0884V52.4549C5.63367 53.5768 6.07938 54.6527 6.87258 55.4461C7.66578 56.2394 8.74155 56.6854 9.86342 56.6859L14.0419 54.9206C14.0296 54.7984 14.0233 54.6758 14.0231 54.5531L14.024 18.1874Z" fill="#34484C"/>
<path d="M49.1043 45.1189C49.1043 47.4552 47.9071 48.0692 44.8743 49.3489L18.2437 58.7895C17.6882 58.7897 17.1382 58.6803 16.625 58.4678C16.1117 58.2552 15.6454 57.9436 15.2527 57.5508C14.86 57.158 14.5485 56.6916 14.336 56.1784C14.1236 55.6651 14.0144 55.115 14.0146 54.5595V18.1939C14.0146 15.8548 15.389 15.0777 18.2437 13.9611L44.8743 4.51953C45.4299 4.51929 45.9801 4.62853 46.4934 4.84102C47.0067 5.05351 47.4731 5.36508 47.8659 5.75792C48.2588 6.15076 48.5704 6.61717 48.7828 7.13049C48.9953 7.64381 49.1046 8.19397 49.1043 8.74953V45.1245" fill="#3FA82B"/>
<path d="M38.0804 15.6185C38.1074 15.6886 38.1204 15.7634 38.1186 15.8385C38.1167 15.9136 38.1001 15.9877 38.0696 16.0564C38.0391 16.1251 37.9954 16.1871 37.941 16.2389C37.8865 16.2907 37.8224 16.3312 37.7522 16.3582L23.5866 21.8229C23.5167 21.8501 23.442 21.8631 23.367 21.8612C23.292 21.8594 23.2181 21.8426 23.1496 21.8119C23.0811 21.7812 23.0194 21.7371 22.9681 21.6824C22.9168 21.6276 22.8769 21.5632 22.8507 21.4929C22.8226 21.4233 22.8088 21.3488 22.81 21.2738C22.8112 21.1988 22.8274 21.1248 22.8576 21.0561C22.8878 20.9875 22.9315 20.9255 22.986 20.874C23.0405 20.8225 23.1048 20.7823 23.175 20.756L37.3388 15.2913C37.636 15.1788 37.9669 15.3251 38.0794 15.6195M38.0804 18.2248C38.1074 18.2949 38.1204 18.3696 38.1186 18.4448C38.1167 18.5199 38.1001 18.5939 38.0696 18.6626C38.0391 18.7313 37.9954 18.7933 37.941 18.8451C37.8865 18.8969 37.8224 18.9375 37.7522 18.9645L23.5866 24.4291C23.5168 24.4564 23.4422 24.4695 23.3673 24.4678C23.2924 24.466 23.2185 24.4494 23.1501 24.4188C23.0816 24.3883 23.0199 24.3445 22.9685 24.2899C22.9171 24.2354 22.8771 24.1712 22.8507 24.101C22.8227 24.0313 22.809 23.9567 22.8102 23.8816C22.8115 23.8065 22.8276 23.7324 22.8578 23.6636C22.888 23.5948 22.9317 23.5327 22.9861 23.481C23.0406 23.4293 23.1048 23.3889 23.175 23.3623L37.3388 17.8976C37.4088 17.8703 37.4836 17.8571 37.5587 17.8588C37.6339 17.8604 37.708 17.8769 37.7767 17.9072C37.8455 17.9375 37.9077 17.981 37.9596 18.0354C38.0115 18.0897 38.0522 18.1537 38.0794 18.2238M33.2644 22.7735C33.3788 23.0698 33.3085 23.3698 33.105 23.4485L23.4338 27.1779C23.2313 27.2548 22.9763 27.0785 22.8638 26.7841C22.7513 26.4879 22.8216 26.1879 23.0232 26.112L32.6963 22.3807C32.896 22.3038 33.1538 22.4773 33.2644 22.7735Z" fill="#78111F"/>
</svg>
