<svg width="60" height="60" viewBox="0 0 60 60" fill="none" xmlns="http://www.w3.org/2000/svg">
<path d="M5.8125 53.8828C5.8125 53.8828 7.52532 60.4706 18.2419 58.7859L20.0644 54.375L16.9819 51.0253L8.44594 48.21L5.80969 53.8837" fill="#34484C"/>
<path d="M39.9656 41.5312C39.9656 43.8656 38.7609 44.4769 35.7338 45.7594L9.85406 56.6841C9.2985 56.6842 8.74836 56.5748 8.23509 56.3622C7.72182 56.1496 7.25548 55.8379 6.86273 55.445C6.46997 55.0521 6.15851 54.5856 5.94613 54.0722C5.73375 53.5589 5.62463 53.0087 5.625 52.4531V16.095C5.625 13.755 6.9975 12.9797 9.85406 11.8622L35.7338 0.937501C36.2892 0.937131 36.8392 1.04619 37.3524 1.25845C37.8657 1.47071 38.3321 1.78201 38.725 2.17456C39.1179 2.56712 39.4296 3.03324 39.6423 3.54629C39.855 4.05935 39.9646 4.60929 39.9647 5.16469V41.5303" fill="#1EA0CD"/>
<path d="M7.97811 56.2377C7.97811 56.2377 17.6775 59.0221 18.2419 58.7821C18.809 58.5412 17.8809 54.5755 17.8809 54.5755L14.3728 50.7965L11.1075 50.6465L10.5328 51.4621L7.97717 56.2377" fill="#34484C"/>
<path d="M35.1262 3.45264L6.41809 15.5164L7.7634 23.2442L12.0337 23.6717L26.2968 21.3748L35.1647 16.7276L41.6925 7.78857C40.2656 5.23014 38.1722 3.6467 35.1272 3.45264" fill="#F4F5F5"/>
<path d="M14.0231 18.1896C14.0231 17.5146 14.1394 16.9708 14.3728 16.5114C11.4375 16.2396 8.66342 15.3874 6.63561 13.563C5.96623 14.1799 5.63623 14.9486 5.63623 16.0942V52.4542C5.63586 53.0096 5.74492 53.5597 5.95718 54.0729C6.16944 54.5862 6.48074 55.0526 6.87329 55.4455C7.26585 55.8384 7.73197 56.1501 8.24502 56.3628C8.75808 56.5755 9.30802 56.6851 9.86342 56.6852L14.0409 54.9217C14.0286 54.799 14.0223 54.6757 14.0222 54.5524L14.0231 18.1896Z" fill="#34484C"/>
<path d="M49.0987 45.1143C49.0987 47.4534 47.8997 48.0628 44.8687 49.3453L18.2456 58.785C17.1235 58.7847 16.0475 58.3389 15.2541 57.5455C14.4607 56.7521 14.0149 55.6761 14.0146 54.554V18.1922C14.0146 15.8559 15.389 15.0778 18.2456 13.9631L44.8687 4.52246C45.9907 4.52271 47.0666 4.96858 47.8598 5.76201C48.6531 6.55543 49.0987 7.63145 49.0987 8.7534V45.1143Z" fill="#57C6E9"/>
<path d="M38.0757 15.6207C38.1028 15.6909 38.1159 15.7658 38.1141 15.8411C38.1122 15.9164 38.0955 15.9906 38.065 16.0594C38.0344 16.1282 37.9905 16.1903 37.9359 16.2421C37.8813 16.2939 37.8169 16.3345 37.7466 16.3613L23.5866 21.8223C23.5166 21.8496 23.4419 21.8628 23.3668 21.8612C23.2917 21.8596 23.2177 21.8433 23.1489 21.8131C23.0801 21.7828 23.018 21.7394 22.966 21.6852C22.914 21.6309 22.8732 21.567 22.846 21.497C22.7914 21.3548 22.7953 21.1969 22.8568 21.0576C22.9183 20.9183 23.0323 20.809 23.1741 20.7535L37.335 15.2954C37.405 15.2681 37.4797 15.2549 37.5548 15.2565C37.6299 15.2581 37.704 15.2744 37.7727 15.3046C37.8415 15.3348 37.9037 15.3783 37.9556 15.4325C38.0076 15.4868 38.0484 15.5507 38.0757 15.6207ZM38.0757 18.2251C38.1026 18.2951 38.1155 18.3697 38.1136 18.4447C38.1117 18.5196 38.0949 18.5935 38.0643 18.662C38.0338 18.7304 37.9899 18.7922 37.9354 18.8437C37.8809 18.8952 37.8167 18.9354 37.7466 18.962L23.5866 24.422C23.4473 24.4671 23.2961 24.4571 23.1639 24.3942C23.0317 24.3313 22.9286 24.2201 22.8759 24.0836C22.8231 23.947 22.8246 23.7955 22.88 23.66C22.9355 23.5245 23.0407 23.4154 23.1741 23.3551L37.335 17.8951C37.477 17.841 37.6347 17.8454 37.7735 17.9072C37.9123 17.9691 38.0209 18.0834 38.0757 18.2251ZM33.2597 22.7701C33.3703 23.0663 33.301 23.3663 33.1003 23.4451L23.4282 27.1717C23.2285 27.2495 22.9744 27.076 22.8591 26.7807C22.7466 26.4835 22.816 26.1807 23.0166 26.1067L32.6869 22.3754C32.8903 22.3004 33.1444 22.4748 33.2607 22.7692" fill="#198BA9"/>
</svg>
