<svg width="26" height="26" viewBox="0 0 26 26" fill="none" xmlns="http://www.w3.org/2000/svg">
<path d="M17.3334 3.25C18.1624 3.24995 18.9601 3.56669 19.5632 4.13539C20.1663 4.7041 20.5294 5.48178 20.578 6.30933L20.5834 6.5V17.3333H21.3959C22.0968 17.3333 22.6742 17.8663 22.7436 18.5488L22.7501 18.6875V20.5833C22.7501 21.4123 22.4334 22.21 21.8647 22.8131C21.296 23.4163 20.5183 23.7793 19.6908 23.8279L19.5001 23.8333H8.66675C7.83777 23.8334 7.04011 23.5166 6.43697 22.9479C5.83382 22.3792 5.4708 21.6016 5.42216 20.774L5.41675 20.5833V9.75H3.52091C3.18567 9.75015 2.86228 9.62595 2.61334 9.40141C2.36439 9.17688 2.20758 8.86798 2.17325 8.5345L2.16675 8.39583V6.5C2.1667 5.67102 2.48343 4.87336 3.05214 4.27022C3.62084 3.66708 4.39853 3.30405 5.22608 3.25542L5.41675 3.25H17.3334ZM20.5834 19.5H10.8334V20.5833C10.8334 20.9625 10.7684 21.3276 10.6492 21.6667H19.5001C19.7874 21.6667 20.063 21.5525 20.2661 21.3494C20.4693 21.1462 20.5834 20.8707 20.5834 20.5833V19.5ZM13.0001 13H10.8334C10.5573 13.0003 10.2917 13.106 10.0909 13.2956C9.89015 13.4851 9.76933 13.7442 9.75314 14.0198C9.73696 14.2955 9.82665 14.5669 10.0039 14.7787C10.1811 14.9904 10.4325 15.1265 10.7067 15.1591L10.8334 15.1667H13.0001C13.2762 15.1664 13.5418 15.0606 13.7426 14.8711C13.9433 14.6815 14.0642 14.4225 14.0804 14.1468C14.0965 13.8712 14.0069 13.5998 13.8296 13.388C13.6524 13.1763 13.401 13.0402 13.1268 13.0076L13.0001 13ZM15.1667 8.66667H10.8334C10.5461 8.66667 10.2705 8.7808 10.0674 8.98397C9.86422 9.18713 9.75008 9.46268 9.75008 9.75C9.75008 10.0373 9.86422 10.3129 10.0674 10.516C10.2705 10.7192 10.5461 10.8333 10.8334 10.8333H15.1667C15.4541 10.8333 15.7296 10.7192 15.9328 10.516C16.1359 10.3129 16.2501 10.0373 16.2501 9.75C16.2501 9.46268 16.1359 9.18713 15.9328 8.98397C15.7296 8.7808 15.4541 8.66667 15.1667 8.66667ZM5.41675 5.41667C5.12943 5.41667 4.85388 5.5308 4.65072 5.73397C4.44755 5.93713 4.33341 6.21268 4.33341 6.5V7.58333H5.41675V5.41667Z" fill="#333333"/>
</svg>
