<svg width="26" height="26" viewBox="0 0 26 26" fill="none" xmlns="http://www.w3.org/2000/svg">
<path d="M20.5833 3.25001H16.055C15.6 1.99334 14.4083 1.08334 13 1.08334C11.5917 1.08334 10.4 1.99334 9.945 3.25001H5.41667C4.225 3.25001 3.25 4.22501 3.25 5.41668V20.5833C3.25 21.775 4.225 22.75 5.41667 22.75H20.5833C21.775 22.75 22.75 21.775 22.75 20.5833V5.41668C22.75 4.22501 21.775 3.25001 20.5833 3.25001ZM13 3.25001C13.5958 3.25001 14.0833 3.73751 14.0833 4.33334C14.0833 4.92918 13.5958 5.41668 13 5.41668C12.4042 5.41668 11.9167 4.92918 11.9167 4.33334C11.9167 3.73751 12.4042 3.25001 13 3.25001ZM14.0833 18.4167H8.66667C8.07083 18.4167 7.58333 17.9292 7.58333 17.3333C7.58333 16.7375 8.07083 16.25 8.66667 16.25H14.0833C14.6792 16.25 15.1667 16.7375 15.1667 17.3333C15.1667 17.9292 14.6792 18.4167 14.0833 18.4167ZM17.3333 14.0833H8.66667C8.07083 14.0833 7.58333 13.5958 7.58333 13C7.58333 12.4042 8.07083 11.9167 8.66667 11.9167H17.3333C17.9292 11.9167 18.4167 12.4042 18.4167 13C18.4167 13.5958 17.9292 14.0833 17.3333 14.0833ZM17.3333 9.75001H8.66667C8.07083 9.75001 7.58333 9.26251 7.58333 8.66668C7.58333 8.07084 8.07083 7.58334 8.66667 7.58334H17.3333C17.9292 7.58334 18.4167 8.07084 18.4167 8.66668C18.4167 9.26251 17.9292 9.75001 17.3333 9.75001Z" fill="#333333"/>
</svg>
