<svg width="31" height="31" viewBox="0 0 31 31" fill="none" xmlns="http://www.w3.org/2000/svg">
<circle cx="15.5" cy="15.5" r="15.5" fill="#D3D3D3"/>
<g clip-path="url(#clip0_133_1274)">
<path d="M21.3034 10.531L24.2371 7.62534C24.3616 7.50199 24.5676 7.52226 24.6658 7.66753L25.3425 8.66945C25.4357 8.80745 25.3885 8.99581 25.2412 9.07351L21.6308 10.9773C21.5698 11.0094 21.4991 11.0179 21.4322 11.0012C21.3654 10.9844 21.307 10.9435 21.2685 10.8864C21.2319 10.8324 21.2154 10.7673 21.2218 10.7024C21.2282 10.6375 21.257 10.5769 21.3034 10.531ZM21.7885 13.0263C21.7995 13.08 21.83 13.1278 21.874 13.1605C21.9181 13.1932 21.9727 13.2084 22.0273 13.2033L25.261 12.9014C25.2921 12.8985 25.3223 12.889 25.3495 12.8737C25.3768 12.8583 25.4005 12.8374 25.4191 12.8123C25.4377 12.7872 25.4509 12.7584 25.4576 12.7279C25.4644 12.6974 25.4646 12.6657 25.4584 12.6351L25.2655 11.6926C25.2375 11.5559 25.0922 11.4784 24.9631 11.5312L21.9223 12.7756C21.8743 12.7952 21.8347 12.831 21.8102 12.8768C21.7858 12.9226 21.7781 12.9755 21.7885 13.0263ZM19.3741 9.59488C19.4199 9.62508 19.4752 9.63733 19.5295 9.62927C19.5837 9.62121 19.6331 9.59341 19.6681 9.5512L21.7412 7.0512C21.7612 7.02713 21.7758 6.99912 21.7842 6.969C21.7926 6.93888 21.7946 6.90732 21.79 6.87639C21.7854 6.84545 21.7744 6.81584 21.7576 6.78946C21.7407 6.76309 21.7186 6.74055 21.6925 6.72331L20.8896 6.19327C20.7732 6.11644 20.6156 6.16433 20.5617 6.293L19.2915 9.32304C19.2714 9.37088 19.2687 9.42423 19.2838 9.47386C19.2989 9.52349 19.3308 9.56629 19.3741 9.59488Z" fill="#FFD469"/>
<path d="M14.5314 24.7436L13.9068 25.1088C13.3992 25.4057 12.747 25.2348 12.4501 24.7271L10.7943 21.8956C10.4974 21.388 10.6682 20.7358 11.1759 20.4389L11.8004 20.0737C12.3081 19.7768 12.9603 19.9477 13.2571 20.4553L14.913 23.2868C15.2099 23.7945 15.039 24.4467 14.5314 24.7436Z" fill="#00B1FF"/>
<path d="M10.7032 21.9649L16.7544 18.6704L12.6178 12.1935L7.14785 16.2573C7.11257 16.2798 5.63413 17.6325 7.25777 20.1748C8.8814 22.717 10.7032 21.9649 10.7032 21.9649Z" fill="#0096D1"/>
<path d="M20.1615 11.9464C21.9714 14.7803 23.068 17.8504 22.3108 18.334C21.5536 18.8176 19.2293 16.5317 17.4194 13.6977C15.6094 10.8638 14.5129 7.79377 15.2701 7.31014C16.0273 6.82651 18.3515 9.11248 20.1615 11.9464Z" fill="#727272"/>
<path d="M19.3092 15.8789C19.9365 15.4782 19.7568 14.0758 18.9078 12.7466C18.0588 11.4174 16.862 10.6646 16.2347 11.0653C15.6074 11.466 15.7871 12.8683 16.6361 14.1975C17.4851 15.5268 18.6819 16.2795 19.3092 15.8789Z" fill="#B2B2B2"/>
<path d="M22.2777 18.3552C21.6163 18.7776 19.3697 16.4421 17.5598 13.6081C15.7498 10.7742 14.5756 7.75377 15.237 7.33134C15.2751 7.30701 15.3178 7.29095 15.3645 7.28209C15.0525 7.27494 14.7468 7.43767 14.5659 7.78361C13.7687 9.30814 11.7342 12.6906 11.7342 12.6906C11.7342 12.6906 10.7246 14.0499 12.4994 16.8286C14.2741 19.6074 15.9875 19.2596 15.9875 19.2596C15.9875 19.2596 19.8798 18.862 21.59 18.7803C21.9949 18.761 22.2769 18.5362 22.394 18.2329C22.3629 18.2841 22.3244 18.3254 22.2777 18.3552Z" fill="#ECDFCC"/>
<path d="M8.06613 18.038C7.97363 18.0382 7.88259 18.0149 7.80145 17.9705C7.72031 17.9261 7.65169 17.8619 7.60195 17.7839C7.4384 17.5278 7.5134 17.1877 7.76949 17.0241L10.0316 15.5794C10.2877 15.4158 10.6279 15.4908 10.7914 15.7469C10.955 16.003 10.88 16.3431 10.6239 16.5067L8.36176 17.9515C8.27355 18.008 8.17093 18.0381 8.06613 18.038Z" fill="#00B1FF"/>
</g>
<defs>
<clipPath id="clip0_133_1274">
<rect width="20" height="20" fill="white" transform="translate(6 6)"/>
</clipPath>
</defs>
</svg>
