<svg width="14" height="15" viewBox="0 0 14 15" fill="none" xmlns="http://www.w3.org/2000/svg">
<g id="Group">
<path id="Vector" d="M7.00013 0.5C7.57746 0.499543 8.1509 0.594315 8.69738 0.7805C8.17951 1.31589 7.8533 2.00757 7.7696 2.74772C7.6859 3.48788 7.84941 4.23493 8.23464 4.87245C8.61988 5.50997 9.20519 6.00214 9.89937 6.27225C10.5935 6.54236 11.3576 6.57523 12.0724 6.36575L12.2501 6.30725V8.39525C12.2502 8.48222 12.2655 8.5685 12.2951 8.65025L12.3296 8.7305L13.6166 11.3052C13.6763 11.4245 13.7061 11.5564 13.7036 11.6897C13.7011 11.823 13.6663 11.9538 13.6023 12.0707C13.5382 12.1876 13.4467 12.2873 13.3357 12.3611C13.2247 12.435 13.0975 12.4808 12.9649 12.4947L12.8786 12.4993H1.12163C0.988254 12.4993 0.856856 12.467 0.738696 12.4051C0.620537 12.3433 0.51914 12.2537 0.443193 12.144C0.367247 12.0344 0.319016 11.9079 0.302634 11.7756C0.286251 11.6432 0.302206 11.5088 0.349131 11.384L0.383631 11.3052L1.67138 8.7305C1.71009 8.65264 1.73496 8.56863 1.74488 8.48225L1.75013 8.396V5.75C1.75013 4.35761 2.30325 3.02225 3.28782 2.03769C4.27239 1.05312 5.60774 0.5 7.00013 0.5ZM11.1251 1.25C11.6224 1.25 12.0993 1.44754 12.451 1.79917C12.8026 2.15081 13.0001 2.62772 13.0001 3.125C13.0001 3.62228 12.8026 4.09919 12.451 4.45083C12.0993 4.80246 11.6224 5 11.1251 5C10.6278 5 10.1509 4.80246 9.7993 4.45083C9.44767 4.09919 9.25013 3.62228 9.25013 3.125C9.25013 2.62772 9.44767 2.15081 9.7993 1.79917C10.1509 1.44754 10.6278 1.25 11.1251 1.25ZM7.00013 14.75C6.53464 14.7502 6.08053 14.6061 5.70039 14.3375C5.32025 14.0688 5.03279 13.6889 4.87763 13.25H9.12263C8.96747 13.6889 8.68001 14.0688 8.29987 14.3375C7.91973 14.6061 7.46562 14.7502 7.00013 14.75Z" fill="#333333"/>
<circle id="Ellipse 1" cx="11.125" cy="3.125" r="1.875" fill="#00FF00" fill-opacity="0.75"/>
</g>
</svg>
