<svg width="31" height="31" viewBox="0 0 31 31" fill="none" xmlns="http://www.w3.org/2000/svg">
<circle cx="15.5" cy="15.5" r="15.5" fill="#D3D3D3"/>
<path fill-rule="evenodd" clip-rule="evenodd" d="M16.6272 7.41298C16.215 7.20824 16.0469 6.70812 16.2516 6.29593C16.4563 5.88374 16.9565 5.71557 17.3687 5.92031C19.0855 6.77309 20.4703 8.70762 20.8563 10.5736C20.9496 11.0243 20.6598 11.4653 20.2091 11.5585C19.7584 11.6518 19.3175 11.362 19.2242 10.9113C18.9317 9.49759 17.8424 8.01659 16.6272 7.41298ZM21.0245 7.25976C20.7471 6.89251 20.82 6.36992 21.1872 6.09253C21.5545 5.81515 22.077 5.888 22.3544 6.25525C23.1734 7.33953 23.5954 8.9121 23.3894 10.1381C23.3131 10.592 22.8833 10.898 22.4295 10.8218C21.9756 10.7455 21.6695 10.3158 21.7458 9.86188C21.8678 9.13566 21.598 8.01904 21.0245 7.25976ZM7.02781 15.0184C7.01285 14.5584 6.62783 14.1976 6.16783 14.2126C5.70784 14.2275 5.34706 14.6126 5.36202 15.0725C5.42432 16.9885 6.60853 19.0519 8.14541 20.1784C8.51663 20.4505 9.03809 20.3702 9.31017 19.999C9.58225 19.6278 9.50192 19.1063 9.13071 18.8342C7.96634 17.9807 7.0719 16.3745 7.02781 15.0184ZM5.85851 19.3325C5.62712 18.9346 5.11702 18.7997 4.71919 19.0311C4.32135 19.2625 4.18641 19.7726 4.41781 20.1704C5.10097 21.345 6.38796 22.3423 7.59821 22.6265C8.04626 22.7318 8.49475 22.4538 8.59996 22.0058C8.70517 21.5577 8.42725 21.1092 7.9792 21.004C7.26228 20.8357 6.3369 20.155 5.85851 19.3325Z" fill="#C5C328"/>
<path d="M17.1086 9.37217C16.7501 8.75127 15.9987 8.30325 15.2686 8.63971C15.1995 8.67155 15.1304 8.70681 15.0628 8.74588C14.9365 8.81875 14.824 8.89372 14.724 8.96811C14.1479 9.39696 14.1891 10.1489 14.5015 10.69L16.0409 13.3563C16.1841 13.6043 16.099 13.9211 15.8502 14.0648C15.601 14.2086 15.2825 14.1227 15.1394 13.873C14.6423 13.0055 13.7514 11.4532 13.2293 10.5565C12.9767 10.1226 12.4894 9.74333 11.9168 9.91875C11.7439 9.97167 11.5507 10.0519 11.3435 10.1715C11.2021 10.2532 11.0773 10.3358 10.9676 10.4166C10.4097 10.8274 10.4076 11.5448 10.7133 12.0836C11.2464 13.0233 12.1329 14.5367 12.7091 15.515C12.8553 15.7632 12.7713 16.0829 12.5222 16.2267C12.275 16.3695 11.9589 16.2848 11.8162 16.0375L10.6013 13.9334C10.3523 13.5021 9.86263 13.1179 9.293 13.3283C9.15038 13.3809 8.99175 13.4538 8.81854 13.5538C8.6765 13.6358 8.54967 13.7216 8.43721 13.807C7.84604 14.2562 7.87239 15.04 8.2015 15.61C8.66671 16.4156 9.42075 17.7216 10.2528 19.1631C10.8502 20.2025 11.7595 21.458 12.6919 22.5088C13.9999 23.9828 16.0573 24.1824 17.7717 23.2755C18.0831 23.1108 18.4163 22.9274 18.7685 22.7241C19.7595 22.1519 20.4634 21.6789 20.9435 21.3257C21.5668 20.8673 22.0327 20.2414 22.3196 19.529C23.1282 17.5215 23.5263 15.2778 23.692 14.1183C23.771 13.5659 23.6765 12.9493 23.2469 12.5183C23.0485 12.3193 22.8381 12.1576 22.6331 12.0266C22.2441 11.7782 21.8129 11.7775 21.4445 11.9437C21.0807 12.1078 20.7798 12.4323 20.6207 12.8367C20.4053 13.3844 20.2193 13.8895 20.0873 14.2576C20.0657 14.3178 20.0455 14.3744 20.0269 14.4269L17.1086 9.37217Z" fill="#F3FA8F"/>
<path d="M19.5324 13.5706C19.5149 13.5738 19.4974 13.5778 19.48 13.5829C17.8557 14.0537 16.1941 15.7042 16.6925 17.9462C16.7549 18.227 17.0331 18.404 17.314 18.3416C17.5947 18.2791 17.7717 18.0009 17.7093 17.7201C17.3687 16.188 18.4843 14.9561 19.77 14.5834C19.8723 14.5537 19.9586 14.4954 20.0226 14.4196L19.5324 13.5706Z" fill="#C5C328"/>
</svg>
