<svg width="31" height="31" viewBox="0 0 31 31" fill="none" xmlns="http://www.w3.org/2000/svg">
<circle cx="15.5" cy="15.5" r="15.5" fill="#D3D3D3"/>
<path d="M20.6032 11.1641C21.6516 10.9313 23.0172 9.89068 23.2251 9.37818C23.3469 9.07818 22.7391 8.60943 22.5766 8.42036C22.2047 7.98911 22.3547 7.77661 22.4985 7.26255C22.6626 6.67818 22.2735 6.03286 21.7219 5.77974C21.1704 5.52661 20.511 5.6063 19.9563 5.85318C19.4016 6.10005 18.9282 6.49693 18.4641 6.88755C18.1251 6.67349 17.5844 5.72818 16.7094 6.34224C16.1047 6.76568 16.0501 7.68755 16.1282 8.42349C16.311 10.1219 16.7297 11.0032 17.5188 11.2407C18.5157 11.5407 19.6188 11.3829 20.6032 11.1641Z" fill="#FFCA28"/>
<path d="M22.3062 6.27808C22.1734 8.56714 19.9405 10.0859 18.8812 10.7546L19.5687 11.3453C19.5687 11.3453 20.0046 11.3546 20.6015 11.164C21.6249 10.839 23.1202 9.92026 23.2234 9.37808C23.3749 8.58901 22.5655 8.76089 22.3827 8.13745C22.2874 7.80776 22.8468 7.18433 22.3062 6.27808ZM18.4655 6.88901C18.4655 6.88901 18.0671 6.4812 17.7718 6.29526C17.6249 6.57183 17.5202 6.87183 17.4687 7.1812C17.3765 7.72495 17.4687 8.49683 17.6859 9.07183C17.7202 9.16089 17.8484 9.14683 17.8624 9.05308C18.0499 7.81714 18.4655 6.88901 18.4655 6.88901Z" fill="#E2A610"/>
<path d="M15.6813 10.9625C15.6813 10.9625 10.8078 11.489 8.6094 15.7203C6.41096 19.9515 8.27971 22.5172 10.2578 23.4515C12.236 24.3859 17.2203 24.7156 20.4625 23.9468C23.7047 23.1781 24.5157 21.5843 24.3641 20.0453C24.1438 17.7984 22.0563 16.4172 22.0563 16.4172C22.0563 16.4172 22.1391 13.6422 19.986 11.8406C18.075 10.2406 15.6813 10.9625 15.6813 10.9625Z" fill="#FFCA28"/>
<path d="M17.6813 18.0828C16.636 16.7641 15.4016 16.5875 15.0063 16.1141C14.7907 15.8563 14.6641 15.5953 14.7125 15.2719C14.7641 14.9281 15.1625 14.6906 15.4719 14.6328C15.8329 14.5641 16.6938 14.6 17.4172 15.2891C17.5891 15.4516 17.5266 15.7047 17.5219 15.9313C17.5094 16.4172 18.2047 16.8891 18.7672 16.4828C19.3313 16.075 18.8985 15.1672 18.5344 14.7266C18.2594 14.3938 17.2625 13.661 16.0235 13.5453C15.675 13.5125 14.2735 13.3047 13.4641 14.8438C13.2313 15.286 13.1454 16.3547 14.3641 17.2578C14.6188 17.4469 15.9407 18.1188 16.3079 18.5547C16.9438 19.3094 16.5079 19.9735 16.011 20.061C14.6563 20.2985 13.8891 19.5656 13.7469 19.1641C13.6454 18.8781 13.7516 18.5688 13.6204 18.3C13.486 18.0235 13.211 17.9141 12.9204 18.0063C11.9672 18.3094 12.2704 19.3516 12.6922 19.925C13.1438 20.5391 13.6985 20.9094 14.3219 21.1125C16.6485 21.8703 17.7672 20.6735 17.9625 19.7969C18.1063 19.1547 18.0907 18.5985 17.6813 18.0828Z" fill="#6B4B46"/>
<path d="M17.1187 12.6547C15.139 16.8828 14.7983 22.2219 14.7983 22.2219" stroke="#6B4B46" stroke-width="0.625" stroke-miterlimit="10"/>
<path d="M18.761 9.99371C20.0797 10.4234 20.3719 11.6156 20.2766 11.9406C20.1625 12.3218 18.7016 10.8375 16.5297 10.9265C15.7704 10.9578 15.9907 10.4921 16.3422 10.2234C16.8063 9.86871 17.586 9.61246 18.761 9.99371Z" fill="#6D4C41"/>
<path d="M18.761 9.99371C20.0797 10.4234 20.3719 11.6156 20.2766 11.9406C20.1625 12.3218 18.7016 10.8375 16.5297 10.9265C15.7704 10.9578 15.9907 10.4921 16.3422 10.2234C16.8063 9.86871 17.586 9.61246 18.761 9.99371Z" fill="#6B4B46"/>
<path d="M21.0765 14.1968C21.2421 14.0828 21.7984 14.2796 21.9546 15.3687C22.0312 15.9015 22.0546 16.4171 22.0546 16.4171C22.0546 16.4171 21.3984 15.8281 21.1812 15.414C20.9078 14.8906 20.8015 14.3843 21.0765 14.1968Z" fill="#E2A610"/>
</svg>
