<svg width="21" height="22" viewBox="0 0 21 22" fill="none" xmlns="http://www.w3.org/2000/svg">
<path d="M6.97225 9.25694V6.64236C6.97225 4.71628 8.53228 3.15625 10.4584 3.15625C12.3844 3.15625 13.9445 4.71628 13.9445 6.64236V9.25694M10.4584 13.6146C10.6895 13.6146 10.9112 13.5228 11.0746 13.3593C11.2381 13.1959 11.3299 12.9742 11.3299 12.7431C11.3299 12.5119 11.2381 12.2902 11.0746 12.1268C10.9112 11.9634 10.6895 11.8715 10.4584 11.8715C10.2272 11.8715 10.0055 11.9634 9.8421 12.1268C9.67865 12.2902 9.58683 12.5119 9.58683 12.7431C9.58683 12.9742 9.67865 13.1959 9.8421 13.3593C10.0055 13.5228 10.2272 13.6146 10.4584 13.6146ZM10.4584 13.6146V16.2292M5.75211 9.25694H15.1646C15.9316 9.25694 16.5591 9.88445 16.5591 10.6514V16.7521C16.5591 17.9025 15.6178 18.8438 14.4674 18.8438H6.44933C5.29892 18.8438 4.35767 17.9025 4.35767 16.7521V10.6514C4.35767 9.88445 4.98517 9.25694 5.75211 9.25694Z" stroke="#333333" stroke-opacity="0.9" stroke-width="1.30729" stroke-miterlimit="10" stroke-linecap="round" stroke-linejoin="round"/>
</svg>
