<svg width="51" height="65" viewBox="0 0 51 65" fill="none" xmlns="http://www.w3.org/2000/svg">
<g clip-path="url(#clip0_192_1156)">
<g opacity="0.3">
<path opacity="0.3" d="M34.9358 13.152C33.5688 13.1506 32.2582 12.5701 31.2913 11.5378C30.3244 10.5055 29.7803 9.10572 29.7784 7.6455V0H6.7457C4.96145 0 3.25031 0.757111 1.98866 2.10478C0.727 3.45246 0.0181885 5.28029 0.0181885 7.18619V50.5063C0.0181885 52.4122 0.727 54.24 1.98866 55.5877C3.25031 56.9354 4.96145 57.6925 6.7457 57.6925H34.3959C36.1801 57.6925 37.8913 56.9354 39.153 55.5877C40.4146 54.24 41.1234 52.4122 41.1234 50.5063V13.152H34.9358Z" fill="#FF3E4C"/>
</g>
<path d="M41.1234 13.152H34.9358C33.5688 13.1506 32.2582 12.5701 31.2913 11.5378C30.3244 10.5055 29.7803 9.10573 29.7784 7.6455V0L41.1234 13.152Z" fill="#FF3E4C"/>
<path d="M32.6658 40.2784H6.85563C6.61568 40.2651 6.38966 40.154 6.22421 39.9679C6.05877 39.7818 5.96646 39.5349 5.96646 39.2783C5.96646 39.0216 6.05877 38.7748 6.22421 38.5887C6.38966 38.4026 6.61568 38.2914 6.85563 38.2782H32.6658C32.7928 38.2712 32.9198 38.2918 33.0391 38.3389C33.1584 38.386 33.2675 38.4586 33.3597 38.5521C33.452 38.6457 33.5254 38.7583 33.5756 38.8831C33.6257 39.008 33.6517 39.1424 33.6517 39.2783C33.6517 39.4141 33.6257 39.5486 33.5756 39.6734C33.5254 39.7983 33.452 39.9109 33.3597 40.0044C33.2675 40.098 33.1584 40.1705 33.0391 40.2176C32.9198 40.2647 32.7928 40.2854 32.6658 40.2784Z" fill="#FF3E4C"/>
<path d="M32.6658 29.0013H6.85563C6.61568 28.988 6.38966 28.8769 6.22421 28.6908C6.05877 28.5047 5.96646 28.2578 5.96646 28.0012C5.96646 27.7445 6.05877 27.4977 6.22421 27.3116C6.38966 27.1255 6.61568 27.0143 6.85563 27.0011H32.6658C32.7928 26.9941 32.9198 27.0147 33.0391 27.0618C33.1584 27.1089 33.2675 27.1815 33.3597 27.275C33.452 27.3686 33.5254 27.4812 33.5756 27.606C33.6257 27.7309 33.6517 27.8653 33.6517 28.0012C33.6517 28.137 33.6257 28.2715 33.5756 28.3963C33.5254 28.5212 33.452 28.6338 33.3597 28.7273C33.2675 28.8209 33.1584 28.8934 33.0391 28.9405C32.9198 28.9876 32.7928 29.0083 32.6658 29.0013Z" fill="#FF3E4C"/>
<path d="M32.6658 34.6414H6.85563C6.61568 34.6281 6.38966 34.517 6.22421 34.3309C6.05877 34.1448 5.96646 33.898 5.96646 33.6413C5.96646 33.3847 6.05877 33.1378 6.22421 32.9517C6.38966 32.7656 6.61568 32.6545 6.85563 32.6412H32.6658C32.7928 32.6342 32.9198 32.6549 33.0391 32.702C33.1584 32.7491 33.2675 32.8216 33.3597 32.9152C33.452 33.0087 33.5254 33.1213 33.5756 33.2462C33.6257 33.371 33.6517 33.5055 33.6517 33.6413C33.6517 33.7772 33.6257 33.9116 33.5756 34.0365C33.5254 34.1613 33.452 34.2739 33.3597 34.3675C33.2675 34.461 33.1584 34.5336 33.0391 34.5806C32.9198 34.6277 32.7928 34.6484 32.6658 34.6414Z" fill="#FF3E4C"/>
<path d="M22.4856 23.3613H6.85563C6.61568 23.348 6.38966 23.2369 6.22421 23.0508C6.05877 22.8647 5.96646 22.6178 5.96646 22.3612C5.96646 22.1045 6.05877 21.8577 6.22421 21.6716C6.38966 21.4855 6.61568 21.3743 6.85563 21.3611H22.4856C22.7256 21.3743 22.9517 21.4855 23.1171 21.6716C23.2826 21.8577 23.3748 22.1045 23.3748 22.3612C23.3748 22.6178 23.2826 22.8647 23.1171 23.0508C22.9517 23.2369 22.7256 23.348 22.4856 23.3613Z" fill="#FF3E4C"/>
<path d="M22.4856 17.7211H6.85563C6.61568 17.7079 6.38966 17.5967 6.22421 17.4106C6.05877 17.2245 5.96646 16.9777 5.96646 16.721C5.96646 16.4644 6.05877 16.2175 6.22421 16.0314C6.38966 15.8453 6.61568 15.7342 6.85563 15.7209H22.4856C22.7256 15.7342 22.9517 15.8453 23.1171 16.0314C23.2826 16.2175 23.3748 16.4644 23.3748 16.721C23.3748 16.9777 23.2826 17.2245 23.1171 17.4106C22.9517 17.5967 22.7256 17.7079 22.4856 17.7211Z" fill="#FF3E4C"/>
<path d="M46.0034 45.5608H14.7432C12.5258 45.5608 10.7282 47.4809 10.7282 49.8495V59.805C10.7282 62.1736 12.5258 64.0937 14.7432 64.0937H46.0034C48.2209 64.0937 50.0185 62.1736 50.0185 59.805V49.8495C50.0185 47.4809 48.2209 45.5608 46.0034 45.5608Z" fill="#FF3E4C"/>
<path d="M20.9833 56.9822V58.9236H19.1008V56.9822H20.9833Z" fill="white"/>
<path d="M23.7482 56.1063V58.9236H21.9282V50.8936H24.8732C25.7682 50.8936 26.4491 51.1303 26.9158 51.6039C27.1527 51.8521 27.3377 52.151 27.4588 52.481C27.5798 52.811 27.6342 53.1646 27.6182 53.5186C27.6265 53.9857 27.5177 54.4467 27.3032 54.8538C27.087 55.2539 26.7629 55.5749 26.3732 55.7752C25.9053 56.0125 25.391 56.127 24.8732 56.109L23.7482 56.1063ZM25.7683 53.5186C25.7683 52.8065 25.4032 52.4504 24.6732 52.4504H23.7482V54.5414H24.6732C25.4032 54.5485 25.7683 54.2076 25.7683 53.5186Z" fill="white"/>
<path d="M34.8008 56.9877C34.4869 57.5951 34.0132 58.0909 33.4383 58.4137C32.7931 58.767 32.0756 58.9424 31.3508 58.9238H28.5108V50.8937H31.3508C32.0769 50.8749 32.7961 51.0463 33.4458 51.3931C34.0176 51.7102 34.489 52.2008 34.8008 52.8031C35.1114 53.4506 35.2734 54.1678 35.2734 54.8954C35.2734 55.623 35.1114 56.3402 34.8008 56.9877ZM32.8433 56.5845C33.224 56.1147 33.4335 55.5141 33.4335 54.8927C33.4335 54.2714 33.224 53.6708 32.8433 53.201C32.3887 52.7746 31.7946 52.5576 31.1908 52.5975H30.3283V57.1853H31.2033C31.8024 57.2215 32.3911 57.0059 32.8433 56.5845Z" fill="white"/>
<path d="M41.2033 50.8936V52.4397H38.1208V54.1996H40.5033V55.6763H38.1208V58.9236H36.3033V50.8936H41.2033Z" fill="white"/>
<path d="M32.2084 15.7209H27.7884C27.0179 15.7209 26.3933 16.3881 26.3933 17.2111V21.9324C26.3933 22.7554 27.0179 23.4225 27.7884 23.4225H32.2084C32.9788 23.4225 33.6033 22.7554 33.6033 21.9324V17.2111C33.6033 16.3881 32.9788 15.7209 32.2084 15.7209Z" fill="#FF3E4C"/>
</g>
<defs>
<clipPath id="clip0_192_1156">
<rect width="50.0003" height="64.0937" fill="white" transform="translate(0.0181885)"/>
</clipPath>
</defs>
</svg>
