<svg width="25" height="20" viewBox="0 0 25 20" fill="none" xmlns="http://www.w3.org/2000/svg">
<path d="M15 11.25H21.25V8.75H15V11.25ZM15 7.5H21.25V5H15V7.5ZM3.75 15H13.75V14.3125C13.75 13.375 13.2917 12.6304 12.375 12.0788C11.4583 11.5271 10.25 11.2508 8.75 11.25C7.25 11.2492 6.04167 11.5254 5.125 12.0788C4.20833 12.6321 3.75 13.3767 3.75 14.3125V15ZM8.75 10C9.4375 10 10.0263 9.75542 10.5163 9.26625C11.0063 8.77708 11.2508 8.18833 11.25 7.5C11.2492 6.81167 11.0046 6.22333 10.5163 5.735C10.0279 5.24667 9.43917 5.00167 8.75 5C8.06083 4.99833 7.4725 5.24333 6.985 5.735C6.4975 6.22667 6.2525 6.815 6.25 7.5C6.2475 8.185 6.4925 8.77375 6.985 9.26625C7.4775 9.75875 8.06583 10.0033 8.75 10ZM2.5 20C1.8125 20 1.22417 19.7554 0.735 19.2663C0.245833 18.7771 0.000833333 18.1883 0 17.5V2.5C0 1.8125 0.245 1.22417 0.735 0.735C1.225 0.245833 1.81333 0.000833333 2.5 0H22.5C23.1875 0 23.7763 0.245 24.2663 0.735C24.7563 1.225 25.0008 1.81333 25 2.5V17.5C25 18.1875 24.7554 18.7763 24.2663 19.2663C23.7771 19.7563 23.1883 20.0008 22.5 20H2.5Z" fill="#333333"/>
</svg>
