<svg width="24" height="21" viewBox="0 0 24 21" fill="none" xmlns="http://www.w3.org/2000/svg">
<path d="M7 14C5.61667 14 4.43767 13.5123 3.463 12.537C2.48833 11.5617 2.00067 10.3827 2 9C1.99933 7.61733 2.487 6.43833 3.463 5.463C4.439 4.48767 5.618 4 7 4H10C10.2833 4 10.521 4.096 10.713 4.288C10.905 4.48 11.0007 4.71733 11 5C10.9993 5.28267 10.9033 5.52033 10.712 5.713C10.5207 5.90567 10.2833 6.00133 10 6H7C6.16667 6 5.45833 6.29167 4.875 6.875C4.29167 7.45833 4 8.16667 4 9C4 9.83333 4.29167 10.5417 4.875 11.125C5.45833 11.7083 6.16667 12 7 12H10C10.2833 12 10.521 12.096 10.713 12.288C10.905 12.48 11.0007 12.7173 11 13C10.9993 13.2827 10.9033 13.5203 10.712 13.713C10.5207 13.9057 10.2833 14.0013 10 14H7ZM9 10C8.71667 10 8.47933 9.904 8.288 9.712C8.09667 9.52 8.00067 9.28267 8 9C7.99933 8.71733 8.09533 8.48 8.288 8.288C8.48067 8.096 8.718 8 9 8H15C15.2833 8 15.521 8.096 15.713 8.288C15.905 8.48 16.0007 8.71733 16 9C15.9993 9.28267 15.9033 9.52033 15.712 9.713C15.5207 9.90567 15.2833 10.0013 15 10H9ZM14 14C13.7167 14 13.4793 13.904 13.288 13.712C13.0967 13.52 13.0007 13.2827 13 13C12.9993 12.7173 13.0953 12.48 13.288 12.288C13.4807 12.096 13.718 12 14 12H17C17.8333 12 18.5417 11.7083 19.125 11.125C19.7083 10.5417 20 9.83333 20 9C20 8.16667 19.7083 7.45833 19.125 6.875C18.5417 6.29167 17.8333 6 17 6H14C13.7167 6 13.4793 5.904 13.288 5.712C13.0967 5.52 13.0007 5.28267 13 5C12.9993 4.71733 13.0953 4.48 13.288 4.288C13.4807 4.096 13.718 4 14 4H17C18.3833 4 19.5627 4.48767 20.538 5.463C21.5133 6.43833 22.0007 7.61733 22 9C21.9993 10.3827 21.5117 11.562 20.537 12.538C19.5623 13.514 18.3833 14.0013 17 14H14Z" fill="#1AADEE"/>
</svg>
